<?xml version="1.0" encoding="iso-8859-1"?>
<!-- Generator: Adobe Illustrator 19.0.1, SVG Export Plug-In . SVG Version: 6.00 Build 0)  -->
<svg version="1.1" id="Layer_1" xmlns="http://www.w3.org/2000/svg" xmlns:xlink="http://www.w3.org/1999/xlink" x="0px" y="0px"
	 viewBox="0 0 58.303 14.613" style="enable-background:new 0 0 58.303 14.613;" xml:space="preserve">
<symbol  id="Discount" viewBox="-64 -16.041 128 32.081">
	<g>
		<path style="fill:#006193;" d="M-47.956-14.972c-8.257,0-14.975,6.716-14.975,14.972s6.718,14.972,14.975,14.972H47.96
			c8.255,0,14.971-6.716,14.971-14.972c0-8.206-6.676-14.922-14.881-14.972H-47.956z"/>
		<path style="fill:#E9A200;" d="M47.96,13.902c7.665,0,13.901-6.236,13.901-13.901c0-7.622-6.2-13.858-13.808-13.902h-96.009
			c-7.667,0-13.905,6.236-13.905,13.902c0,7.665,6.238,13.901,13.905,13.901H47.96 M47.96,16.041c-0.835,0-95.081,0-95.916,0
			C-56.813,16.041-64,8.855-64,0c0-8.855,7.186-16.041,16.044-16.041c0.031,0,96.009,0,96.009,0C56.87-15.99,64-8.833,64,0
			C64,8.855,56.82,16.041,47.96,16.041L47.96,16.041z"/>
	</g>
	
		<text transform="matrix(1 0 0 -1 -50.5615 -7.0703)" style="fill:#FFFFFF; font-family:'NeuzeitGro-Bol'; font-size:19.8621px; letter-spacing:1;">DISCOUNT</text>
</symbol>
<symbol  id="Select50" viewBox="-63.999 -33.568 128 67.135">
	<path style="fill:#006098;" d="M30.439,33.567c-18.534,0-33.563-15.026-33.563-33.563c0-18.534,15.03-33.56,33.563-33.56
		c18.535,0,33.562,15.026,33.562,33.56C64.001,18.541,48.974,33.567,30.439,33.567 M30.439,23.354
		c12.872,0,23.346-10.477,23.346-23.349c0-12.873-10.474-23.345-23.346-23.345c-12.874,0-23.346,10.472-23.346,23.345
		C7.093,12.877,17.565,23.354,30.439,23.354"/>
	<polygon style="fill:#E8A123;" points="30.13,19.439 34.606,6.138 49.098,6.138 37.377,-2.391 41.861,-15.853 30.13,-7.712 
		18.407,-15.971 22.891,-2.377 11.159,6.138 25.654,6.138 	"/>
	<path style="fill:#006098;" d="M-25.076,9.635c-2.881,0-5.165-0.498-8.242-1.787v14.199h22.147v11.52H-44.94V-5.66h8.342
		c2.482,3.177,4.967,4.469,8.442,4.469c5.464,0,9.829-4.569,9.829-10.228c0-5.664-4.268-10.131-9.732-10.131
		c-4.469,0-7.347,2.185-9.236,7.247h-7.646V-25.27c0.58-0.797,1.222-1.544,1.987-2.34c3.972-3.872,9.335-5.958,15.292-5.958
		c12.613,0,21.753,9.338,21.753,22.442C-5.909,0.697-14.253,9.635-25.076,9.635z"/>
	<g>
		<path style="fill:#006098;" d="M-54.033-30.833h0.187c0.904,0,1.603,0.822,1.603,1.871c0,1.029-0.636,1.806-1.48,1.806
			c-0.432,0-0.822-0.206-1.09-0.553c-0.246-0.35-0.35-0.578-0.741-1.664c-1.068-3.024-2.177-4.069-4.294-4.069
			c-2.487,0-4.152,1.806-4.152,4.52c0,2.67,1.561,4.401,4.192,4.625v-2.839c-1.15-0.1-1.706-0.673-1.706-1.786
			c0-1.007,0.597-1.686,1.44-1.686c0.554,0,0.984,0.289,1.314,0.846c0.206,0.37,0.288,0.594,0.656,1.602
			c0.556,1.499,0.946,2.262,1.522,2.857c0.68,0.7,1.624,1.089,2.651,1.089c2.487,0,4.173-1.892,4.173-4.729
			c0-2.853-1.645-4.644-4.277-4.624V-30.833z"/>
		<path style="fill:#006098;" d="M-58.06-18.46v4.807h2.301v-4.807h3.433v4.807h2.304v-7.622h-13.709v7.622h2.301v-4.807H-58.06z"/>
		<path style="fill:#006098;" d="M-52.345-2.661h2.323v-7.398h-13.709v2.816h11.386V-2.661z"/>
		<path style="fill:#006098;" d="M-58.06,2.785v4.808h2.301V2.785h3.433v4.808h2.304V-0.03h-13.709v7.623h2.301V2.785H-58.06z"/>
		<path style="fill:#006098;" d="M-51.834,22.514c1.481-1.585,2.078-3.062,2.078-5.097c0-2.119-0.761-3.842-2.239-5.078
			c-1.275-1.066-3.063-1.682-4.852-1.682c-4.172,0-7.152,2.834-7.152,6.802c0,2.116,0.617,3.554,2.178,5.176l1.85-1.829
			c-1.007-1.109-1.418-2.033-1.418-3.223c0-2.407,1.829-4.071,4.48-4.071c2.651,0,4.544,1.748,4.544,4.232
			c0,1.276-0.433,2.221-1.399,3.062L-51.834,22.514z"/>
		<path style="fill:#006098;" d="M-50.022,30.321v-2.816H-61.43v-3.266h-2.301v9.329h2.301v-3.247H-50.022z"/>
	</g>
</symbol>
<g id="New_Symbol_7">
	<g id="Select50_Discount">
		<g id="New_Symbol">
		</g>
	</g>
	<g id="Select50_Discount_1_">
		
			<use xlink:href="#Discount"  width="128" height="32.081" x="-64" y="-16.041" transform="matrix(0.4555 0 0 -0.4555 29.1512 7.3063)" style="overflow:visible;"/>
	</g>
</g>
<g id="Select50_Discount_2_">
</g>
<g id="Select50_Discount_3_">
</g>
</svg>
