<svg xmlns="http://www.w3.org/2000/svg" viewBox="0 0 29.579 25.364"><path d="M17.83 4.876c0-.66.1-1.3.274-1.905-1.785-1.048-3.858-1.66-6.078-1.66C5.386 1.31 0 6.695 0 13.338c0 6.643 5.385 12.026 12.027 12.026s12.028-5.384 12.028-12.026c0-.556-.05-1.098-.124-1.634-3.426-.386-6.1-3.3-6.1-6.828zm-5.803 16.828c-4.613 0-8.367-3.753-8.367-8.366 0-4.614 3.754-8.367 8.367-8.367 4.614 0 8.368 3.754 8.368 8.368 0 4.613-3.754 8.366-8.368 8.366z" fill="#006098"/><path d="M24.705 0c-2.693 0-4.875 2.183-4.875 4.876 0 2.692 2.182 4.875 4.875 4.875 2.692 0 4.874-2.182 4.874-4.874C29.58 2.184 27.396 0 24.704 0zm2.786 5.602h-2.068v2.06H23.98v-2.06h-2.06V4.16h2.06V2.09h1.442v2.07h2.07V5.6zM12 6.3l2 5h5l-4 3 1 5-4-3.07-4 3.07 1-5-4-3h5l2-5z" fill="#E8A123"/></svg>