<?xml version="1.0" encoding="utf-8"?>
<!-- Generator: Adobe Illustrator 19.0.1, SVG Export Plug-In . SVG Version: 6.00 Build 0)  -->
<svg version="1.1" id="Layer_1" xmlns="http://www.w3.org/2000/svg" xmlns:xlink="http://www.w3.org/1999/xlink" x="0px" y="0px"
	 viewBox="-41 -6.7 58.3 48.5" style="enable-background:new -41 -6.7 58.3 48.5;" xml:space="preserve">
<style type="text/css">
	.st0{fill:#006193;}
	.st1{fill:#E9A200;}
	.st2{enable-background:new    ;}
	.st3{fill:#FFFFFF;}
	.st4{fill:#006098;}
	.st5{fill:#E8A123;}
</style>
<symbol  id="Discount" viewBox="-64 -16 128 32.1">
	<g>
		<path class="st0" d="M-48-15c-8.3,0-15,6.7-15,15s6.7,15,15,15H48c8.3,0,15-6.7,15-15c0-8.2-6.7-14.9-14.9-15H-48z"/>
		<path class="st1" d="M48,13.9c7.7,0,13.9-6.2,13.9-13.9c0-7.6-6.2-13.9-13.8-13.9h-96c-7.7,0-13.9,6.2-13.9,13.9
			c0,7.7,6.2,13.9,13.9,13.9H48 M48,16c-0.8,0-95.1,0-95.9,0c-8.9,0-16-7.2-16-16s7.2-16,16-16c0,0,96,0,96,0C56.9-16,64-8.8,64,0
			C64,8.9,56.8,16,48,16L48,16z"/>
	</g>
	<text transform="matrix(1 0 0 -1 -50.5615 -7.0703)" class="st3" style="font-family:'NeuzeitGro-Bol'; font-size:19.8621px;">DISCOUNT</text>
</symbol>
<symbol  id="Select50" viewBox="-64 -33.6 128 67.1">
	<path class="st4" d="M30.4,33.6C11.9,33.6-3.1,18.5-3.1,0c0-18.5,15-33.6,33.6-33.6C49-33.6,64-18.5,64,0
		C64,18.5,49,33.6,30.4,33.6 M30.4,23.4c12.9,0,23.3-10.5,23.3-23.3c0-12.9-10.5-23.3-23.3-23.3C17.6-23.3,7.1-12.9,7.1,0
		C7.1,12.9,17.6,23.4,30.4,23.4"/>
	<polygon class="st5" points="30.1,19.4 34.6,6.1 49.1,6.1 37.4,-2.4 41.9,-15.9 30.1,-7.7 18.4,-16 22.9,-2.4 11.2,6.1 25.7,6.1 	
		"/>
	<path class="st4" d="M-25.1,9.6c-2.9,0-5.2-0.5-8.2-1.8V22h22.1v11.5h-33.8V-5.7h8.3c2.5,3.2,5,4.5,8.4,4.5c5.5,0,9.8-4.6,9.8-10.2
		c0-5.7-4.3-10.1-9.7-10.1c-4.5,0-7.3,2.2-9.2,7.2h-7.6v-11c0.6-0.8,1.2-1.5,2-2.3c4-3.9,9.3-6,15.3-6c12.6,0,21.8,9.3,21.8,22.4
		C-5.9,0.7-14.3,9.6-25.1,9.6z"/>
	<g>
		<path class="st4" d="M-54-30.8h0.2c0.9,0,1.6,0.8,1.6,1.9c0,1-0.6,1.8-1.5,1.8c-0.4,0-0.8-0.2-1.1-0.6c-0.2-0.4-0.3-0.6-0.7-1.7
			c-1.1-3-2.2-4.1-4.3-4.1c-2.5,0-4.2,1.8-4.2,4.5c0,2.7,1.6,4.4,4.2,4.6v-2.8c-1.2-0.1-1.7-0.7-1.7-1.8c0-1,0.6-1.7,1.4-1.7
			c0.6,0,1,0.3,1.3,0.8c0.2,0.4,0.3,0.6,0.7,1.6c0.6,1.5,0.9,2.3,1.5,2.9c0.7,0.7,1.6,1.1,2.7,1.1c2.5,0,4.2-1.9,4.2-4.7
			c0-2.9-1.6-4.6-4.3-4.6L-54-30.8L-54-30.8z"/>
		<path class="st4" d="M-58.1-18.5v4.8h2.3v-4.8h3.4v4.8h2.3v-7.6h-13.7v7.6h2.3v-4.8H-58.1z"/>
		<path class="st4" d="M-52.3-2.7h2.3v-7.4h-13.7v2.8h11.4V-2.7z"/>
		<path class="st4" d="M-58.1,2.8v4.8h2.3V2.8h3.4v4.8h2.3V0h-13.7v7.6h2.3V2.8H-58.1z"/>
		<path class="st4" d="M-51.8,22.5c1.5-1.6,2.1-3.1,2.1-5.1c0-2.1-0.8-3.8-2.2-5.1c-1.3-1.1-3.1-1.7-4.9-1.7c-4.2,0-7.2,2.8-7.2,6.8
			c0,2.1,0.6,3.6,2.2,5.2l1.8-1.8c-1-1.1-1.4-2-1.4-3.2c0-2.4,1.8-4.1,4.5-4.1s4.5,1.7,4.5,4.2c0,1.3-0.4,2.2-1.4,3.1L-51.8,22.5z"
			/>
		<path class="st4" d="M-50,30.3v-2.8h-11.4v-3.3h-2.3v9.3h2.3v-3.2C-61.4,30.3-50,30.3-50,30.3z"/>
	</g>
</symbol>
<symbol  id="Select50_Discount_4_" viewBox="-64 -53.2 128 106.5">
	<g>
		<path class="st4" d="M30.4,53.2c-18.5,0-33.6-15-33.6-33.6c0-18.5,15-33.6,33.6-33.6C49-13.9,64,1.1,64,19.7
			C64,38.2,49,53.2,30.4,53.2 M30.4,43c12.9,0,23.3-10.5,23.3-23.3c0-12.9-10.5-23.3-23.3-23.3C17.6-3.7,7.1,6.8,7.1,19.7
			C7.1,32.6,17.6,43,30.4,43"/>
		<polygon class="st5" points="30.1,39.1 34.6,25.8 49.1,25.8 37.4,17.3 41.9,3.8 30.1,12 18.4,3.7 22.9,17.3 11.2,25.8 25.7,25.8 
					"/>
		<path class="st4" d="M-25.1,29.3c-2.9,0-5.2-0.5-8.2-1.8v14.2h22.1v11.5h-33.8V14h8.3c2.5,3.2,5,4.5,8.4,4.5
			c5.5,0,9.8-4.6,9.8-10.2c0-5.7-4.3-10.1-9.7-10.1c-4.5,0-7.3,2.2-9.2,7.2h-7.6v-11c0.6-0.8,1.2-1.5,2-2.3c4-3.9,9.3-6,15.3-6
			C-15-13.9-5.9-4.6-5.9,8.6C-5.9,20.4-14.3,29.3-25.1,29.3z"/>
		<g>
			<path class="st4" d="M-54-11.2h0.2c0.9,0,1.6,0.8,1.6,1.9c0,1-0.6,1.8-1.5,1.8c-0.4,0-0.8-0.2-1.1-0.6c-0.2-0.4-0.3-0.6-0.7-1.7
				c-1.1-3-2.2-4.1-4.3-4.1c-2.5,0-4.2,1.8-4.2,4.5c0,2.7,1.6,4.4,4.2,4.6v-2.8c-1.2-0.1-1.7-0.7-1.7-1.8c0-1,0.6-1.7,1.4-1.7
				c0.6,0,1,0.3,1.3,0.8c0.2,0.4,0.3,0.6,0.7,1.6c0.6,1.5,0.9,2.3,1.5,2.9c0.7,0.7,1.6,1.1,2.7,1.1c2.5,0,4.2-1.9,4.2-4.7
				c0-2.9-1.6-4.6-4.3-4.6L-54-11.2L-54-11.2z"/>
			<path class="st4" d="M-58.1,1.2V6h2.3V1.2h3.4V6h2.3v-7.6h-13.7V6h2.3V1.2H-58.1z"/>
			<path class="st4" d="M-52.3,17h2.3V9.6h-13.7v2.8h11.4V17z"/>
			<path class="st4" d="M-58.1,22.5v4.8h2.3v-4.8h3.4v4.8h2.3v-7.6h-13.7v7.6h2.3v-4.8H-58.1z"/>
			<path class="st4" d="M-51.8,42.2c1.5-1.6,2.1-3.1,2.1-5.1c0-2.1-0.8-3.8-2.2-5.1c-1.3-1.1-3.1-1.7-4.9-1.7
				c-4.2,0-7.2,2.8-7.2,6.8c0,2.1,0.6,3.6,2.2,5.2l1.8-1.8c-1-1.1-1.4-2-1.4-3.2c0-2.4,1.8-4.1,4.5-4.1s4.5,1.7,4.5,4.2
				c0,1.3-0.4,2.2-1.4,3.1L-51.8,42.2z"/>
			<path class="st4" d="M-50,50v-2.8h-11.4v-3.3h-2.3v9.3h2.3V50C-61.4,50-50,50-50,50z"/>
		</g>
	</g>
	<g>
		<g>
			<path class="st0" d="M-48-52.2c-8.3,0-15,6.7-15,15s6.7,15,15,15H48c8.3,0,15-6.7,15-15c0-8.2-6.7-14.9-14.9-15H-48z"/>
			<path class="st1" d="M48-23.3c7.7,0,13.9-6.2,13.9-13.9c0-7.6-6.2-13.9-13.8-13.9h-96c-7.7,0-13.9,6.2-13.9,13.9
				c0,7.7,6.2,13.9,13.9,13.9H48 M48-21.2c-0.8,0-95.1,0-95.9,0c-8.9,0-16-7.2-16-16s7.2-16,16-16c0,0,96,0,96,0
				C56.9-53.2,64-46,64-37.2C64-28.4,56.8-21.2,48-21.2L48-21.2z"/>
		</g>
		<g class="st2">
			<path class="st3" d="M-49.2-31h3.8c2.1,0,3.6-0.4,4.8-1.5c1.4-1.2,2.1-2.9,2.1-5c0-2.1-0.8-4-2.1-5.2c-1.1-1-2.7-1.5-4.6-1.5
				h-3.9V-31z M-46.4-42h0.5c1.5,0,2.3,0.3,3.1,0.9c1,0.8,1.5,2.1,1.5,3.5c0,2.6-1.6,4.4-4.1,4.4h-1V-42z"/>
			<path class="st3" d="M-32.7-44.3h-2.7V-31h2.7V-44.3z"/>
			<path class="st3" d="M-27.1-40.4v-0.2c0-0.9,0.8-1.5,1.8-1.5c1,0,1.7,0.6,1.7,1.4c0,0.4-0.2,0.8-0.5,1.1
				c-0.3,0.3-0.6,0.4-1.6,0.7c-2.9,1-3.9,2.1-3.9,4.2c0,2.4,1.8,4,4.4,4c2.6,0,4.3-1.5,4.5-4.1h-2.7c-0.1,1.1-0.7,1.6-1.7,1.6
				c-1,0-1.6-0.6-1.6-1.4c0-0.5,0.3-1,0.8-1.3c0.4-0.2,0.6-0.3,1.5-0.7c1.5-0.5,2.2-0.9,2.8-1.5c0.7-0.7,1.1-1.5,1.1-2.6
				c0-2.4-1.8-4-4.6-4c-2.8,0-4.5,1.6-4.5,4.1H-27.1z"/>
			<path class="st3" d="M-6.8-42.5c-1.5-1.4-3-2-4.9-2s-3.6,0.7-4.7,2c-1.1,1.3-1.8,3-1.8,4.9c0,4,2.7,6.9,6.6,6.9
				c2,0,3.4-0.6,5-2.1l-1.8-1.8c-1.1,1-2,1.4-3.1,1.4c-2.3,0-4-1.8-4-4.3s1.7-4.4,4.1-4.4c1.2,0,2.1,0.4,3,1.4L-6.8-42.5z"/>
			<path class="st3" d="M7-33c1.1-1.3,1.7-2.8,1.7-4.7c0-3.8-3-6.8-6.8-6.8c-3.9,0-6.9,3-6.9,6.8c0,3.9,3,7,7,7
				C3.9-30.8,5.7-31.6,7-33z M-2.2-37.7c0-2.5,1.8-4.4,4.1-4.4C4.2-42,6-40.1,6-37.7c0,2.6-1.7,4.5-4.1,4.5
				C-0.4-33.3-2.2-35.2-2.2-37.7z"/>
			<path class="st3" d="M14.4-38.8c0-1.2,0.2-1.9,0.6-2.4c0.4-0.5,1.1-0.8,1.8-0.8c0.8,0,1.5,0.4,1.9,0.9c0.4,0.5,0.5,1.1,0.5,2.3
				v7.7H22v-7.7c0-1.9-0.4-3.3-1.3-4.3s-2.3-1.5-3.8-1.5c-1.6,0-3.1,0.6-4,1.6c-0.9,1-1.2,2.1-1.2,4.2v7.7h2.7V-38.8z"/>
			<path class="st3" d="M28.3-44.3h-2.7V-31h2.7l5.5-8.3v8.3h2.7v-13.3h-2.7l-5.6,8.4V-44.3z"/>
			<path class="st3" d="M44.8-44.3h-2.7v11h-3.2v2.2h9v-2.2h-3.1V-44.3z"/>
		</g>
	</g>
</symbol>
<g id="New_Symbol_7">
	<g id="Select50_Discount">
		<g id="New_Symbol">
		</g>
	</g>
	<g id="Select50_Discount_1_">
		<g>
			
				<use xlink:href="#Select50"  width="128" height="67.1" x="-64" y="-33.6" transform="matrix(1 0 0 -1 -40.9998 12.7701)" style="overflow:visible;"/>
			
				<use xlink:href="#Discount"  width="128" height="32.1" x="-64" y="-16" transform="matrix(1 0 0 -1 -41.0004 69.6531)" style="overflow:visible;"/>
		</g>
		
			<use xlink:href="#Select50_Discount_4_"  width="128" height="106.5" id="XMLID_9_" x="-64" y="-53.2" transform="matrix(1 0 0 -1 -41 32.4473)" style="overflow:visible;"/>
	</g>
</g>
<g id="Select50_Discount_2_">
</g>
<g id="Select50_Discount_3_">
</g>
</svg>
