<?xml version="1.0" encoding="iso-8859-1"?>
<!-- Generator: Adobe Illustrator 19.2.1, SVG Export Plug-In . SVG Version: 6.00 Build 0)  -->
<svg version="1.1" xmlns="http://www.w3.org/2000/svg" xmlns:xlink="http://www.w3.org/1999/xlink" x="0px" y="0px"
	 viewBox="0 0 24 24" style="enable-background:new 0 0 24 24;" xml:space="preserve">
<g id="abc-blocks">
	<path d="M8.5,12.5h-6C1.122,12.5,0,13.621,0,15v6c0,1.379,1.122,2.5,2.5,2.5h6c1.378,0,2.5-1.121,2.5-2.5v-6
		C11,13.621,9.878,12.5,8.5,12.5z M10,21c0,0.827-0.673,1.5-1.5,1.5h-6C1.673,22.5,1,21.827,1,21v-6c0-0.827,0.673-1.5,1.5-1.5h6
		c0.827,0,1.5,0.673,1.5,1.5V21z M21.5,12.5h-6c-1.379,0-2.5,1.121-2.5,2.5v6c0,1.379,1.121,2.5,2.5,2.5h6
		c1.379,0,2.5-1.121,2.5-2.5v-6C24,13.621,22.879,12.5,21.5,12.5z M23,21c0,0.827-0.673,1.5-1.5,1.5h-6c-0.827,0-1.5-0.673-1.5-1.5
		v-6c0-0.827,0.673-1.5,1.5-1.5h6c0.827,0,1.5,0.673,1.5,1.5V21z M8.5,11.5h6c1.379,0,2.5-1.122,2.5-2.5V3
		c0-1.378-1.121-2.5-2.5-2.5h-6C7.122,0.5,6,1.622,6,3v6C6,10.378,7.122,11.5,8.5,11.5z M7,3c0-0.827,0.673-1.5,1.5-1.5h6
		C15.327,1.5,16,2.173,16,3v6c0,0.827-0.673,1.5-1.5,1.5h-6C7.673,10.5,7,9.827,7,9V3z M8,16.5c0-1.103-0.897-2-2-2H3.5
		C3.224,14.5,3,14.724,3,15v3v3c0,0.276,0.224,0.5,0.5,0.5H6c1.103,0,2-0.897,2-2c0-0.6-0.271-1.133-0.691-1.5
		C7.729,17.633,8,17.1,8,16.5z M7,19.5c0,0.552-0.449,1-1,1H4v-2h2C6.551,18.5,7,18.948,7,19.5z M4,17.5v-2h2c0.551,0,1,0.448,1,1
		s-0.449,1-1,1H4z M8.802,9.443C9.055,9.552,9.35,9.435,9.459,9.182L10.186,7.5h2.673l0.679,1.672
		C13.615,9.366,13.803,9.484,14,9.484c0.062,0,0.126-0.012,0.188-0.037c0.256-0.104,0.379-0.396,0.274-0.651l-2.421-5.968
		c-0.076-0.187-0.256-0.31-0.458-0.312c-0.001,0-0.003,0-0.005,0c-0.199,0-0.38,0.119-0.459,0.302L8.541,8.786
		C8.432,9.039,8.548,9.333,8.802,9.443z M11.563,4.31l0.889,2.19h-1.835L11.563,4.31z M21.414,19.768
		c0.195,0.195,0.195,0.512,0,0.707c-0.661,0.661-1.54,1.025-2.474,1.025c-1.93,0-3.5-1.57-3.5-3.5s1.57-3.5,3.5-3.5
		c0.888,0,1.733,0.333,2.384,0.938c0.202,0.188,0.213,0.505,0.025,0.707c-0.188,0.202-0.504,0.214-0.707,0.025
		c-0.464-0.432-1.068-0.67-1.702-0.67c-1.379,0-2.5,1.121-2.5,2.5s1.121,2.5,2.5,2.5c0.667,0,1.294-0.26,1.767-0.732
		C20.902,19.572,21.219,19.572,21.414,19.768z"/>
	<rect id="bounding_171_" style="fill:none;" width="24" height="24"/>
</g>
<g id="Layer_1">
</g>
</svg>
