<?xml version="1.0" encoding="iso-8859-1"?>
<!-- Generator: Adobe Illustrator 19.2.1, SVG Export Plug-In . SVG Version: 6.00 Build 0)  -->
<svg version="1.1" xmlns="http://www.w3.org/2000/svg" xmlns:xlink="http://www.w3.org/1999/xlink" x="0px" y="0px"
	 viewBox="0 0 24 24" style="enable-background:new 0 0 24 24;" xml:space="preserve">
<g id="arrows-left-right">
	<rect id="bounding_165_" style="fill:none;" width="24" height="24"/>
	<path style="fill:#262626;" d="M6.646,11.854l-4-4c-0.195-0.195-0.195-0.512,0-0.707l4-4c0.195-0.195,0.512-0.195,0.707,0
		s0.195,0.512,0,0.707L4.207,7H17.5C17.776,7,18,7.224,18,7.5S17.776,8,17.5,8H4.207l3.146,3.146c0.195,0.195,0.195,0.512,0,0.707
		C7.256,11.951,7.128,12,7,12S6.744,11.951,6.646,11.854z M21.354,16.146l-4-4c-0.195-0.195-0.512-0.195-0.707,0
		s-0.195,0.512,0,0.707L19.793,16H6.5C6.224,16,6,16.224,6,16.5S6.224,17,6.5,17h13.293l-3.146,3.146
		c-0.195,0.195-0.195,0.512,0,0.707C16.744,20.951,16.872,21,17,21s0.256-0.049,0.354-0.146l4-4
		C21.549,16.658,21.549,16.342,21.354,16.146z"/>
</g>
<g id="Layer_1">
</g>
</svg>
