<?xml version="1.0" encoding="iso-8859-1"?>
<!-- Generator: Adobe Illustrator 19.2.1, SVG Export Plug-In . SVG Version: 6.00 Build 0)  -->
<svg version="1.1" xmlns="http://www.w3.org/2000/svg" xmlns:xlink="http://www.w3.org/1999/xlink" x="0px" y="0px"
	 viewBox="0 0 24 24" style="enable-background:new 0 0 24 24;" xml:space="preserve">
<g id="back">
	<rect id="bounding_120_" style="fill:none;" width="24" height="24"/>
	<path style="fill:#262626;" d="M12,22.028c-5.514,0-10-4.486-10-10s4.486-10,10-10c5.514,0,10,4.486,10,10S17.514,22.028,12,22.028
		z M12,3.028c-4.962,0-9,4.037-9,9s4.038,9,9,9c4.962,0,9-4.037,9-9S16.962,3.028,12,3.028z M15.5,16.246
		c-0.097,0-0.194-0.028-0.277-0.084l-2.94-1.96v1.544c0,0.193-0.111,0.369-0.286,0.452c-0.174,0.082-0.382,0.058-0.53-0.065
		l-4.543-3.718c-0.116-0.095-0.184-0.236-0.184-0.387s0.067-0.292,0.184-0.387l4.543-3.718c0.148-0.124,0.356-0.148,0.53-0.065
		c0.175,0.083,0.286,0.259,0.286,0.452v1.544l2.94-1.96c0.153-0.101,0.351-0.112,0.513-0.024C15.898,7.957,16,8.126,16,8.31v7.436
		c0,0.185-0.102,0.353-0.264,0.44C15.662,16.227,15.581,16.246,15.5,16.246z"/>
</g>
<g id="Layer_1">
</g>
</svg>
