<?xml version="1.0" encoding="iso-8859-1"?>
<!-- Generator: Adobe Illustrator 19.2.1, SVG Export Plug-In . SVG Version: 6.00 Build 0)  -->
<svg version="1.1" xmlns="http://www.w3.org/2000/svg" xmlns:xlink="http://www.w3.org/1999/xlink" x="0px" y="0px"
	 viewBox="0 0 24 24" style="enable-background:new 0 0 24 24;" xml:space="preserve">
<g id="beach-umbrella">
	<path d="M4.887,12.818c0.049,0.123,0.145,0.222,0.267,0.275c0.063,0.027,0.13,0.041,0.198,0.041c0.062,0,0.125-0.012,0.185-0.035
		l2.324-0.922c0.123-0.049,0.222-0.145,0.274-0.267l0.363-0.839l0.839,0.363c0.122,0.053,0.26,0.054,0.383,0.006l4.183-1.659
		l2.866,7.231c-2.207,0.136-4.216,0.88-5.59,2.098c-0.207,0.183-0.226,0.499-0.042,0.706c0.099,0.111,0.236,0.168,0.374,0.168
		c0.118,0,0.236-0.041,0.332-0.126c1.315-1.165,3.409-1.862,5.61-1.872C17.469,17.987,17.483,18,17.5,18
		c0.029,0,0.058-0.011,0.087-0.017H23.5c0.276,0,0.5-0.224,0.5-0.5s-0.224-0.5-0.5-0.5h-5.667l-3.001-7.571l4.183-1.659
		c0.123-0.049,0.222-0.145,0.274-0.267l0.362-0.838l0.84,0.363c0.123,0.053,0.259,0.054,0.383,0.006l2.323-0.922
		c0.256-0.102,0.382-0.392,0.28-0.648l-0.367-0.931c-0.744-1.879-2.34-3.062-4.612-3.42c-1.901-0.302-4.233,0.02-6.609,0.892
		l-0.19-0.477c-0.103-0.257-0.393-0.38-0.649-0.28c-0.257,0.102-0.382,0.393-0.28,0.649l0.19,0.478
		c-5.247,2.234-7.833,6.019-6.442,9.53L4.887,12.818z M11.789,3.09C11.789,3.089,11.789,3.089,11.789,3.09l0.001-0.001
		c1.833-0.727,3.637-1.105,5.218-1.105c0.466,0,0.913,0.033,1.335,0.1c1.328,0.21,3.072,0.866,3.839,2.801l0.184,0.466l-1.667,0.662
		L19.59,5.533c-0.253-0.109-0.547,0.007-0.657,0.261L18.454,6.9l-8.911,3.534l-1.108-0.48C8.314,9.901,8.176,9.899,8.053,9.948
		s-0.222,0.145-0.275,0.267l-0.479,1.109l-1.666,0.661l-0.184-0.466C4.049,7.987,7.624,4.74,11.789,3.09z M24,23.5
		c0,0.276-0.224,0.5-0.5,0.5c-0.797,0-1.535-0.419-2-1.04c-0.465,0.621-1.203,1.04-2,1.04s-1.535-0.419-2-1.04
		c-0.465,0.621-1.203,1.04-2,1.04s-1.535-0.419-2-1.04c-0.465,0.621-1.203,1.04-2,1.04s-1.536-0.419-2-1.04
		C9.036,23.581,8.297,24,7.5,24s-1.536-0.419-2-1.04C5.036,23.581,4.297,24,3.5,24c-0.81,0-1.559-0.432-2.022-1.07
		c-0.189,0.241-0.425,0.459-0.701,0.644c-0.23,0.152-0.54,0.091-0.693-0.139s-0.091-0.54,0.139-0.693C0.598,22.49,1,22.032,1,21.5
		C1,21.224,1.224,21,1.5,21S2,21.224,2,21.5C2,22.345,2.806,23,3.5,23S5,22.345,5,21.5C5,21.224,5.224,21,5.5,21S6,21.224,6,21.5
		C6,22.345,6.806,23,7.5,23S9,22.345,9,21.5C9,21.224,9.224,21,9.5,21s0.5,0.224,0.5,0.5c0,0.845,0.806,1.5,1.5,1.5
		s1.5-0.655,1.5-1.5c0-0.276,0.224-0.5,0.5-0.5s0.5,0.224,0.5,0.5c0,0.845,0.807,1.5,1.5,1.5s1.5-0.655,1.5-1.5
		c0-0.276,0.224-0.5,0.5-0.5s0.5,0.224,0.5,0.5c0,0.845,0.807,1.5,1.5,1.5s1.5-0.655,1.5-1.5c0-0.276,0.224-0.5,0.5-0.5
		s0.5,0.224,0.5,0.5c0,0.845,0.807,1.5,1.5,1.5C23.777,23,24,23.224,24,23.5z"/>
	<rect id="bounding_101_" x="0" style="fill:none;" width="24" height="24"/>
</g>
<g id="Layer_1">
</g>
</svg>
