<?xml version="1.0" encoding="iso-8859-1"?>
<!-- Generator: Adobe Illustrator 19.2.1, SVG Export Plug-In . SVG Version: 6.00 Build 0)  -->
<svg version="1.1" xmlns="http://www.w3.org/2000/svg" xmlns:xlink="http://www.w3.org/1999/xlink" x="0px" y="0px"
	 viewBox="0 0 24 24" style="enable-background:new 0 0 24 24;" xml:space="preserve">
<g id="bookmark-star">
	<rect id="bounding_21_" style="fill:none;" width="24" height="24"/>
	<path style="fill:#262626;" d="M20.5,22.403c-0.079,0-0.159-0.018-0.231-0.057L12,18.039l-8.269,4.308
		c-0.155,0.081-0.34,0.073-0.49-0.016C3.091,22.24,3,22.078,3,21.903V2.5C3,2.224,3.224,2,3.5,2h17C20.776,2,21,2.224,21,2.5v19.403
		c0,0.175-0.091,0.337-0.241,0.428C20.68,22.379,20.59,22.403,20.5,22.403z M12,16.976c0.079,0,0.159,0.019,0.231,0.057L20,21.079V3
		H4v18.079l7.769-4.047C11.841,16.994,11.921,16.976,12,16.976z M10.643,9.147H7.024l2.714,2.262l-0.905,3.619L12,12.767
		l3.166,2.262l-0.905-3.619l2.714-2.262h-3.619L12,5.528L10.643,9.147z"/>
</g>
<g id="Layer_1">
</g>
</svg>
