<?xml version="1.0" encoding="iso-8859-1"?>
<!-- Generator: Adobe Illustrator 19.2.1, SVG Export Plug-In . SVG Version: 6.00 Build 0)  -->
<svg version="1.1" xmlns="http://www.w3.org/2000/svg" xmlns:xlink="http://www.w3.org/1999/xlink" x="0px" y="0px"
	 viewBox="0 0 24 24" style="enable-background:new 0 0 24 24;" xml:space="preserve">
<g id="browser-plus">
	<rect id="bounding_5_" style="fill:none;" width="24" height="24"/>
	<path style="fill:#262626;" d="M5,4.5c0-0.277,0.225-0.503,0.502-0.503c0.277,0,0.503,0.226,0.503,0.503S5.78,5.002,5.502,5.002
		C5.225,5.002,5,4.777,5,4.5z M7.502,5C7.78,5,8.005,4.775,8.005,4.497c0-0.277-0.225-0.502-0.503-0.502C7.225,3.995,7,4.22,7,4.497
		C7,4.775,7.225,5,7.502,5z M9.5,5c0.277,0,0.502-0.225,0.502-0.503c0-0.277-0.225-0.502-0.502-0.502
		c-0.277,0-0.502,0.225-0.502,0.502C8.998,4.775,9.223,5,9.5,5z M10,16.5c0,0.276-0.224,0.5-0.5,0.5H4.2C2.987,17,2,15.991,2,14.751
		V4.249C2,3.009,2.987,2,4.2,2h13.6C19.013,2,20,3.009,20,4.249v5.246c0,0.276-0.224,0.5-0.5,0.5c-0.276,0-0.5-0.224-0.5-0.5V7H3
		v7.751C3,15.439,3.539,16,4.2,16h5.3C9.776,16,10,16.224,10,16.5z M3,4.249V6h16V4.249C19,3.561,18.461,3,17.8,3H4.2
		C3.539,3,3,3.561,3,4.249z M22,16.5c0,3.032-2.467,5.5-5.5,5.5c-3.033,0-5.5-2.468-5.5-5.5s2.467-5.5,5.5-5.5
		C19.533,11,22,13.468,22,16.5z M21,16.5c0-2.481-2.019-4.5-4.5-4.5c-2.481,0-4.5,2.019-4.5,4.5s2.019,4.5,4.5,4.5
		C18.981,21,21,18.981,21,16.5z M18.557,16.026H17v-1.558c0-0.276-0.224-0.5-0.5-0.5c-0.276,0-0.5,0.224-0.5,0.5v1.558h-1.557
		c-0.276,0-0.5,0.224-0.5,0.5c0,0.276,0.224,0.5,0.5,0.5H16v1.557c0,0.276,0.224,0.5,0.5,0.5c0.276,0,0.5-0.224,0.5-0.5v-1.557
		h1.557c0.276,0,0.5-0.224,0.5-0.5C19.057,16.25,18.833,16.026,18.557,16.026z"/>
</g>
<g id="Layer_1">
</g>
</svg>
