<?xml version="1.0" encoding="iso-8859-1"?>
<!-- Generator: Adobe Illustrator 19.2.1, SVG Export Plug-In . SVG Version: 6.00 Build 0)  -->
<svg version="1.1" xmlns="http://www.w3.org/2000/svg" xmlns:xlink="http://www.w3.org/1999/xlink" x="0px" y="0px"
	 viewBox="0 0 19 14" style="enable-background:new 0 0 19 14;" xml:space="preserve">
<g id="calendar-plus-14">
	<rect id="bounding_147_" style="fill:none;" width="19" height="14"/>
	<path style="fill:#262626;" d="M5,7.5C5,7.776,4.776,8,4.5,8h-1C3.224,8,3,7.776,3,7.5v-1C3,6.224,3.224,6,3.5,6h1
		C4.776,6,5,6.224,5,6.5V7.5z M7.5,9h-1C6.224,9,6,9.224,6,9.5v1C6,10.776,6.224,11,6.5,11h1C7.776,11,8,10.776,8,10.5v-1
		C8,9.224,7.776,9,7.5,9z M8,6.5C8,6.224,7.776,6,7.5,6h-1C6.224,6,6,6.224,6,6.5v1C6,7.776,6.224,8,6.5,8h1C7.776,8,8,7.776,8,7.5
		V6.5z M10,13H1V4h12.5C13.776,4,14,3.776,14,3.5v-2C14,1.224,13.776,1,13.5,1H12V0.5C12,0.224,11.776,0,11.5,0h-1
		C10.224,0,10,0.224,10,0.5V1H4V0.5C4,0.224,3.776,0,3.5,0h-1C2.224,0,2,0.224,2,0.5V1H0.5C0.224,1,0,1.224,0,1.5v12
		C0,13.776,0.224,14,0.5,14H10c0.276,0,0.5-0.224,0.5-0.5S10.276,13,10,13z M4.5,9h-1C3.224,9,3,9.224,3,9.5v1
		C3,10.776,3.224,11,3.5,11h1C4.776,11,5,10.776,5,10.5v-1C5,9.224,4.776,9,4.5,9z M18.5,9H16V6.5C16,6.224,15.776,6,15.5,6h-1
		C14.224,6,14,6.224,14,6.5V9h-2.5C11.224,9,11,9.224,11,9.5v1c0,0.276,0.224,0.5,0.5,0.5H14v2.5c0,0.276,0.224,0.5,0.5,0.5h1
		c0.276,0,0.5-0.224,0.5-0.5V11h2.5c0.276,0,0.5-0.224,0.5-0.5v-1C19,9.224,18.776,9,18.5,9z M11,6.5C11,6.224,10.776,6,10.5,6h-1
		C9.224,6,9,6.224,9,6.5v1C9,7.776,9.224,8,9.5,8h1C10.776,8,11,7.776,11,7.5V6.5z"/>
</g>
<g id="Layer_1">
</g>
</svg>
