<?xml version="1.0" encoding="iso-8859-1"?>
<!-- Generator: Adobe Illustrator 19.2.1, SVG Export Plug-In . SVG Version: 6.00 Build 0)  -->
<svg version="1.1" xmlns="http://www.w3.org/2000/svg" xmlns:xlink="http://www.w3.org/1999/xlink" x="0px" y="0px"
	 viewBox="0 0 24 24" style="enable-background:new 0 0 24 24;" xml:space="preserve">
<g id="calendar-circle-plus">
	<rect id="bounding_122_" y="0" style="fill:none;" width="24" height="24"/>
	<path style="fill:#262626;" d="M13,13h-1v1c0,0.276-0.224,0.5-0.5,0.5S11,14.276,11,14v-1H8v3h2.5c0.276,0,0.5,0.224,0.5,0.5
		S10.776,17,10.5,17H8v2c0,0.276-0.224,0.5-0.5,0.5S7,19.276,7,19v-2H5c-0.276,0-0.5-0.224-0.5-0.5S4.724,16,5,16h2v-3H5
		c-0.276,0-0.5-0.224-0.5-0.5S4.724,12,5,12h2v-2c0-0.276,0.224-0.5,0.5-0.5S8,9.724,8,10v2h3v-2c0-0.276,0.224-0.5,0.5-0.5
		S12,9.724,12,10v2h1c0.276,0,0.5,0.224,0.5,0.5S13.276,13,13,13z M11.5,21.5c0,0.276-0.224,0.5-0.5,0.5H2.5
		C2.224,22,2,21.776,2,21.5v-18C2,3.224,2.224,3,2.5,3H5V1.5C5,1.224,5.224,1,5.5,1h3C8.776,1,9,1.224,9,1.5V3h6V1.5
		C15,1.224,15.224,1,15.5,1h3C18.776,1,19,1.224,19,1.5V3h2.5C21.776,3,22,3.224,22,3.5V11c0,0.276-0.224,0.5-0.5,0.5
		S21,11.276,21,11V8H3v13h8C11.276,21,11.5,21.224,11.5,21.5z M16,5h2V2h-2V5z M6,5h2V2H6V5z M3,7h18V4h-2v1.5
		C19,5.776,18.776,6,18.5,6h-3C15.224,6,15,5.776,15,5.5V4H9v1.5C9,5.776,8.776,6,8.5,6h-3C5.224,6,5,5.776,5,5.5V4H3V7z M15,10v1
		c0,0.276,0.224,0.5,0.5,0.5S16,11.276,16,11v-1c0-0.276-0.224-0.5-0.5-0.5S15,9.724,15,10z M24,18.5c0,3.032-2.467,5.5-5.5,5.5
		S13,21.532,13,18.5c0-3.032,2.467-5.5,5.5-5.5S24,15.468,24,18.5z M23,18.5c0-2.481-2.019-4.5-4.5-4.5S14,16.019,14,18.5
		c0,2.481,2.019,4.5,4.5,4.5S23,20.981,23,18.5z M20.557,18.026H19v-1.558c0-0.276-0.224-0.5-0.5-0.5c-0.276,0-0.5,0.224-0.5,0.5
		v1.558h-1.557c-0.276,0-0.5,0.224-0.5,0.5c0,0.276,0.224,0.5,0.5,0.5H18v1.557c0,0.276,0.224,0.5,0.5,0.5
		c0.276,0,0.5-0.224,0.5-0.5v-1.557h1.557c0.276,0,0.5-0.224,0.5-0.5C21.057,18.25,20.833,18.026,20.557,18.026z"/>
</g>
<g id="Layer_1">
</g>
</svg>
