<?xml version="1.0" encoding="iso-8859-1"?>
<!-- Generator: Adobe Illustrator 19.2.1, SVG Export Plug-In . SVG Version: 6.00 Build 0)  -->
<svg version="1.1" xmlns="http://www.w3.org/2000/svg" xmlns:xlink="http://www.w3.org/1999/xlink" x="0px" y="0px"
	 viewBox="0 0 14 14" style="enable-background:new 0 0 14 14;" xml:space="preserve">
<g id="calendar-14">
	<rect id="bounding_150_" style="fill:none;" width="14" height="14"/>
	<path style="fill:#262626;" d="M13.5,1H12V0.5C12,0.224,11.776,0,11.5,0h-1C10.224,0,10,0.224,10,0.5V1H4V0.5
		C4,0.224,3.776,0,3.5,0h-1C2.224,0,2,0.224,2,0.5V1H0.5C0.224,1,0,1.224,0,1.5v1v1v10C0,13.776,0.224,14,0.5,14h13
		c0.276,0,0.5-0.224,0.5-0.5v-10v-1v-1C14,1.224,13.776,1,13.5,1z M1,13V4h12v9H1z M5,6.5v1C5,7.776,4.776,8,4.5,8h-1
		C3.224,8,3,7.776,3,7.5v-1C3,6.224,3.224,6,3.5,6h1C4.776,6,5,6.224,5,6.5z M8,6.5v1C8,7.776,7.776,8,7.5,8h-1
		C6.224,8,6,7.776,6,7.5v-1C6,6.224,6.224,6,6.5,6h1C7.776,6,8,6.224,8,6.5z M11,6.5v1C11,7.776,10.776,8,10.5,8h-1
		C9.224,8,9,7.776,9,7.5v-1C9,6.224,9.224,6,9.5,6h1C10.776,6,11,6.224,11,6.5z M5,9.5v1C5,10.776,4.776,11,4.5,11h-1
		C3.224,11,3,10.776,3,10.5v-1C3,9.224,3.224,9,3.5,9h1C4.776,9,5,9.224,5,9.5z M8,9.5v1C8,10.776,7.776,11,7.5,11h-1
		C6.224,11,6,10.776,6,10.5v-1C6,9.224,6.224,9,6.5,9h1C7.776,9,8,9.224,8,9.5z M11,9.5v1c0,0.276-0.224,0.5-0.5,0.5h-1
		C9.224,11,9,10.776,9,10.5v-1C9,9.224,9.224,9,9.5,9h1C10.776,9,11,9.224,11,9.5z"/>
</g>
<g id="Layer_1">
</g>
</svg>
