<?xml version="1.0" encoding="iso-8859-1"?>
<!-- Generator: Adobe Illustrator 19.2.1, SVG Export Plug-In . SVG Version: 6.00 Build 0)  -->
<svg version="1.1" xmlns="http://www.w3.org/2000/svg" xmlns:xlink="http://www.w3.org/1999/xlink" x="0px" y="0px"
	 viewBox="0 0 24 24" style="enable-background:new 0 0 24 24;" xml:space="preserve">
<g id="calendar">
	<rect id="bounding_34_" y="0" style="fill:none;" width="24" height="24"/>
	<path style="fill:#262626;" d="M5,16c-0.276,0-0.5,0.224-0.5,0.5S4.724,17,5,17h2v2c0,0.276,0.224,0.5,0.5,0.5S8,19.276,8,19v-2h3
		v2c0,0.276,0.224,0.5,0.5,0.5S12,19.276,12,19v-2h3v2c0,0.276,0.224,0.5,0.5,0.5S16,19.276,16,19v-2h2c0.276,0,0.5-0.224,0.5-0.5
		S18.276,16,18,16h-2v-3h2c0.276,0,0.5-0.224,0.5-0.5S18.276,12,18,12h-2v-2c0-0.276-0.224-0.5-0.5-0.5S15,9.724,15,10v2h-3v-2
		c0-0.276-0.224-0.5-0.5-0.5S11,9.724,11,10v2H8v-2c0-0.276-0.224-0.5-0.5-0.5S7,9.724,7,10v2H5c-0.276,0-0.5,0.224-0.5,0.5
		S4.724,13,5,13h2v3H5z M15,13v3h-3v-3H15z M8,13h3v3H8V13z M21.5,3H19V1.5C19,1.224,18.776,1,18.5,1h-3C15.224,1,15,1.224,15,1.5V3
		H9V1.5C9,1.224,8.776,1,8.5,1h-3C5.224,1,5,1.224,5,1.5V3H2.5C2.224,3,2,3.224,2,3.5v18C2,21.776,2.224,22,2.5,22h19
		c0.276,0,0.5-0.224,0.5-0.5v-18C22,3.224,21.776,3,21.5,3z M16,2h2v3h-2V2z M6,2h2v3H6V2z M3,4h2v1.5C5,5.776,5.224,6,5.5,6h3
		C8.776,6,9,5.776,9,5.5V4h6v1.5C15,5.776,15.224,6,15.5,6h3C18.776,6,19,5.776,19,5.5V4h2v3H3V4z M21,21H3V8h18V21z"/>
</g>
<g id="Layer_1">
</g>
</svg>
