<?xml version="1.0" encoding="iso-8859-1"?>
<!-- Generator: Adobe Illustrator 19.2.1, SVG Export Plug-In . SVG Version: 6.00 Build 0)  -->
<svg version="1.1" xmlns="http://www.w3.org/2000/svg" xmlns:xlink="http://www.w3.org/1999/xlink" x="0px" y="0px"
	 viewBox="0 0 24 24" style="enable-background:new 0 0 24 24;" xml:space="preserve">
<g id="chart-plus">
	<rect id="bounding_52_" style="fill:none;" width="24" height="24"/>
	<path style="fill:#262626;" d="M4.96,6.33L2.098,2.801C1.924,2.586,1.957,2.272,2.171,2.098c0.216-0.174,0.53-0.142,0.703,0.073
		l2.643,3.258l5.425-1.855c0.009-0.003,0.018-0.001,0.027-0.003c0.032-0.009,0.065-0.011,0.1-0.013
		c0.031-0.002,0.061-0.006,0.092-0.003c0.031,0.003,0.061,0.015,0.09,0.024c0.032,0.01,0.063,0.019,0.093,0.035
		c0.009,0.005,0.019,0.005,0.026,0.01l9.58,6.029c0.234,0.148,0.305,0.456,0.157,0.689c-0.095,0.151-0.258,0.234-0.424,0.234
		c-0.091,0-0.183-0.025-0.266-0.077l-9.378-5.902l-5.526,1.89H5.512L5.51,6.488C5.466,6.503,5.42,6.508,5.376,6.51
		c-0.009,0-0.019,0.004-0.027,0.004l0,0c-0.001,0-0.001,0-0.001,0v0c-0.091,0-0.176-0.033-0.254-0.08
		C5.07,6.42,5.053,6.404,5.032,6.386C5.009,6.366,4.98,6.354,4.96,6.33z M16.381,5.775c-0.217-0.171-0.254-0.485-0.082-0.702
		l1.449-1.848c0.172-0.216,0.484-0.256,0.703-0.085c0.217,0.171,0.255,0.485,0.084,0.702l-1.451,1.85
		c-0.1,0.125-0.246,0.19-0.394,0.19C16.582,5.882,16.473,5.847,16.381,5.775z M12.167,11.727c-0.067,0.032-0.142,0.049-0.216,0.049
		c-0.107,0-0.216-0.034-0.307-0.106l-3.41-2.654L4.35,14.379c-0.098,0.135-0.25,0.207-0.404,0.207c-0.102,0-0.205-0.031-0.293-0.095
		c-0.225-0.162-0.273-0.475-0.111-0.698L7.728,8.01C7.73,8.008,7.732,8.007,7.734,8.004c0.002-0.002,0.002-0.005,0.004-0.008
		c0.019-0.025,0.047-0.039,0.068-0.059c0.025-0.023,0.048-0.049,0.076-0.065c0.028-0.016,0.06-0.023,0.09-0.033
		c0.03-0.011,0.059-0.025,0.09-0.03c0.032-0.004,0.065,0.001,0.096,0.003C8.19,7.815,8.223,7.812,8.254,7.82
		c0.032,0.008,0.061,0.027,0.092,0.042c0.027,0.013,0.056,0.019,0.081,0.037C8.43,7.901,8.43,7.903,8.433,7.905
		C8.435,7.907,8.437,7.907,8.44,7.909l3.425,2.666l2.117-2.697c0.171-0.217,0.485-0.256,0.702-0.084
		c0.218,0.17,0.255,0.484,0.085,0.702l-2.424,3.086v0.001c0,0-0.001,0-0.001,0l-0.001,0.001c-0.029,0.038-0.07,0.059-0.108,0.086
		C12.213,11.688,12.193,11.714,12.167,11.727z M17.5,11c-3.033,0-5.5,2.468-5.5,5.5c0,3.032,2.467,5.5,5.5,5.5s5.5-2.468,5.5-5.5
		C23,13.468,20.533,11,17.5,11z M17.5,21c-2.481,0-4.5-2.019-4.5-4.5c0-2.481,2.019-4.5,4.5-4.5s4.5,2.019,4.5,4.5
		C22,18.981,19.981,21,17.5,21z M20.057,16.526c0,0.276-0.224,0.5-0.5,0.5H18v1.557c0,0.276-0.224,0.5-0.5,0.5
		c-0.276,0-0.5-0.224-0.5-0.5v-1.557h-1.557c-0.276,0-0.5-0.224-0.5-0.5c0-0.276,0.224-0.5,0.5-0.5H17v-1.558
		c0-0.276,0.224-0.5,0.5-0.5c0.276,0,0.5,0.224,0.5,0.5v1.558h1.557C19.833,16.026,20.057,16.25,20.057,16.526z"/>
</g>
<g id="Layer_1">
</g>
</svg>
