<?xml version="1.0" encoding="iso-8859-1"?>
<!-- Generator: Adobe Illustrator 19.2.1, SVG Export Plug-In . SVG Version: 6.00 Build 0)  -->
<svg version="1.1" xmlns="http://www.w3.org/2000/svg" xmlns:xlink="http://www.w3.org/1999/xlink" x="0px" y="0px"
	 viewBox="0 0 24 24" style="enable-background:new 0 0 24 24;" xml:space="preserve">
<g id="chatbubble">
	<rect id="bounding_114_" style="fill:none;" width="24" height="24"/>
	<path style="fill:#262626;" d="M20.005,4H3.995C2.895,4,2,4.895,2,5.995v9.992C2,17.088,2.895,18,3.995,18H7v3.482
		c0,0.202,0.122,0.385,0.309,0.462c0.062,0.025,0.127,0.038,0.191,0.038c0.13,0,0.258-0.042,0.354-0.138L11.707,18h8.298
		c1.1,0,1.995-0.912,1.995-2.013V5.995C22,4.895,21.105,4,20.005,4z M21,15.987C21,16.536,20.554,17,20.005,17H11.5
		c-0.133,0-0.26,0.044-0.354,0.138L8,20.275v-2.793C8,17.206,7.776,17,7.5,17H3.995C3.446,17,3,16.536,3,15.987V5.995
		C3,5.446,3.446,5,3.995,5h16.01C20.554,5,21,5.446,21,5.995V15.987z"/>
</g>
<g id="Layer_1">
</g>
</svg>
