<?xml version="1.0" encoding="iso-8859-1"?>
<!-- Generator: Adobe Illustrator 19.2.1, SVG Export Plug-In . SVG Version: 6.00 Build 0)  -->
<svg version="1.1" xmlns="http://www.w3.org/2000/svg" xmlns:xlink="http://www.w3.org/1999/xlink" x="0px" y="0px"
	 viewBox="0 0 24 24" style="enable-background:new 0 0 24 24;" xml:space="preserve">
<g id="chatbubble-letter-filled">
	<rect id="bounding_19_" style="fill:none;" width="24" height="24"/>
	<path style="fill:#262626;" d="M21.863,5.284C21.948,5.505,22,5.744,22,5.995v9.992C22,17.088,21.105,18,20.005,18h-8.298
		l-3.854,3.845C7.758,21.94,7.63,21.982,7.5,21.982c-0.064,0-0.13-0.013-0.191-0.038C7.122,21.867,7,21.685,7,21.482V18H3.995
		C2.895,18,2,17.088,2,15.987V5.995c0-0.251,0.052-0.49,0.137-0.712l8.615,7.074c0.361,0.297,0.805,0.444,1.248,0.444
		s0.887-0.147,1.248-0.444L21.863,5.284z M11.646,11.268c0.205,0.168,0.502,0.168,0.707,0l8.567-7.035
		C20.645,4.089,20.337,4,20.005,4H3.995c-0.332,0-0.64,0.089-0.916,0.233L11.646,11.268z"/>
</g>
<g id="Layer_1">
</g>
</svg>
