<?xml version="1.0" encoding="iso-8859-1"?>
<!-- Generator: Adobe Illustrator 19.2.1, SVG Export Plug-In . SVG Version: 6.00 Build 0)  -->
<svg version="1.1" xmlns="http://www.w3.org/2000/svg" xmlns:xlink="http://www.w3.org/1999/xlink" x="0px" y="0px"
	 viewBox="0 0 24 24" style="enable-background:new 0 0 24 24;" xml:space="preserve">
<g id="chatbubble-letter">
	<rect id="bounding_125_" style="fill:none;" width="24" height="24"/>
	<path style="fill:#262626;" d="M20.005,4H3.995C2.895,4,2,4.895,2,5.995v9.992C2,17.088,2.895,18,3.995,18H7v3.482
		c0,0.202,0.122,0.385,0.309,0.462c0.062,0.025,0.127,0.038,0.191,0.038c0.13,0,0.258-0.042,0.354-0.138L11.707,18h8.298
		C21.105,18,22,17.088,22,15.987V5.995C22,4.895,21.105,4,20.005,4z M20.005,5c0.06,0,0.112,0.024,0.169,0.034l-7.856,6.451
		c-0.185,0.15-0.452,0.15-0.635,0L3.826,5.034C3.883,5.024,3.935,5,3.995,5H20.005z M21,15.987C21,16.536,20.554,17,20.005,17H11.5
		c-0.133,0-0.26,0.044-0.354,0.138L8,20.275v-2.793C8,17.206,7.776,17,7.5,17H3.995C3.446,17,3,16.536,3,15.987V5.995
		C3,5.89,3.03,5.794,3.06,5.7l7.989,6.559c0.275,0.226,0.613,0.339,0.952,0.339c0.338,0,0.676-0.113,0.952-0.339L20.94,5.7
		C20.97,5.794,21,5.89,21,5.995V15.987z"/>
</g>
<g id="Layer_1">
</g>
</svg>
