<?xml version="1.0" encoding="iso-8859-1"?>
<!-- Generator: Adobe Illustrator 19.2.1, SVG Export Plug-In . SVG Version: 6.00 Build 0)  -->
<svg version="1.1" xmlns="http://www.w3.org/2000/svg" xmlns:xlink="http://www.w3.org/1999/xlink" x="0px" y="0px"
	 viewBox="0 0 12 12" style="enable-background:new 0 0 12 12;" xml:space="preserve">
<g id="chevron-d-regular">
	
		<rect id="bounding_140_" x="0" y="0" transform="matrix(-1.791706e-10 1 -1 -1.791706e-10 12 -1.079569e-09)" style="fill:none;" width="12" height="12"/>
	<path style="fill:#262626;" d="M6,9.705c-0.181,0-0.361-0.069-0.498-0.207l-5-5c-0.275-0.274-0.275-0.722,0-0.996
		c0.273-0.275,0.723-0.275,0.996,0L6,8.003l4.502-4.501c0.273-0.275,0.723-0.275,0.996,0c0.275,0.274,0.275,0.722,0,0.996l-5,5
		C6.361,9.636,6.181,9.705,6,9.705z"/>
</g>
<g id="Layer_1">
</g>
</svg>
