<?xml version="1.0" encoding="iso-8859-1"?>
<!-- Generator: Adobe Illustrator 19.2.1, SVG Export Plug-In . SVG Version: 6.00 Build 0)  -->
<svg version="1.1" xmlns="http://www.w3.org/2000/svg" xmlns:xlink="http://www.w3.org/1999/xlink" x="0px" y="0px"
	 viewBox="0 0 12 12" style="enable-background:new 0 0 12 12;" xml:space="preserve">
<g id="chevron-u-regular">
	
		<rect id="bounding_119_" x="0" y="0" transform="matrix(8.913054e-11 -1 1 8.913054e-11 5.393304e-10 12)" style="fill:none;" width="12" height="12"/>
	<path style="fill:#262626;" d="M11,8.705c-0.181,0-0.361-0.069-0.498-0.207L6,3.997L1.498,8.498c-0.273,0.275-0.723,0.275-0.996,0
		c-0.275-0.274-0.275-0.722,0-0.996l5-5c0.273-0.275,0.723-0.275,0.996,0l5,5c0.275,0.274,0.275,0.722,0,0.996
		C11.361,8.636,11.181,8.705,11,8.705z"/>
</g>
<g id="Layer_1">
</g>
</svg>
