<?xml version="1.0" encoding="iso-8859-1"?>
<!-- Generator: Adobe Illustrator 19.2.1, SVG Export Plug-In . SVG Version: 6.00 Build 0)  -->
<svg version="1.1" xmlns="http://www.w3.org/2000/svg" xmlns:xlink="http://www.w3.org/1999/xlink" x="0px" y="0px"
	 viewBox="0 0 24 24" style="enable-background:new 0 0 24 24;" xml:space="preserve">
<g id="circle-tick">
	<rect id="bounding_82_" style="fill:none;" width="24" height="24"/>
	<path style="fill:#262626;" d="M18,8c0.276,0.276,0.276,0.724,0,1l-8,8c-0.138,0.138-0.319,0.207-0.5,0.207S9.138,17.138,9,17l-3-3
		c-0.276-0.276-0.276-0.724,0-1c0.276-0.275,0.724-0.275,1,0l2.5,2.5L17,8C17.276,7.725,17.724,7.725,18,8z M21.979,11.996
		C21.979,17.512,17.491,22,11.976,22c-5.513,0-9.998-4.488-9.998-10.004C1.977,6.484,6.463,2,11.976,2
		C17.491,2,21.979,6.484,21.979,11.996z M20.979,11.996C20.979,7.036,16.94,3,11.976,3c-4.962,0-8.998,4.036-8.998,8.996
		c0,4.965,4.036,9.004,8.998,9.004C16.94,21,20.979,16.961,20.979,11.996z"/>
</g>
<g id="Layer_1">
</g>
</svg>
