<?xml version="1.0" encoding="iso-8859-1"?>
<!-- Generator: Adobe Illustrator 19.2.1, SVG Export Plug-In . SVG Version: 6.00 Build 0)  -->
<svg version="1.1" xmlns="http://www.w3.org/2000/svg" xmlns:xlink="http://www.w3.org/1999/xlink" x="0px" y="0px"
	 viewBox="0 0 24 24" style="enable-background:new 0 0 24 24;" xml:space="preserve">
<g id="circle-arrow-back">
	<rect id="bounding_172_" style="fill:none;" width="24" height="24"/>
	<path d="M21,12c0,4.963-4.037,9-9,9c-0.276,0-0.5-0.224-0.5-0.5S11.724,20,12,20c4.411,0,8-3.589,8-8s-3.589-8-8-8s-8,3.589-8,8
		v0.006l2.255-2.577C6.438,9.22,6.753,9.199,6.96,9.381c0.208,0.182,0.229,0.498,0.047,0.706l-3.131,3.579
		c-0.004,0.004-0.009,0.005-0.013,0.009c-0.034,0.037-0.076,0.063-0.119,0.089c-0.016,0.009-0.028,0.023-0.044,0.03
		c-0.062,0.027-0.129,0.043-0.201,0.043c-0.011,0-0.022,0-0.033-0.001c-0.02-0.001-0.036-0.013-0.055-0.017
		c-0.048-0.009-0.095-0.02-0.137-0.042c-0.023-0.011-0.041-0.027-0.062-0.042c-0.038-0.027-0.071-0.057-0.1-0.094
		c-0.009-0.011-0.022-0.016-0.03-0.028L0.4,9.588c-0.153-0.23-0.091-0.54,0.139-0.693s0.54-0.092,0.693,0.139l1.783,2.674
		C3.171,6.881,7.136,3,12,3C16.963,3,21,7.038,21,12z"/>
</g>
<g id="Layer_1">
</g>
</svg>
