<?xml version="1.0" encoding="iso-8859-1"?>
<!-- Generator: Adobe Illustrator 19.2.1, SVG Export Plug-In . SVG Version: 6.00 Build 0)  -->
<svg version="1.1" xmlns="http://www.w3.org/2000/svg" xmlns:xlink="http://www.w3.org/1999/xlink" x="0px" y="0px"
	 viewBox="0 0 24 24" style="enable-background:new 0 0 24 24;" xml:space="preserve">
<g id="circle-dashed">
	<rect id="bounding_1_" style="fill:none;" width="24" height="24"/>
	<path style="fill:#262626;" d="M21.201,16.419c-0.065,0-0.132-0.013-0.196-0.04c-0.254-0.108-0.372-0.402-0.264-0.656
		C21.245,14.544,21.5,13.291,21.5,12c0-0.276,0.224-0.5,0.5-0.5s0.5,0.224,0.5,0.5c0,1.427-0.282,2.812-0.839,4.115
		C21.58,16.306,21.396,16.419,21.201,16.419z M21.459,8.731c0.256-0.103,0.381-0.395,0.277-0.65
		c-0.534-1.327-1.312-2.506-2.312-3.506c-0.195-0.195-0.512-0.195-0.707,0s-0.195,0.512,0,0.707
		c0.904,0.904,1.607,1.972,2.091,3.172c0.078,0.195,0.266,0.313,0.464,0.313C21.335,8.767,21.398,8.755,21.459,8.731z M12.5,22
		c0-0.276-0.224-0.5-0.5-0.5c-1.29,0-2.542-0.256-3.723-0.76c-0.251-0.107-0.547,0.01-0.656,0.264
		c-0.108,0.254,0.01,0.548,0.264,0.656C9.19,22.218,10.575,22.5,12,22.5C12.276,22.5,12.5,22.277,12.5,22z M5.282,19.424
		c0.195-0.195,0.195-0.512,0-0.707c-0.904-0.904-1.607-1.972-2.091-3.171c-0.104-0.257-0.394-0.38-0.651-0.277
		c-0.256,0.104-0.38,0.395-0.277,0.65c0.534,1.326,1.312,2.505,2.312,3.505c0.098,0.098,0.226,0.146,0.354,0.146
		S5.185,19.522,5.282,19.424z M15.919,21.737c1.326-0.534,2.506-1.312,3.506-2.312c0.195-0.195,0.195-0.512,0-0.707
		s-0.512-0.195-0.707,0c-0.904,0.903-1.972,1.607-3.172,2.091c-0.257,0.104-0.381,0.395-0.277,0.65
		c0.079,0.195,0.266,0.313,0.464,0.313C15.795,21.773,15.858,21.761,15.919,21.737z M5.282,5.282
		c0.905-0.904,1.972-1.608,3.172-2.091C8.71,3.087,8.834,2.796,8.731,2.54C8.628,2.283,8.336,2.162,8.081,2.263
		C6.755,2.797,5.576,3.575,4.575,4.575c-0.195,0.195-0.195,0.512,0,0.707C4.673,5.38,4.801,5.428,4.929,5.428
		S5.185,5.38,5.282,5.282z M16.38,2.994c0.108-0.254-0.01-0.547-0.264-0.656C14.811,1.782,13.426,1.5,12,1.5
		c-0.276,0-0.5,0.224-0.5,0.5s0.224,0.5,0.5,0.5c1.291,0,2.543,0.255,3.724,0.758c0.064,0.027,0.131,0.04,0.196,0.04
		C16.114,3.298,16.299,3.184,16.38,2.994z M2.5,12c0-1.291,0.255-2.544,0.759-3.724c0.108-0.254-0.01-0.548-0.264-0.656
		C2.743,7.513,2.447,7.629,2.339,7.884C1.782,9.188,1.5,10.573,1.5,12c0,0.276,0.224,0.5,0.5,0.5S2.5,12.277,2.5,12z"/>
</g>
<g id="Layer_1">
</g>
</svg>
