<?xml version="1.0" encoding="iso-8859-1"?>
<!-- Generator: Adobe Illustrator 19.2.1, SVG Export Plug-In . SVG Version: 6.00 Build 0)  -->
<svg version="1.1" xmlns="http://www.w3.org/2000/svg" xmlns:xlink="http://www.w3.org/1999/xlink" x="0px" y="0px"
	 viewBox="0 0 24 24" style="enable-background:new 0 0 24 24;" xml:space="preserve">
<g id="circle-plus-filled">
	<rect id="bounding_175_" style="fill:none;" width="24" height="24"/>
	<path style="fill:#262626;" d="M12,2.003c-5.512,0-9.997,4.485-9.997,9.997S6.488,21.997,12,21.997
		c5.512,0,9.997-4.485,9.997-9.997S17.512,2.003,12,2.003z M17.655,12.5c0,0.276-0.224,0.5-0.5,0.5h-4.681v4.68
		c0,0.276-0.223,0.5-0.5,0.5c-0.275,0-0.5-0.224-0.5-0.5V13h-4.68c-0.276,0-0.5-0.224-0.5-0.5s0.224-0.5,0.5-0.5h4.68V7.32
		c0-0.276,0.225-0.5,0.5-0.5c0.277,0,0.5,0.224,0.5,0.5V12h4.681C17.432,12,17.655,12.224,17.655,12.5z"/>
</g>
<g id="Layer_1">
</g>
</svg>
