<?xml version="1.0" encoding="iso-8859-1"?>
<!-- Generator: Adobe Illustrator 19.2.1, SVG Export Plug-In . SVG Version: 6.00 Build 0)  -->
<svg version="1.1" xmlns="http://www.w3.org/2000/svg" xmlns:xlink="http://www.w3.org/1999/xlink" x="0px" y="0px"
	 viewBox="0 0 14 14" style="enable-background:new 0 0 14 14;" xml:space="preserve">
<g id="clock-14">
	<rect id="bounding_155_" style="fill:none;" width="14" height="14"/>
	<path style="fill:#262626;" d="M7,0C3.141,0,0,3.14,0,7s3.141,7,7,7s7-3.14,7-7S10.859,0,7,0z M7,13c-3.309,0-6-2.691-6-6
		s2.691-6,6-6s6,2.691,6,6S10.309,13,7,13z M10.325,9.621c0.21,0.18,0.234,0.495,0.055,0.705C10.28,10.441,10.141,10.5,10,10.5
		c-0.115,0-0.231-0.04-0.325-0.121l-3.5-3C6.063,7.285,6,7.146,6,7V3.891c0-0.276,0.224-0.5,0.5-0.5S7,3.615,7,3.891V6.77
		L10.325,9.621z"/>
</g>
<g id="Layer_1">
</g>
</svg>
