<?xml version="1.0" encoding="iso-8859-1"?>
<!-- Generator: Adobe Illustrator 19.2.1, SVG Export Plug-In . SVG Version: 6.00 Build 0)  -->
<svg version="1.1" xmlns="http://www.w3.org/2000/svg" xmlns:xlink="http://www.w3.org/1999/xlink" x="0px" y="0px"
	 viewBox="0 0 24 24" style="enable-background:new 0 0 24 24;" xml:space="preserve">
<g id="clock">
	<rect y="0" style="fill:none;" width="24" height="24"/>
	<path style="fill:#262626;" d="M22.041,12c0,5.546-4.495,10.041-10.041,10.041C6.454,22.041,1.959,17.546,1.959,12
		C1.959,6.454,6.454,1.959,12,1.959C17.546,1.959,22.041,6.454,22.041,12z M12,3c-4.971,0-9,4.029-9,9c0,4.971,4.029,9,9,9
		c4.971,0,9-4.029,9-9C21,7.029,16.971,3,12,3z M16.834,16.128L12,11.777V7.5C12,7.224,11.776,7,11.5,7S11,7.224,11,7.5V12
		c0,0.005,0.003,0.009,0.003,0.013c0.001,0.036,0.013,0.07,0.021,0.106c0.007,0.028,0.009,0.058,0.021,0.084
		c0.011,0.024,0.03,0.044,0.045,0.067c0.021,0.032,0.04,0.065,0.067,0.091c0.003,0.003,0.005,0.008,0.008,0.011l5,4.5
		C16.261,16.958,16.381,17,16.5,17c0.137,0,0.273-0.056,0.372-0.165C17.056,16.629,17.04,16.313,16.834,16.128z"/>
</g>
<g id="Layer_1">
</g>
</svg>
