<?xml version="1.0" encoding="iso-8859-1"?>
<!-- Generator: Adobe Illustrator 19.2.1, SVG Export Plug-In . SVG Version: 6.00 Build 0)  -->
<svg version="1.1" xmlns="http://www.w3.org/2000/svg" xmlns:xlink="http://www.w3.org/1999/xlink" x="0px" y="0px"
	 viewBox="0 0 14 14" style="enable-background:new 0 0 14 14;" xml:space="preserve">
<g id="cog-14">
	<rect id="bounding_141_" y="0" style="fill:none;" width="14" height="14"/>
	<path style="fill-rule:evenodd;clip-rule:evenodd;fill:#262626;" d="M13.88,6.348c0,0-0.255-0.096-0.99-0.164
		c-0.898-0.082-1.17-0.42-1.469-0.839h-0.006c-0.038-0.101-0.077-0.198-0.121-0.296l0.003-0.002
		c-0.085-0.509-0.131-0.939,0.445-1.633c0.472-0.569,0.584-0.816,0.584-0.816c-0.111-0.281-0.376-0.547-0.376-0.547
		s-0.267-0.267-0.547-0.377c0,0-0.247,0.111-0.815,0.584C9.893,2.836,9.463,2.789,8.955,2.703L8.951,2.707
		C8.854,2.664,8.756,2.623,8.655,2.586V2.58C8.237,2.281,7.899,2.01,7.817,1.111c-0.068-0.736-0.164-0.99-0.164-0.99
		C7.376,0,7,0,7,0S6.624,0,6.347,0.121c0,0-0.096,0.254-0.164,0.99c-0.082,0.898-0.42,1.17-0.838,1.469v0.006
		C5.243,2.623,5.146,2.662,5.049,2.707L5.046,2.703C4.537,2.789,4.108,2.836,3.412,2.258C2.846,1.787,2.597,1.674,2.597,1.674
		C2.317,1.785,2.05,2.051,2.05,2.051S1.785,2.318,1.674,2.598c0,0,0.112,0.248,0.584,0.816c0.576,0.693,0.53,1.124,0.445,1.633
		l0.003,0.002c-0.043,0.098-0.083,0.195-0.12,0.296H2.58C2.281,5.764,2.009,6.102,1.11,6.184C0.375,6.252,0.12,6.348,0.12,6.348
		C0,6.625,0,7.001,0,7.001s0,0.376,0.12,0.653c0,0,0.255,0.095,0.99,0.162c0.898,0.083,1.171,0.421,1.47,0.84h0.006
		c0.037,0.101,0.077,0.198,0.12,0.296L2.703,8.955c0.085,0.508,0.131,0.938-0.445,1.633c-0.472,0.566-0.584,0.815-0.584,0.815
		c0.111,0.279,0.376,0.548,0.376,0.548s0.268,0.265,0.547,0.375c0,0,0.249-0.111,0.815-0.584c0.695-0.577,1.125-0.529,1.633-0.444
		l0.004-0.005c0.097,0.044,0.194,0.084,0.296,0.121v0.007c0.419,0.298,0.756,0.571,0.839,1.47c0.067,0.735,0.163,0.989,0.163,0.989
		C6.625,14,7,14,7,14s0.376,0,0.653-0.12c0,0,0.096-0.254,0.164-0.989c0.082-0.898,0.42-1.172,0.838-1.47v-0.007
		c0.101-0.037,0.199-0.077,0.296-0.121l0.004,0.005c0.508-0.085,0.938-0.133,1.633,0.444c0.568,0.473,0.816,0.584,0.816,0.584
		c0.279-0.11,0.546-0.375,0.546-0.375s0.265-0.269,0.376-0.548c0,0-0.112-0.249-0.584-0.815c-0.576-0.694-0.53-1.125-0.445-1.633
		l-0.003-0.003c0.044-0.098,0.083-0.195,0.121-0.296h0.006c0.298-0.419,0.57-0.757,1.469-0.84c0.735-0.067,0.99-0.162,0.99-0.162
		C14,7.377,14,7.001,14,7.001S14,6.625,13.88,6.348L13.88,6.348L13.88,6.348z M7,10.274c-1.808,0-3.274-1.466-3.274-3.273
		c0-1.807,1.467-3.274,3.274-3.274s3.274,1.467,3.274,3.274C10.274,8.808,8.808,10.274,7,10.274L7,10.274L7,10.274z"/>
</g>
<g id="Layer_1">
</g>
</svg>
