<?xml version="1.0" encoding="iso-8859-1"?>
<!-- Generator: Adobe Illustrator 19.2.1, SVG Export Plug-In . SVG Version: 6.00 Build 0)  -->
<svg version="1.1" xmlns="http://www.w3.org/2000/svg" xmlns:xlink="http://www.w3.org/1999/xlink" x="0px" y="0px"
	 viewBox="0 0 24 24" style="enable-background:new 0 0 24 24;" xml:space="preserve">
<g id="coins-minus">
	<rect id="bounding_163_" style="fill:none;" width="24" height="24"/>
	<path style="fill:#262626;" d="M14.5,12c-0.276,0-0.5-0.224-0.5-0.5s0.224-0.5,0.5-0.5c0.16-0.021,0.5-0.985,0.5-1.396V9h-1
		c-0.276,0-0.5-0.194-0.5-0.471S13.724,8,14,8h1V6.104c0-0.827,0.673-1.5,1.5-1.5s1.5,0.673,1.5,1.5c0,0.276-0.224,0.5-0.5,0.5
		c-0.276,0-0.5-0.224-0.5-0.5c0-0.276-0.224-0.5-0.5-0.5S16,5.828,16,6.104V8h1c0.276,0,0.5,0.253,0.5,0.529S17.276,9,17,9h-1v0.604
		c0,0.304-0.087,1.063-0.245,1.396H17.5c0.276,0,0.5,0.224,0.5,0.5S17.776,12,17.5,12H14.5z M15.5,2C11.916,2,9,4.916,9,8.5
		c0,0.292,0.025,0.578,0.063,0.859C9.1,9.633,9.355,9.84,9.625,9.788c0.274-0.036,0.466-0.287,0.43-0.562
		C10.022,8.988,10,8.747,10,8.5C10,5.468,12.467,3,15.5,3S21,5.468,21,8.5S18.533,14,15.5,14c-0.248,0-0.489-0.023-0.728-0.055
		c-0.276-0.042-0.525,0.157-0.561,0.431c-0.036,0.274,0.157,0.525,0.431,0.562C14.923,14.975,15.208,15,15.5,15
		c3.584,0,6.5-2.916,6.5-6.5S19.084,2,15.5,2z M9.557,16.026H8H7H5.443c-0.276,0-0.5,0.224-0.5,0.5s0.224,0.5,0.5,0.5H7h1h1.557
		c0.276,0,0.5-0.224,0.5-0.5S9.833,16.026,9.557,16.026z M13,16.5c0,3.032-2.467,5.5-5.5,5.5S2,19.532,2,16.5S4.467,11,7.5,11
		S13,13.468,13,16.5z M12,16.5c0-2.481-2.019-4.5-4.5-4.5S3,14.019,3,16.5S5.019,21,7.5,21S12,18.981,12,16.5z"/>
</g>
<g id="Layer_1">
</g>
</svg>
