<?xml version="1.0" encoding="iso-8859-1"?>
<!-- Generator: Adobe Illustrator 19.2.1, SVG Export Plug-In . SVG Version: 6.00 Build 0)  -->
<svg version="1.1" xmlns="http://www.w3.org/2000/svg" xmlns:xlink="http://www.w3.org/1999/xlink" x="0px" y="0px"
	 viewBox="0 0 24 24" style="enable-background:new 0 0 24 24;" xml:space="preserve">
<g id="coinstack">
	<rect id="bounding_7_" style="fill:none;" width="24" height="24"/>
	<path style="fill:#262626;" d="M22,13.977c0-1.575-4.028-1.924-6-2v-0.196v-0.194V9.855V9.672V6.921
		c0-0.007-0.004-0.014-0.004-0.02C15.996,6.892,16,6.884,16,6.875V4.16c0-0.027-0.011-0.051-0.016-0.077
		C15.987,4.057,16,4.034,16,4.008c0-1.944-6.284-2-7-2c-0.716,0-7,0.056-7,2c0,0.026,0.013,0.049,0.016,0.075
		C2.011,4.109,2,4.133,2,4.16v2.715c0,0.042,0.015,0.079,0.02,0.12C2.013,7.027,2,7.059,2,7.094v2.762v3.026V12.9v2.981
		c0,1.493,3.116,2.08,6,2.146v1.82C8,21.547,12.4,22,15,22c2.6,0,7-0.453,7-2.152v-3V14.07c0-0.017-0.008-0.03-0.009-0.047
		C21.992,14.008,22,13.994,22,13.977z M21.002,16.831C20.856,17.239,18.666,18,15,18c-3.666,0-5.856-0.761-6-1.152v-0.066v-1.655
		C10.803,15.968,14.463,16,15,16c0.537,0,4.198-0.032,6.001-0.875L21.002,16.831z M15.003,6.852C14.845,7.253,12.644,8,9,8
		C5.356,8,3.155,7.253,3,6.875V5.144c1.803,0.833,5.463,0.864,6,0.864c0.537,0,4.198-0.031,6.001-0.865L15.003,6.852z M9,9
		c1.831,0,4.55-0.225,6.001-0.941l0.001,1.602C15.002,9.664,15,9.668,15,9.672v0.17c-0.154,0.408-2.341,1.166-6,1.166
		c-3.666,0-5.856-0.761-6-1.152V8.059C4.451,8.775,7.169,9,9,9z M3,12.882v-1.827c1.451,0.726,4.169,0.953,6,0.953
		c1.831,0,4.549-0.227,6-0.953v0.532v0.194v0.174c-0.716,0-7,0.057-7,2.022c0,0.013,0.007,0.024,0.007,0.036
		C4.718,13.884,3.108,13.178,3,12.9V12.882z M15,15c-3.631,0-5.809-0.685-6.008-0.977c0.199-0.383,2.377-1.067,6.008-1.067
		c3.631,0,5.809,0.684,6.008,0.977C20.809,14.315,18.631,15,15,15z M9,3.008c3.464,0,5.613,0.616,5.972,1
		c-0.359,0.384-2.508,1-5.972,1c-3.464,0-5.613-0.616-5.972-1C3.387,3.624,5.536,3.008,9,3.008z M3,15.882v-1.79
		c1.382,0.682,3.833,0.873,5,0.927v1.763v0.066v0.18C4.322,16.948,3,16.105,3,15.882z M15,21c-3.666,0-5.856-0.761-6-1.152v-1.801
		C10.451,18.772,13.169,19,15,19c1.831,0,4.55-0.228,6.001-0.954l0.001,1.785C20.856,20.239,18.666,21,15,21z"/>
</g>
<g id="Layer_1">
</g>
</svg>
