<?xml version="1.0" encoding="iso-8859-1"?>
<!-- Generator: Adobe Illustrator 19.2.1, SVG Export Plug-In . SVG Version: 6.00 Build 0)  -->
<svg version="1.1" xmlns="http://www.w3.org/2000/svg" xmlns:xlink="http://www.w3.org/1999/xlink" x="0px" y="0px"
	 viewBox="0 0 24 24" style="enable-background:new 0 0 24 24;" xml:space="preserve">
<g id="coins-plus">
	<rect id="bounding_160_" style="fill:none;" width="24" height="24"/>
	<path style="fill:#262626;" d="M8,6.104V8h1c0.276,0,0.5,0.253,0.5,0.529S9.276,9,9,9H8v0.604C8,9.908,7.913,10.667,7.755,11H9.5
		c0.276,0,0.5,0.224,0.5,0.5S9.776,12,9.5,12h-3C6.224,12,6,11.776,6,11.5S6.224,11,6.5,11C6.66,10.979,7,10.015,7,9.604V9H6
		C5.724,9,5.5,8.806,5.5,8.529S5.724,8,6,8h1V6.104c0-0.827,0.673-1.5,1.5-1.5s1.5,0.673,1.5,1.5c0,0.276-0.224,0.5-0.5,0.5
		c-0.276,0-0.5-0.224-0.5-0.5c0-0.276-0.224-0.5-0.5-0.5S8,5.828,8,6.104z M9.228,13.945C8.989,13.977,8.748,14,8.5,14
		C5.467,14,3,11.532,3,8.5S5.467,3,8.5,3S14,5.468,14,8.5c0,0.247-0.022,0.488-0.054,0.727c-0.037,0.274,0.156,0.525,0.43,0.562
		c0.275,0.052,0.525-0.155,0.562-0.429C14.975,9.078,15,8.792,15,8.5C15,4.916,12.084,2,8.5,2S2,4.916,2,8.5S4.916,15,8.5,15
		c0.292,0,0.577-0.025,0.858-0.062c0.274-0.036,0.467-0.287,0.431-0.562C9.753,14.104,9.501,13.907,9.228,13.945z M18.557,16.026H17
		v-1.558c0-0.276-0.224-0.5-0.5-0.5c-0.276,0-0.5,0.224-0.5,0.5v1.558h-1.557c-0.276,0-0.5,0.224-0.5,0.5s0.224,0.5,0.5,0.5H16
		v1.557c0,0.276,0.224,0.5,0.5,0.5c0.276,0,0.5-0.224,0.5-0.5v-1.557h1.557c0.276,0,0.5-0.224,0.5-0.5S18.833,16.026,18.557,16.026z
		 M22,16.5c0,3.032-2.467,5.5-5.5,5.5S11,19.532,11,16.5s2.467-5.5,5.5-5.5S22,13.468,22,16.5z M21,16.5c0-2.481-2.019-4.5-4.5-4.5
		S12,14.019,12,16.5s2.019,4.5,4.5,4.5S21,18.981,21,16.5z"/>
</g>
<g id="Layer_1">
</g>
</svg>
