<?xml version="1.0" encoding="iso-8859-1"?>
<!-- Generator: Adobe Illustrator 19.2.1, SVG Export Plug-In . SVG Version: 6.00 Build 0)  -->
<svg version="1.1" xmlns="http://www.w3.org/2000/svg" xmlns:xlink="http://www.w3.org/1999/xlink" x="0px" y="0px"
	 viewBox="0 0 24 24" style="enable-background:new 0 0 24 24;" xml:space="preserve">
<g id="coinstack-cog">
	<rect id="bounding_146_" style="fill:none;" width="24" height="24"/>
	<path style="fill:#262626;" d="M14.443,9.844l1.031-0.582c0.324,0.26,0.65,0.448,1.01,0.583V11h3.109V9.844
		c0.378-0.145,0.679-0.34,0.968-0.578L21.56,9.85l1.55-2.698l-1.011-0.581c0.025-0.187,0.038-0.378,0.038-0.57
		c0-0.189-0.013-0.38-0.04-0.571l1.009-0.583L21.548,2.15L20.56,2.734c-0.288-0.238-0.588-0.432-0.967-0.577V1h-3.109v1.156
		c-0.36,0.134-0.685,0.323-1.009,0.582l-1.021-0.583l-1.56,2.691l1.007,0.583C13.875,5.621,13.861,5.812,13.861,6
		c0,0.192,0.013,0.382,0.039,0.57l-1.009,0.582L14.443,9.844z M14.746,6.697C14.698,6.47,14.674,6.235,14.674,6
		c0-0.229,0.025-0.462,0.075-0.696l0.061-0.289L14.006,4.55l0.747-1.288l0.822,0.469l0.218-0.197
		c0.396-0.358,0.757-0.565,1.208-0.693l0.295-0.084V1.813h1.484v0.945l0.295,0.084c0.49,0.14,0.799,0.36,1.167,0.693l0.222,0.2
		l0.79-0.467l0.74,1.282l-0.807,0.466l0.061,0.289C21.299,5.536,21.324,5.771,21.324,6c0,0.238-0.024,0.473-0.071,0.696l-0.061,0.29
		L22,7.452l-0.737,1.282l-0.799-0.467l-0.221,0.199c-0.371,0.334-0.681,0.554-1.168,0.693l-0.295,0.084v0.944h-1.484V9.244
		L17.001,9.16c-0.451-0.128-0.811-0.335-1.208-0.693l-0.217-0.196l-0.832,0.47l-0.744-1.29l0.807-0.466L14.746,6.697z M17.998,8.129
		c1.174,0,2.129-0.955,2.129-2.129c0-1.173-0.955-2.129-2.129-2.129S15.869,4.827,15.869,6C15.869,7.174,16.824,8.129,17.998,8.129z
		 M17.998,4.684c0.726,0,1.316,0.59,1.316,1.316c0,0.726-0.59,1.316-1.316,1.316c-0.726,0-1.316-0.59-1.316-1.316
		C16.682,5.275,17.272,4.684,17.998,4.684z M15,12c-0.713,0-6.94,0.057-6.995,1.976C4.854,13.862,3.158,13.259,3,13v-1.865
		C4.803,11.969,8.463,12,9,12c1.082,0,2.111-0.058,3.06-0.173c0.274-0.033,0.469-0.282,0.437-0.556
		c-0.033-0.274-0.279-0.477-0.557-0.437C11.044,10.942,10.027,11,9,11c-3.62,0-5.804-0.674-6-1V8.135C4.803,8.969,8.463,9,9,9
		c0.695,0,1.381-0.024,2.038-0.073c0.275-0.021,0.482-0.261,0.461-0.536s-0.253-0.491-0.536-0.462C10.332,7.977,9.671,8,9,8
		C5.38,8,3.196,7.326,3,7V5.135C4.803,5.969,8.463,6,9,6c0.695,0,1.38-0.024,2.037-0.073c0.275-0.021,0.482-0.261,0.461-0.536
		s-0.252-0.488-0.536-0.462C10.331,4.977,9.67,5,9,5C5.536,5,3.387,4.384,3.028,4C3.387,3.616,5.536,3,9,3
		c0.851,0,1.676,0.038,2.453,0.113c0.267,0.02,0.519-0.175,0.545-0.45c0.027-0.274-0.175-0.519-0.45-0.546C10.74,2.039,9.882,2,9,2
		C8.309,2,2.46,2.057,2.041,3.803C2.015,3.864,2,3.93,2,4v12c0,1.599,4.306,1.918,6,1.982V20c0,1.944,6.284,2,7,2s7-0.056,7-2v-6
		C22,12.056,15.716,12,15,12z M15,13c3.464,0,5.613,0.616,5.972,1c-0.359,0.384-2.508,1-5.972,1s-5.613-0.616-5.972-1
		C9.387,13.616,11.536,13,15,13z M9,15.135C10.803,15.969,14.463,16,15,16c0.537,0,4.199-0.031,6.002-0.865l0.003,1.819
		C20.786,17.331,18.607,18,15,18c-3.62,0-5.804-0.674-6-1V15.135z M3,16v-1.875c1.378,0.641,3.819,0.812,5,0.856v1.994
		C4.852,16.861,3.158,16.259,3,16z M15,21c-3.62,0-5.804-0.674-6-1v-1.865C10.803,18.969,14.463,19,15,19
		c0.537,0,4.206-0.031,6.007-0.867l0.003,1.816C20.804,20.326,18.62,21,15,21z"/>
</g>
<g id="Layer_1">
</g>
</svg>
