<?xml version="1.0" encoding="iso-8859-1"?>
<!-- Generator: Adobe Illustrator 19.2.1, SVG Export Plug-In . SVG Version: 6.00 Build 0)  -->
<svg version="1.1" xmlns="http://www.w3.org/2000/svg" xmlns:xlink="http://www.w3.org/1999/xlink" x="0px" y="0px"
	 viewBox="0 0 24 24" style="enable-background:new 0 0 24 24;" xml:space="preserve">
<g id="coins-sterling">
	<rect id="bounding-e930" style="fill:none;" width="24" height="24"/>
	<path style="fill:#262626;" d="M16,6.104V8h1c0.276,0,0.5,0.253,0.5,0.529C17.5,8.806,17.276,9,17,9h-1v0.604
		c0,0.304-0.087,1.063-0.245,1.396H17.5c0.276,0,0.5,0.224,0.5,0.5S17.776,12,17.5,12h-3c-0.276,0-0.5-0.224-0.5-0.5
		s0.224-0.5,0.5-0.5c0.16-0.021,0.5-0.985,0.5-1.396V9h-1c-0.276,0-0.5-0.194-0.5-0.471C13.5,8.253,13.724,8,14,8h1V6.104
		c0-0.827,0.673-1.5,1.5-1.5c0.827,0,1.5,0.673,1.5,1.5c0,0.276-0.224,0.5-0.5,0.5c-0.276,0-0.5-0.224-0.5-0.5
		c0-0.276-0.224-0.5-0.5-0.5C16.224,5.604,16,5.828,16,6.104z M22,8.698c0,3.661-2.954,6.642-6.604,6.694
		C15.348,19.043,12.365,22,8.7,22C5.006,22,2,18.995,2,15.302c0-3.661,2.954-6.642,6.603-6.694C8.652,4.957,11.635,2,15.3,2
		C18.994,2,22,5.005,22,8.698z M14.372,15.325c-1.451-0.202-2.749-0.874-3.748-1.85c-0.04,0.011-0.08,0.025-0.124,0.025
		c-0.276,0-0.5-0.224-0.5-0.5c0-0.276-0.224-0.5-0.5-0.5C9.224,12.5,9,12.724,9,13v2h1c0.276,0,0.5,0.224,0.5,0.5S10.276,16,10,16
		H9.027L9,16.5c0,0.304-0.06,1.167-0.218,1.5H10.5c0.276,0,0.5,0.224,0.5,0.5S10.776,19,10.5,19h-3C7.224,19,7,18.776,7,18.5
		S7.224,18,7.5,18C7.66,17.979,8,16.911,8,16.5L8.027,16H7c-0.276,0-0.5-0.224-0.5-0.5S6.724,15,7,15h1v-2
		c0-0.741,0.541-1.354,1.248-1.475C8.969,10.931,8.764,10.294,8.67,9.62c-3.114,0.017-5.643,2.559-5.643,5.683
		c0,3.134,2.545,5.683,5.672,5.683C11.82,20.985,14.359,18.448,14.372,15.325z M20.972,8.698c0-3.134-2.545-5.683-5.672-5.683
		c-3.128,0-5.673,2.549-5.673,5.683c0,3.134,2.545,5.684,5.673,5.684C18.427,14.382,20.972,11.832,20.972,8.698z"/>
</g>
<g id="Layer_1">
</g>
</svg>
