<?xml version="1.0" encoding="iso-8859-1"?>
<!-- Generator: Adobe Illustrator 19.2.1, SVG Export Plug-In . SVG Version: 6.00 Build 0)  -->
<svg version="1.1" xmlns="http://www.w3.org/2000/svg" xmlns:xlink="http://www.w3.org/1999/xlink" x="0px" y="0px"
	 viewBox="0 0 14 14" style="enable-background:new 0 0 14 14;" xml:space="preserve">
<g id="coinstack-14">
	<rect id="bounding_145_" style="fill:none;" width="14" height="14"/>
	<path style="fill:#262626;" d="M9.5,5C7,5,5,7,5,9.5S7,14,9.5,14S14,12,14,9.5S12,5,9.5,5z M9.5,13C7.6,13,6,11.4,6,9.5
		C6,7.6,7.6,6,9.5,6S13,7.6,13,9.5C13,11.4,11.4,13,9.5,13z M4.5,5.926h0.8C6.2,4.821,7.5,4.118,9,4.018V2.009C9,0.904,7,0,4.5,0
		S0,0.904,0,2.009v2.009C0,5.022,2,5.926,4.5,5.926z M4.5,0.904c1.9,0,3.5,0.703,3.5,1.507S6.4,3.917,4.5,3.917S1,3.214,1,2.411
		S2.6,0.904,4.5,0.904z M4,9.944c0.1,0.703,0.3,1.406,0.6,2.009H4.5C2,11.952,0,11.048,0,9.944V7.935C0,8.939,1.8,9.843,4,9.944z
		 M4.5,6.93h0.1C4.3,7.533,4.1,8.236,4,8.939c-2.2-0.1-4-1.004-4-2.009V4.922C0,6.026,2,6.93,4.5,6.93z"/>
</g>
<g id="Layer_1">
</g>
</svg>
