<?xml version="1.0" encoding="iso-8859-1"?>
<!-- Generator: Adobe Illustrator 19.2.1, SVG Export Plug-In . SVG Version: 6.00 Build 0)  -->
<svg version="1.1" xmlns="http://www.w3.org/2000/svg" xmlns:xlink="http://www.w3.org/1999/xlink" x="0px" y="0px"
	 viewBox="0 0 24 24" style="enable-background:new 0 0 24 24;" xml:space="preserve">
<g id="computer-tick">
	<rect id="bounding_31_" style="fill:none;" width="24" height="24"/>
	<path style="fill:#262626;" d="M11.5,20.5c0,0.276-0.224,0.5-0.5,0.5H5.5C5.224,21,5,20.776,5,20.5S5.224,20,5.5,20h2.691l0.5-1
		H3.7C2.683,19,2,18.121,2,17.3V5.7C2,4.683,2.879,4,3.7,4h16.6C21.316,4,22,4.879,22,5.7v5.8c0,0.276-0.224,0.5-0.5,0.5
		S21,11.776,21,11.5V5.7C21,5.369,20.713,5,20.3,5H3.7C3.369,5,3,5.288,3,5.7v11.6C3,17.631,3.288,18,3.7,18h6.8
		c0.276,0,0.5,0.224,0.5,0.5S10.776,19,10.5,19H9.809l-0.5,1H11C11.276,20,11.5,20.224,11.5,20.5z M11.5,15H5V7h14v4
		c0,0.276,0.224,0.5,0.5,0.5S20,11.276,20,11V6.5C20,6.224,19.776,6,19.5,6h-15C4.224,6,4,6.224,4,6.5v9C4,15.776,4.224,16,4.5,16h7
		c0.276,0,0.5-0.224,0.5-0.5S11.776,15,11.5,15z M20.6,16.1c-0.3-0.1-0.6,0-0.7,0.2l-1.7,3.4l-1.5-1.5c-0.2-0.2-0.5-0.2-0.7,0
		s-0.2,0.5,0,0.7l2,2c0.1,0,0.3,0.1,0.4,0.1h0.1c0.2-0.1,0.3-0.2,0.4-0.3l2-4C21.1,16.5,21,16.2,20.6,16.1z M24,18.5
		c0,3-2.5,5.5-5.5,5.5S13,21.5,13,18.5s2.5-5.5,5.5-5.5S24,15.5,24,18.5z M23,18.5c0-2.5-2-4.5-4.5-4.5S14,16,14,18.5s2,4.5,4.5,4.5
		S23,21,23,18.5z"/>
</g>
<g id="Layer_1">
</g>
</svg>
