<?xml version="1.0" encoding="iso-8859-1"?>
<!-- Generator: Adobe Illustrator 19.2.1, SVG Export Plug-In . SVG Version: 6.00 Build 0)  -->
<svg version="1.1" xmlns="http://www.w3.org/2000/svg" xmlns:xlink="http://www.w3.org/1999/xlink" x="0px" y="0px"
	 viewBox="0 0 24 24" style="enable-background:new 0 0 24 24;" xml:space="preserve">
<g id="computer">
	<rect id="bounding_60_" style="fill:none;" width="24" height="24"/>
	<path style="fill:#262626;" d="M20.293,4H3.707C2.882,4,2,4.684,2,5.7v11.6C2,18.121,2.686,19,3.707,19h4.984l-0.5,1H6.2
		c-0.276,0-0.5,0.224-0.5,0.5S5.924,21,6.2,21h11.6c0.276,0,0.5-0.224,0.5-0.5S18.076,20,17.8,20h-1.991l-0.5-1h4.984
		C21.118,19,22,18.316,22,17.3V5.7C22,4.879,21.314,4,20.293,4z M14.691,20H9.309l0.5-1h4.382L14.691,20z M21,17.3
		c0,0.413-0.373,0.7-0.707,0.7H3.707C3.29,18,3,17.631,3,17.3V5.7C3,5.287,3.373,5,3.707,5h16.587C20.71,5,21,5.369,21,5.7V17.3z
		 M19.5,6h-15C4.224,6,4,6.224,4,6.5v9C4,15.776,4.224,16,4.5,16h15c0.276,0,0.5-0.224,0.5-0.5v-9C20,6.224,19.776,6,19.5,6z M19,15
		H5V7h14V15z M12.707,17.007c0,0.391-0.317,0.707-0.707,0.707c-0.391,0-0.707-0.317-0.707-0.707c0-0.391,0.317-0.707,0.707-0.707
		C12.391,16.3,12.707,16.617,12.707,17.007z"/>
</g>
<g id="Layer_1">
</g>
</svg>
