<?xml version="1.0" encoding="iso-8859-1"?>
<!-- Generator: Adobe Illustrator 19.2.1, SVG Export Plug-In . SVG Version: 6.00 Build 0)  -->
<svg version="1.1" xmlns="http://www.w3.org/2000/svg" xmlns:xlink="http://www.w3.org/1999/xlink" x="0px" y="0px"
	 viewBox="0 0 16 14" style="enable-background:new 0 0 16 14;" xml:space="preserve">
<g id="computer-14">
	<rect id="bounding_173_" style="fill:none;" width="16" height="14"/>
	<path style="fill:#262626;" d="M15,0H1C0.448,0,0,0.449,0,1v10c0,0.551,0.448,1,1,1h4.909l-0.286,1H3.8c-0.276,0-0.5,0.224-0.5,0.5
		S3.523,14,3.8,14H6h4h2.4c0.276,0,0.5-0.224,0.5-0.5S12.677,13,12.4,13h-2.024l-0.286-1H15c0.552,0,1-0.449,1-1V1
		C16,0.449,15.552,0,15,0z M9.337,13H6.663l0.285-1h2.104L9.337,13z M15,11.5V11H9.429H6.571H1V1h14v10h0.001L15,11.5z"/>
</g>
<g id="Layer_1">
</g>
</svg>
