<?xml version="1.0" encoding="iso-8859-1"?>
<!-- Generator: Adobe Illustrator 19.2.1, SVG Export Plug-In . SVG Version: 6.00 Build 0)  -->
<svg version="1.1" xmlns="http://www.w3.org/2000/svg" xmlns:xlink="http://www.w3.org/1999/xlink" x="0px" y="0px"
	 viewBox="0 0 24 24" style="enable-background:new 0 0 24 24;" xml:space="preserve">
<g id="controlpanel">
	<rect id="bounding_6_" style="fill:none;" width="24" height="24"/>
	<path style="fill:#262626;" d="M21.5,2h-19C2.224,2,2,2.224,2,2.5v19C2,21.776,2.224,22,2.5,22h19c0.276,0,0.5-0.224,0.5-0.5v-19
		C22,2.224,21.776,2,21.5,2z M21,21H3V3h18V21z M15.5,12.892H17V14.5c0,0.276,0.224,0.5,0.5,0.5c0.276,0,0.5-0.224,0.5-0.5v-1.608
		h1.5c0.276,0,0.5-0.224,0.5-0.5V10.5c0-0.276-0.224-0.5-0.5-0.5H18V5.5C18,5.224,17.776,5,17.5,5C17.224,5,17,5.224,17,5.5V10h-1.5
		c-0.276,0-0.5,0.224-0.5,0.5v1.892C15,12.668,15.224,12.892,15.5,12.892z M16,11h3v0.892h-3V11z M10,8h1.5v1.5v5
		c0,0.276,0.224,0.5,0.5,0.5c0.276,0,0.5-0.224,0.5-0.5v-5V8H14c0.276,0,0.5-0.224,0.5-0.5v-2C14.5,5.224,14.276,5,14,5h-4
		C9.724,5,9.5,5.224,9.5,5.5v2C9.5,7.776,9.724,8,10,8z M10.5,6h3v1h-3V6z M4.5,12H6v2.544c0,0.276,0.224,0.5,0.5,0.5
		c0.276,0,0.5-0.224,0.5-0.5V12h1.5C8.776,12,9,11.776,9,11.5v-2C9,9.224,8.776,9,8.5,9H7V5.456c0-0.276-0.224-0.5-0.5-0.5
		c-0.276,0-0.5,0.224-0.5,0.5V9H4.5C4.224,9,4,9.224,4,9.5v2C4,11.776,4.224,12,4.5,12z M5,10h3v1H5V10z M17.5,16
		c-0.94,0-1.705,0.741-1.705,1.652c0,0.911,0.765,1.652,1.705,1.652c0.94,0,1.705-0.741,1.705-1.652C19.205,16.741,18.44,16,17.5,16
		z M17.5,18.305c-0.389,0-0.705-0.293-0.705-0.652c0-0.359,0.316-0.652,0.705-0.652c0.389,0,0.705,0.293,0.705,0.652
		C18.205,18.012,17.889,18.305,17.5,18.305z M12,16c-0.94,0-1.705,0.741-1.705,1.652c0,0.911,0.765,1.652,1.705,1.652
		c0.94,0,1.705-0.741,1.705-1.652C13.705,16.741,12.94,16,12,16z M12,18.305c-0.389,0-0.705-0.293-0.705-0.652
		C11.295,17.293,11.611,17,12,17c0.389,0,0.705,0.293,0.705,0.652C12.705,18.012,12.389,18.305,12,18.305z M6.5,16
		c-0.94,0-1.705,0.741-1.705,1.652c0,0.911,0.765,1.652,1.705,1.652c0.94,0,1.705-0.741,1.705-1.652C8.205,16.741,7.44,16,6.5,16z
		 M6.5,18.305c-0.389,0-0.705-0.293-0.705-0.652C5.795,17.293,6.111,17,6.5,17c0.389,0,0.705,0.293,0.705,0.652
		C7.205,18.012,6.889,18.305,6.5,18.305z"/>
</g>
<g id="Layer_1">
</g>
</svg>
