<?xml version="1.0" encoding="iso-8859-1"?>
<!-- Generator: Adobe Illustrator 19.2.1, SVG Export Plug-In . SVG Version: 6.00 Build 0)  -->
<svg version="1.1" xmlns="http://www.w3.org/2000/svg" xmlns:xlink="http://www.w3.org/1999/xlink" x="0px" y="0px"
	 viewBox="0 0 12 12" style="enable-background:new 0 0 12 12;" xml:space="preserve">
<g id="cross-regular">
	<rect id="bounding_128_" style="fill:none;" width="12" height="12"/>
	<path style="fill:#262626;" d="M11.498,10.501c0.275,0.275,0.275,0.722,0,0.997c-0.137,0.138-0.317,0.207-0.498,0.207
		s-0.361-0.069-0.498-0.207L6,6.997l-4.502,4.502C1.361,11.636,1.181,11.705,1,11.705s-0.361-0.069-0.498-0.207
		c-0.275-0.275-0.275-0.722,0-0.997L5.003,6L0.502,1.499c-0.275-0.275-0.275-0.722,0-0.997c0.273-0.275,0.723-0.275,0.996,0L6,5.003
		l4.502-4.502c0.273-0.275,0.723-0.275,0.996,0c0.275,0.275,0.275,0.722,0,0.997L6.997,6L11.498,10.501z"/>
</g>
<g id="Layer_1">
</g>
</svg>
