<?xml version="1.0" encoding="iso-8859-1"?>
<!-- Generator: Adobe Illustrator 19.2.1, SVG Export Plug-In . SVG Version: 6.00 Build 0)  -->
<svg version="1.1" xmlns="http://www.w3.org/2000/svg" xmlns:xlink="http://www.w3.org/1999/xlink" x="0px" y="0px"
	 viewBox="0 0 12 12" style="enable-background:new 0 0 12 12;" xml:space="preserve">
<g id="cross-bold">
	<rect id="bounding_111_" style="fill:none;" width="12" height="12"/>
	<path style="fill:#262626;" d="M11.707,10.293c0.391,0.391,0.391,1.023,0,1.414C11.512,11.902,11.256,12,11,12
		s-0.512-0.098-0.707-0.293L6,7.414l-4.293,4.293C1.512,11.902,1.256,12,1,12s-0.512-0.098-0.707-0.293
		c-0.391-0.391-0.391-1.023,0-1.414L4.586,6L0.293,1.707c-0.391-0.391-0.391-1.023,0-1.414s1.023-0.391,1.414,0L6,4.586l4.293-4.293
		c0.391-0.391,1.023-0.391,1.414,0s0.391,1.023,0,1.414L7.414,6L11.707,10.293z"/>
</g>
<g id="Layer_1">
</g>
</svg>
