<?xml version="1.0" encoding="iso-8859-1"?>
<!-- Generator: Adobe Illustrator 19.2.1, SVG Export Plug-In . SVG Version: 6.00 Build 0)  -->
<svg version="1.1" xmlns="http://www.w3.org/2000/svg" xmlns:xlink="http://www.w3.org/1999/xlink" x="0px" y="0px"
	 viewBox="0 0 12 12" style="enable-background:new 0 0 12 12;" xml:space="preserve">
<g id="cross-light">
	<rect id="bounding_108_" style="fill:none;" width="12" height="12"/>
	<path style="fill:#262626;" d="M11.354,10.646c0.195,0.195,0.195,0.512,0,0.707C11.256,11.451,11.128,11.5,11,11.5
		s-0.256-0.049-0.354-0.146L6,6.707l-4.646,4.646C1.256,11.451,1.128,11.5,1,11.5s-0.256-0.049-0.354-0.146
		c-0.195-0.195-0.195-0.512,0-0.707L5.293,6L0.646,1.354c-0.195-0.195-0.195-0.512,0-0.707s0.512-0.195,0.707,0L6,5.293l4.646-4.646
		c0.195-0.195,0.512-0.195,0.707,0s0.195,0.512,0,0.707L6.707,6L11.354,10.646z"/>
</g>
<g id="Layer_1">
</g>
</svg>
