<?xml version="1.0" encoding="iso-8859-1"?>
<!-- Generator: Adobe Illustrator 19.2.1, SVG Export Plug-In . SVG Version: 6.00 Build 0)  -->
<svg version="1.1" xmlns="http://www.w3.org/2000/svg" xmlns:xlink="http://www.w3.org/1999/xlink" x="0px" y="0px"
	 viewBox="0 0 24 24" style="enable-background:new 0 0 24 24;" xml:space="preserve">
<g id="doc-pdf">
	<rect id="bounding_12_" style="fill:none;" width="24" height="24"/>
	<path style="fill:#262626;" d="M22.5,9H19V7.456c0-0.129-0.05-0.252-0.139-0.346l-4.737-4.956C14.03,2.056,13.9,2,13.763,2H3.5
		C3.224,2,3,2.224,3,2.5v19C3,21.776,3.224,22,3.5,22h15c0.276,0,0.5-0.224,0.5-0.5V20h3.5c0.827,0,1.5-0.673,1.5-1.5v-8
		C24,9.673,23.327,9,22.5,9z M14,3.472L17.373,7H14V3.472z M18,21H4V3h9v4.5C13,7.776,13.224,8,13.5,8H18v1H7.5
		C6.673,9,6,9.673,6,10.5v8C6,19.327,6.673,20,7.5,20H18V21z M23,18.5c0,0.275-0.224,0.5-0.5,0.5h-15C7.224,19,7,18.775,7,18.5v-8
		C7,10.225,7.224,10,7.5,10h15c0.276,0,0.5,0.225,0.5,0.5V18.5z M14.917,12H14c-0.276,0-0.5,0.224-0.5,0.5v4.131
		c0,0.276,0.224,0.5,0.5,0.5h0.917c1.33,0,2.333-1.102,2.333-2.565S16.247,12,14.917,12z M14.917,16.131H14.5V13h0.417
		c0.773,0,1.333,0.658,1.333,1.565C16.25,15.473,15.689,16.131,14.917,16.131z M21,12.56c0,0.276-0.224,0.5-0.5,0.5H19v1h0.896
		c0.276,0,0.5,0.224,0.5,0.5c0,0.276-0.224,0.5-0.5,0.5H19v1.631c0,0.276-0.224,0.5-0.5,0.5s-0.5-0.224-0.5-0.5V12.56
		c0-0.276,0.224-0.5,0.5-0.5h2C20.776,12.06,21,12.283,21,12.56z M10.54,12.001H9.5c-0.276,0-0.5,0.224-0.5,0.5v4.129
		c0,0.276,0.224,0.5,0.5,0.5c0.276,0,0.5-0.224,0.5-0.5v-1.565h0.54c0.849,0,1.539-0.688,1.539-1.532
		C12.079,12.688,11.388,12.001,10.54,12.001z M10.54,14.065H10v-1.065h0.54c0.297,0,0.539,0.238,0.539,0.532
		C11.079,13.827,10.837,14.065,10.54,14.065z"/>
</g>
<g id="Layer_1">
</g>
</svg>
