<?xml version="1.0" encoding="iso-8859-1"?>
<!-- Generator: Adobe Illustrator 19.2.1, SVG Export Plug-In . SVG Version: 6.00 Build 0)  -->
<svg version="1.1" xmlns="http://www.w3.org/2000/svg" xmlns:xlink="http://www.w3.org/1999/xlink" x="0px" y="0px"
	 viewBox="0 0 24 24" style="enable-background:new 0 0 24 24;" xml:space="preserve">
<g id="doc-arrow-d">
	<rect id="bounding_158_" style="fill:none;" width="24" height="24"/>
	<path d="M24,18.5c0-3.033-2.468-5.5-5.5-5.5S13,15.467,13,18.5s2.468,5.5,5.5,5.5S24,21.533,24,18.5z M14,18.5
		c0-2.481,2.019-4.5,4.5-4.5s4.5,2.019,4.5,4.5S20.981,23,18.5,23S14,20.981,14,18.5z M11.5,21.5c0-0.276-0.224-0.5-0.5-0.5H5V3h9
		v4.5C14,7.776,14.224,8,14.5,8H19v3c0,0.276,0.224,0.5,0.5,0.5S20,11.276,20,11V7.502l0-0.001L20,7.5
		c0-0.053-0.015-0.102-0.03-0.15c-0.004-0.013-0.003-0.027-0.008-0.039c-0.026-0.064-0.066-0.121-0.115-0.168l-4.993-4.995
		c-0.046-0.046-0.101-0.083-0.162-0.108C14.632,2.014,14.567,2,14.5,2h-10C4.224,2,4,2.224,4,2.5v19C4,21.776,4.224,22,4.5,22H11
		C11.276,22,11.5,21.776,11.5,21.5z M15,3.707L18.291,7H15V3.707z M16.2,19.4c-0.221-0.166-0.266-0.479-0.101-0.7
		c0.167-0.221,0.48-0.264,0.7-0.1l1.2,0.9V16c0-0.276,0.224-0.5,0.5-0.5S19,15.724,19,16v3.5l1.2-0.9
		c0.22-0.165,0.533-0.122,0.7,0.1c0.165,0.221,0.12,0.534-0.101,0.7l-2,1.5c-0.009,0.007-0.02,0.004-0.029,0.01
		C18.691,20.962,18.602,21,18.5,21s-0.191-0.038-0.27-0.09c-0.009-0.006-0.021-0.003-0.029-0.01L16.2,19.4z"/>
</g>
<g id="Layer_1">
</g>
</svg>
