<?xml version="1.0" encoding="iso-8859-1"?>
<!-- Generator: Adobe Illustrator 19.2.1, SVG Export Plug-In . SVG Version: 6.00 Build 0)  -->
<svg version="1.1" xmlns="http://www.w3.org/2000/svg" xmlns:xlink="http://www.w3.org/1999/xlink" x="0px" y="0px"
	 viewBox="0 0 24 24" style="enable-background:new 0 0 24 24;" xml:space="preserve">
<g id="doc-csv">
	<rect id="bounding_55_" style="fill:none;" width="24" height="24"/>
	<path style="fill:#262626;" d="M18.861,7.11l-4.737-4.956C14.03,2.056,13.9,2,13.763,2H3.5C3.224,2,3,2.224,3,2.5v19
		C3,21.776,3.224,22,3.5,22h15c0.276,0,0.5-0.224,0.5-0.5V7.456C19,7.327,18.95,7.204,18.861,7.11z M14,3.472L17.373,7H14V3.472z
		 M18,21H4V3h9v4.5C13,7.776,13.224,8,13.5,8H18V21z M6,9.5v9C6,18.776,6.224,19,6.5,19h9c0.276,0,0.5-0.224,0.5-0.5v-9
		C16,9.224,15.776,9,15.5,9h-9C6.224,9,6,9.224,6,9.5z M10,10h5v2h-5V10z M10,13h5v2h-5V13z M10,16h5v2h-5V16z M7,10h2v2H7V10z
		 M7,13h2v2H7V13z M7,16h2v2H7V16z"/>
</g>
<g id="Layer_1">
</g>
</svg>
