<?xml version="1.0" encoding="iso-8859-1"?>
<!-- Generator: Adobe Illustrator 19.2.1, SVG Export Plug-In . SVG Version: 6.00 Build 0)  -->
<svg version="1.1" xmlns="http://www.w3.org/2000/svg" xmlns:xlink="http://www.w3.org/1999/xlink" x="0px" y="0px"
	 viewBox="0 0 24 24" style="enable-background:new 0 0 24 24;" xml:space="preserve">
<g id="doc-stacked">
	<rect id="bounding_10_" style="fill:none;" width="24" height="24"/>
	<path style="fill:#262626;" d="M19.861,6.566l-4.23-4.412C15.536,2.056,15.406,2,15.269,2H8.5C8.224,2,8,2.224,8,2.5V4H6.5
		C6.224,4,6,4.224,6,4.5V6H4.5C4.224,6,4,6.224,4,6.5v15C4,21.776,4.224,22,4.5,22h11c0.276,0,0.5-0.224,0.5-0.5V20h1.5
		c0.276,0,0.5-0.224,0.5-0.5V18h1.5c0.276,0,0.5-0.224,0.5-0.5V6.912C20,6.783,19.95,6.659,19.861,6.566z M16,3.984L18.892,7H16
		V3.984z M15,21H5V7h1v12.5C6,19.776,6.224,20,6.5,20H15V21z M17,19H7V5h1v12.5C8,17.776,8.224,18,8.5,18H17V19z M9,17V3h6v4.5
		C15,7.776,15.224,8,15.5,8H19v9H9z"/>
</g>
<g id="Layer_1">
</g>
</svg>
