<?xml version="1.0" encoding="iso-8859-1"?>
<!-- Generator: Adobe Illustrator 19.2.1, SVG Export Plug-In . SVG Version: 6.00 Build 0)  -->
<svg version="1.1" xmlns="http://www.w3.org/2000/svg" xmlns:xlink="http://www.w3.org/1999/xlink" x="0px" y="0px"
	 viewBox="0 0 24 24" style="enable-background:new 0 0 24 24;" xml:space="preserve">
<g id="doc-spyglass">
	<rect id="bounding_13_" style="fill:none;" width="24" height="24"/>
	<path style="fill:#262626;" d="M21.849,21.143l-2.584-2.522C19.719,18.03,20,17.301,20,16.5c0-1.93-1.57-3.5-3.5-3.5
		c-1.93,0-3.5,1.57-3.5,3.5s1.57,3.5,3.5,3.5c0.769,0,1.475-0.257,2.053-0.679l2.598,2.536C21.248,21.953,21.374,22,21.5,22
		c0.13,0,0.26-0.051,0.358-0.15C22.051,21.651,22.047,21.335,21.849,21.143z M16.5,19c-1.378,0-2.5-1.121-2.5-2.5s1.122-2.5,2.5-2.5
		c1.378,0,2.5,1.121,2.5,2.5S17.878,19,16.5,19z M5,7.437c0-0.276,0.224-0.5,0.5-0.5h4c0.276,0,0.5,0.224,0.5,0.5
		s-0.224,0.5-0.5,0.5h-4C5.224,7.937,5,7.714,5,7.437z M12.5,10.937h-7c-0.276,0-0.5-0.224-0.5-0.5s0.224-0.5,0.5-0.5h7
		c0.276,0,0.5,0.224,0.5,0.5S12.776,10.937,12.5,10.937z M10.5,13.937h-5c-0.276,0-0.5-0.224-0.5-0.5s0.224-0.5,0.5-0.5h5
		c0.276,0,0.5,0.224,0.5,0.5S10.776,13.937,10.5,13.937z M9.5,16c0.276,0,0.5,0.224,0.5,0.5S9.776,17,9.5,17h-4
		C5.224,17,5,16.776,5,16.5S5.224,16,5.5,16H9.5z M12.5,20H3V3h8v3.438c0,0.276,0.224,0.5,0.5,0.5H15v4.5c0,0.276,0.224,0.5,0.5,0.5
		c0.276,0,0.5-0.224,0.5-0.5v-5c0-0.132-0.052-0.259-0.146-0.352l-3.913-3.938C11.848,2.053,11.72,2,11.587,2H2.5
		C2.224,2,2,2.224,2,2.5v18C2,20.776,2.224,21,2.5,21h10c0.276,0,0.5-0.224,0.5-0.5S12.776,20,12.5,20z M12,3.625l2.298,2.312H12
		V3.625z"/>
</g>
<g id="Layer_1">
</g>
</svg>
