<?xml version="1.0" encoding="iso-8859-1"?>
<!-- Generator: Adobe Illustrator 19.2.1, SVG Export Plug-In . SVG Version: 6.00 Build 0)  -->
<svg version="1.1" xmlns="http://www.w3.org/2000/svg" xmlns:xlink="http://www.w3.org/1999/xlink" x="0px" y="0px"
	 viewBox="0 0 24 24" style="enable-background:new 0 0 24 24;" xml:space="preserve">
<g id="doc-chevron-r">
	<rect id="bounding_110_" style="fill:none;" width="24" height="24"/>
	<path d="M18.5,13c-3.032,0-5.5,2.467-5.5,5.5s2.468,5.5,5.5,5.5s5.5-2.467,5.5-5.5S21.532,13,18.5,13z M18.5,23
		c-2.481,0-4.5-2.019-4.5-4.5s2.019-4.5,4.5-4.5s4.5,2.019,4.5,4.5S20.981,23,18.5,23z M20.354,18.146
		c0.195,0.195,0.195,0.512,0,0.707l-2.25,2.25c-0.098,0.098-0.226,0.146-0.354,0.146s-0.256-0.049-0.354-0.146
		c-0.195-0.195-0.195-0.512,0-0.707l1.896-1.896l-1.896-1.896c-0.195-0.195-0.195-0.512,0-0.707s0.512-0.195,0.707,0L20.354,18.146z
		 M11,21H5V3h9v4.5C14,7.776,14.224,8,14.5,8H19v3c0,0.276,0.224,0.5,0.5,0.5S20,11.276,20,11V7.502l0-0.001L20,7.5
		c0-0.053-0.015-0.102-0.03-0.15c-0.004-0.013-0.003-0.027-0.008-0.039c-0.026-0.064-0.066-0.121-0.115-0.168l-4.993-4.995
		c-0.046-0.046-0.101-0.083-0.162-0.108C14.632,2.014,14.567,2,14.5,2h-10C4.224,2,4,2.224,4,2.5v19C4,21.776,4.224,22,4.5,22H11
		c0.276,0,0.5-0.224,0.5-0.5S11.276,21,11,21z M15,3.707L18.291,7H15V3.707z"/>
</g>
<g id="Layer_1">
</g>
</svg>
