<?xml version="1.0" encoding="iso-8859-1"?>
<!-- Generator: Adobe Illustrator 19.2.1, SVG Export Plug-In . SVG Version: 6.00 Build 0)  -->
<svg version="1.1" xmlns="http://www.w3.org/2000/svg" xmlns:xlink="http://www.w3.org/1999/xlink" x="0px" y="0px"
	 viewBox="0 0 15 14" style="enable-background:new 0 0 15 14;" xml:space="preserve">
<g id="download-14">
	<rect id="bounding_159_" style="fill:none;" width="15" height="14"/>
	<path style="fill:#262626;" d="M15,10.674V12.1c0,1.047-0.853,1.9-1.9,1.9H1.9C0.853,14,0,13.147,0,12.1v-1.426
		c0-0.276,0.224-0.5,0.5-0.5s0.5,0.224,0.5,0.5V12.1C1,12.596,1.404,13,1.9,13H13.1c0.496,0,0.9-0.404,0.9-0.9v-1.426
		c0-0.276,0.224-0.5,0.5-0.5S15,10.398,15,10.674z M7.146,10.353c0.046,0.046,0.102,0.083,0.163,0.109
		C7.37,10.487,7.435,10.5,7.5,10.5s0.13-0.013,0.191-0.038c0.062-0.025,0.117-0.062,0.163-0.109l4.136-4.136
		c0.195-0.195,0.195-0.512,0-0.707s-0.512-0.195-0.707,0L8,8.793V0.5C8,0.224,7.776,0,7.5,0S7,0.224,7,0.5v8.293L3.717,5.51
		c-0.195-0.195-0.512-0.195-0.707,0s-0.195,0.512,0,0.707L7.146,10.353z"/>
</g>
<g id="Layer_1">
</g>
</svg>
