<?xml version="1.0" encoding="iso-8859-1"?>
<!-- Generator: Adobe Illustrator 19.2.1, SVG Export Plug-In . SVG Version: 6.00 Build 0)  -->
<svg version="1.1" xmlns="http://www.w3.org/2000/svg" xmlns:xlink="http://www.w3.org/1999/xlink" x="0px" y="0px"
	 viewBox="0 0 24 24" style="enable-background:new 0 0 24 24;" xml:space="preserve">
<g id="droplet-alt">
	<rect id="bounding_39_" transform="matrix(-1 -1.224647e-16 1.224647e-16 -1 24 24)" style="fill:none;" width="24" height="24"/>
	<path style="fill:#262626;" d="M12,2c3.86,0,7,3.374,7,7.521c0,4.008-6.34,11.955-6.61,12.292c-0.19,0.236-0.59,0.236-0.78,0
		C11.34,21.477,5,13.529,5,9.521C5,5.374,8.14,2,12,2z M12,20.687c1.388-1.805,6-8.042,6-11.166C18,5.926,15.309,3,12,3
		S6,5.926,6,9.521C6,12.646,10.612,18.881,12,20.687z"/>
</g>
<g id="Layer_1">
</g>
</svg>
