<?xml version="1.0" encoding="iso-8859-1"?>
<!-- Generator: Adobe Illustrator 19.2.1, SVG Export Plug-In . SVG Version: 6.00 Build 0)  -->
<svg version="1.1" xmlns="http://www.w3.org/2000/svg" xmlns:xlink="http://www.w3.org/1999/xlink" x="0px" y="0px"
	 viewBox="0 0 24 24" style="enable-background:new 0 0 24 24;" xml:space="preserve">
<g id="droplet">
	<rect id="bounding_46_" style="fill:none;" width="24" height="24"/>
	<path style="fill:#262626;" d="M12,22c-3.86,0-7-3.374-7-7.521c0-4.008,6.34-11.955,6.61-12.292c0.19-0.236,0.59-0.236,0.78,0
		C12.66,2.523,19,10.471,19,14.479C19,18.626,15.86,22,12,22z M12,3.313c-1.388,1.805-6,8.042-6,11.166C6,18.074,8.691,21,12,21
		s6-2.926,6-6.521C18,11.354,13.388,5.119,12,3.313z"/>
</g>
<g id="Layer_1">
</g>
</svg>
