<?xml version="1.0" encoding="iso-8859-1"?>
<!-- Generator: Adobe Illustrator 19.2.1, SVG Export Plug-In . SVG Version: 6.00 Build 0)  -->
<svg version="1.1" xmlns="http://www.w3.org/2000/svg" xmlns:xlink="http://www.w3.org/1999/xlink" x="0px" y="0px"
	 viewBox="0 0 14 14" style="enable-background:new 0 0 14 14;" xml:space="preserve">
<g id="exit-left-14">
	<rect id="bounding_157_" style="fill:none;" width="14" height="14"/>
	<path style="fill:#262626;" d="M14,0.5v13c0,0.276-0.224,0.5-0.5,0.5h-8C5.224,14,5,13.776,5,13.5v-1C5,12.224,5.224,12,5.5,12
		S6,12.224,6,12.5V13h7V1H6v1.5C6,2.776,5.776,3,5.5,3S5,2.776,5,2.5v-2C5,0.224,5.224,0,5.5,0h8C13.776,0,14,0.224,14,0.5z
		 M3.043,8.002H7c0.276,0,0.5-0.224,0.5-0.5s-0.224-0.5-0.5-0.5H3.039l1.352-1.69c0.172-0.216,0.138-0.53-0.078-0.703
		c-0.216-0.171-0.53-0.137-0.703,0.078l-2,2.5c-0.008,0.01-0.005,0.023-0.012,0.034c-0.056,0.08-0.096,0.172-0.097,0.277l0,0.002
		l0,0.002c0,0.109,0.042,0.205,0.101,0.287c0.005,0.007,0.003,0.017,0.008,0.023l2,2.5C3.708,10.436,3.854,10.5,4,10.5
		c0.109,0,0.22-0.036,0.312-0.109c0.216-0.173,0.25-0.487,0.078-0.703L3.043,8.002z"/>
</g>
<g id="Layer_1">
</g>
</svg>
