<?xml version="1.0" encoding="iso-8859-1"?>
<!-- Generator: Adobe Illustrator 19.2.1, SVG Export Plug-In . SVG Version: 6.00 Build 0)  -->
<svg version="1.1" xmlns="http://www.w3.org/2000/svg" xmlns:xlink="http://www.w3.org/1999/xlink" x="0px" y="0px"
	 viewBox="0 0 24 24" style="enable-background:new 0 0 24 24;" xml:space="preserve">
<g id="exit-right">
	<rect id="bounding_35_" y="0" style="fill:none;" width="24" height="24"/>
	<path style="fill:#262626;" d="M14,16v4.5c0,0.276-0.224,0.5-0.5,0.5h-11C2.224,21,2,20.776,2,20.5v-17C2,3.224,2.224,3,2.5,3h11
		C13.776,3,14,3.224,14,3.5V7c0,0.276-0.224,0.5-0.5,0.5S13,7.276,13,7V4H3v16h10v-4c0-0.276,0.224-0.5,0.5-0.5S14,15.724,14,16z
		 M21.962,11.691c0.051-0.122,0.051-0.26,0-0.382c-0.025-0.062-0.062-0.117-0.109-0.163l-4.499-4.499
		c-0.195-0.195-0.512-0.195-0.707,0s-0.195,0.512,0,0.707L20.293,11H7c-0.276,0-0.5,0.224-0.5,0.5S6.724,12,7,12h13.293
		l-3.646,3.646c-0.195,0.195-0.195,0.512,0,0.707C16.744,16.451,16.872,16.5,17,16.5s0.256-0.049,0.354-0.146l4.499-4.499
		C21.899,11.808,21.936,11.752,21.962,11.691z"/>
</g>
<g id="Layer_1">
</g>
</svg>
