<?xml version="1.0" encoding="iso-8859-1"?>
<!-- Generator: Adobe Illustrator 19.2.1, SVG Export Plug-In . SVG Version: 6.00 Build 0)  -->
<svg version="1.1" xmlns="http://www.w3.org/2000/svg" xmlns:xlink="http://www.w3.org/1999/xlink" x="0px" y="0px"
	 viewBox="0 0 12 12" style="enable-background:new 0 0 12 12;" xml:space="preserve">
<g id="external-link">
	<rect id="bounding_166_" style="fill:none;" width="12" height="12"/>
	<path d="M10,8.605v1.736C10,11.256,9.256,12,8.342,12H1.658C0.744,12,0,11.256,0,10.342V3.658C0,2.744,0.744,2,1.658,2h1.736
		c0.276,0,0.5,0.224,0.5,0.5S3.671,3,3.395,3H1.658C1.295,3,1,3.295,1,3.658v6.684C1,10.705,1.295,11,1.658,11h6.684
		C8.705,11,9,10.705,9,10.342V8.605c0-0.276,0.224-0.5,0.5-0.5S10,8.329,10,8.605z M11.962,0.309
		c-0.051-0.122-0.148-0.22-0.271-0.271C11.63,0.013,11.565,0,11.5,0H6.289c-0.276,0-0.5,0.224-0.5,0.5S6.013,1,6.289,1h4.004
		L5.646,5.646c-0.195,0.195-0.195,0.512,0,0.707C5.744,6.451,5.872,6.5,6,6.5s0.256-0.049,0.354-0.146L11,1.707v4.004
		c0,0.276,0.224,0.5,0.5,0.5s0.5-0.224,0.5-0.5V0.5C12,0.435,11.987,0.37,11.962,0.309z"/>
</g>
<g id="Layer_1">
</g>
</svg>
