<?xml version="1.0" encoding="iso-8859-1"?>
<!-- Generator: Adobe Illustrator 19.2.1, SVG Export Plug-In . SVG Version: 6.00 Build 0)  -->
<svg version="1.1" xmlns="http://www.w3.org/2000/svg" xmlns:xlink="http://www.w3.org/1999/xlink" x="0px" y="0px"
	 viewBox="0 0 24 24" style="enable-background:new 0 0 24 24;" xml:space="preserve">
<g id="forward">
	<rect id="bounding_127_" style="fill:none;" width="24" height="24"/>
	<path style="fill:#262626;" d="M1.975,12c0-5.514,4.486-10,10-10c5.515,0,10,4.486,10,10s-4.485,10-10,10
		C6.461,22,1.975,17.514,1.975,12z M2.975,12c0,4.963,4.038,9,9,9c4.963,0,9-4.037,9-9s-4.037-9-9-9C7.013,3,2.975,7.037,2.975,12z
		 M8.5,7.782c0.098,0,0.193,0.028,0.277,0.084l2.939,1.96V8.282c0-0.193,0.111-0.369,0.286-0.452
		c0.174-0.082,0.382-0.058,0.53,0.065l4.544,3.718c0.116,0.095,0.184,0.236,0.184,0.387s-0.067,0.292-0.184,0.387l-4.544,3.718
		c-0.148,0.124-0.356,0.148-0.53,0.065c-0.175-0.083-0.286-0.259-0.286-0.452v-1.544l-2.939,1.96
		c-0.153,0.102-0.352,0.112-0.514,0.024C8.102,16.071,8,15.902,8,15.718V8.282c0-0.184,0.102-0.353,0.264-0.44
		C8.338,7.802,8.419,7.782,8.5,7.782z"/>
</g>
<g id="Layer_1">
</g>
</svg>
