<?xml version="1.0" encoding="iso-8859-1"?>
<!-- Generator: Adobe Illustrator 19.2.1, SVG Export Plug-In . SVG Version: 6.00 Build 0)  -->
<svg version="1.1" xmlns="http://www.w3.org/2000/svg" xmlns:xlink="http://www.w3.org/1999/xlink" x="0px" y="0px"
	 viewBox="0 0 14 14" style="enable-background:new 0 0 14 14;" xml:space="preserve">
<g id="globe-14">
	<rect id="bounding_144_" y="0" style="fill:none;" width="14" height="14"/>
	<path style="fill-rule:evenodd;clip-rule:evenodd;fill:#262626;" d="M7,0C3.134,0,0,3.134,0,7c0,3.866,3.134,7,7,7
		c3.866,0,7-3.134,7-7C14,3.134,10.866,0,7,0z M7,12.923c-1.709,0-3.244-0.728-4.325-1.886c0.224-0.067,0.446-0.199,0.399-0.47
		C2.984,10.05,3.298,9.67,3.095,9.422C2.894,9.175,2.669,8.996,2.602,8.39s-0.471-0.471-0.65-0.313
		C1.786,8.222,1.296,8.269,1.218,8.275C1.127,7.864,1.077,7.438,1.077,7c0-2.461,1.506-4.562,3.642-5.456
		c0.009,0.093,0.024,0.198,0.047,0.315C5.078,2.797,6.24,1.596,6.282,1.593c0.131,0.051-0.285,0.713-1.156,1.021
		c-1.077,0.381-1.234-0.045-1.66,0.65c-0.427,0.696,0.852,0.764,1.48,0.18c0,0,0.359-0.179,0.718,0.067
		c0.359,0.247,0.719,0.493,0.854,0.112s1.471-1.494,1.628-1.225c0.156,0.27,0.382,0.247-0.157,0.359
		C7.451,2.869,7.876,3.161,8.168,3.251c0.053,0.016,0.116,0.06,0.178,0.101C8.072,4.07,6.975,4.546,6.452,4.735
		C6.257,4.68,6.088,4.596,5.903,4.44C5.476,4.081,3.972,4.799,3.972,4.799C2.671,5.876,3.367,6.773,3.479,7.11
		c0.113,0.337,1.66,0.292,2.198,0.539C6.216,7.896,6.261,9.13,6.194,9.871c-0.067,0.741,0.224,1.391,0.74,1.615
		c0.517,0.226,1.077-0.875,1.324-1.1C8.505,10.16,9.042,9.982,9.042,9.13c0-0.852,0.226-1.189,0.786-1.638
		c0.354-0.283,0.296-0.477,0.087-0.592C9.684,6.616,8.808,5.525,9.188,5.749c0.531,0.312,1.293,1.435,1.344,0.75
		c0.027-0.37,0.186-0.618,0.354-0.786c0.164,0.092,0.656,0.433,0.849-0.015c0.125-0.291,0.479-0.674,0.754-0.921
		c0.279,0.687,0.436,1.436,0.436,2.222C12.923,10.271,10.271,12.923,7,12.923z"/>
</g>
<g id="Layer_1">
</g>
</svg>
