<?xml version="1.0" encoding="iso-8859-1"?>
<!-- Generator: Adobe Illustrator 19.2.1, SVG Export Plug-In . SVG Version: 6.00 Build 0)  -->
<svg version="1.1" xmlns="http://www.w3.org/2000/svg" xmlns:xlink="http://www.w3.org/1999/xlink" x="0px" y="0px"
	 viewBox="0 0 24 24" style="enable-background:new 0 0 24 24;" xml:space="preserve">
<g id="hand-docs">
	<rect id="bounding_11_" style="fill:none;" width="24" height="24"/>
	<path style="fill:#262626;" d="M13.114,18.15h-1.41c-0.494-0.456-1.517-1.393-3.398-1.393H6v-0.259c0-0.276-0.224-0.5-0.5-0.5
		H2.503c-0.276,0-0.5,0.224-0.5,0.5v5c0,0.276,0.224,0.5,0.5,0.5H5.5c0.276,0,0.5-0.224,0.5-0.5V21.24h13.126
		c0.276,0,0.5-0.224,0.5-0.5C19.626,19.141,16.246,18.15,13.114,18.15z M5,20.999H3.003v-4H5V20.999z M6,20.24v-2.482h2.306
		c0.72,0,1.274,0.172,1.709,0.393H7.504c-0.276,0-0.5,0.224-0.5,0.5c0,0.276,0.224,0.5,0.5,0.5h5.61c2.444,0,4.24,0.587,5.044,1.09
		H6z M21.872,5.464l-3.62-3.333c-0.093-0.085-0.214-0.132-0.339-0.132H11.5c-0.276,0-0.5,0.224-0.5,0.5v1.406
		c0,0.033,0.013,0.062,0.019,0.094H7.5c-0.276,0-0.5,0.224-0.5,0.5v9c0,0.276,0.224,0.5,0.5,0.5c0.276,0,0.5-0.224,0.5-0.5v-8.5h4
		v2.5c0,0.276,0.224,0.5,0.5,0.5H16v7H9.5c-0.276,0-0.5,0.224-0.5,0.5s0.224,0.5,0.5,0.5h7c0.276,0,0.5-0.224,0.5-0.5v-0.525
		c0.041,0.011,0.081,0.025,0.126,0.025h4.407c0.276,0,0.5-0.224,0.5-0.5V5.832C22.033,5.692,21.975,5.559,21.872,5.464z
		 M19.89,4.999H18v-1.74L19.89,4.999z M13,5.276l1.927,1.723H13V5.276z M21.033,13.999h-3.907c-0.045,0-0.085,0.015-0.126,0.025
		v-6.29c0-0.143-0.061-0.278-0.167-0.373l-3.62-3.235c-0.092-0.082-0.21-0.127-0.333-0.127h-0.898C11.987,3.968,12,3.938,12,3.905
		V2.999h5v2.5c0,0.276,0.224,0.5,0.5,0.5h3.476l0.058,0.053V13.999z"/>
</g>
<g id="Layer_1">
</g>
</svg>
