<?xml version="1.0" encoding="iso-8859-1"?>
<!-- Generator: Adobe Illustrator 19.2.1, SVG Export Plug-In . SVG Version: 6.00 Build 0)  -->
<svg version="1.1" xmlns="http://www.w3.org/2000/svg" xmlns:xlink="http://www.w3.org/1999/xlink" x="0px" y="0px"
	 viewBox="0 0 24 24" style="enable-background:new 0 0 24 24;" xml:space="preserve">
<g id="hand-point">
	<rect id="bounding_33_" style="fill:none;" width="24" height="24"/>
	<path style="fill:#262626;" d="M20,11.5c0-1.103-0.897-2-2-2c-0.414,0-0.8,0.127-1.12,0.344C16.607,9.064,15.872,8.5,15,8.5
		c-0.414,0-0.8,0.127-1.12,0.344C13.607,8.064,12.872,7.5,12,7.5c-0.366,0-0.705,0.106-1,0.278V4c0-1.103-0.897-2-2-2S7,2.897,7,4
		v8.65l-1.832-2.133c-0.67-0.571-1.684-0.533-2.309,0.089c-0.586,0.587-0.664,1.504-0.223,2.12c0.131,0.258,3.227,6.343,4.941,9.041
		C7.669,21.912,7.829,22,8,22h8.5c0.182,0,0.347-0.099,0.435-0.252l0.066-0.103c1.34-2.052,2.948-4.779,2.999-6.127
		c0-0.004-0.002-0.007-0.002-0.01c0-0.003,0.002-0.005,0.002-0.008V11.5z M16.228,21H8.276c-1.718-2.771-4.718-8.667-4.785-8.789
		c-0.197-0.278-0.165-0.656,0.076-0.897c0.257-0.255,0.676-0.273,0.897-0.091l2.656,3.102c0.136,0.159,0.357,0.217,0.553,0.144
		C7.87,14.396,8,14.209,8,14V4c0-0.551,0.449-1,1-1s1,0.449,1,1v7c0,0.276,0.224,0.5,0.5,0.5S11,11.276,11,11V9.5
		c0-0.551,0.449-1,1-1c0.552,0,1,0.449,1,1V11c0,0.276,0.224,0.5,0.5,0.5S14,11.276,14,11v-0.5c0-0.551,0.448-1,1-1s1,0.449,1,1v2
		c0,0.276,0.224,0.5,0.5,0.5s0.5-0.224,0.5-0.5v-1c0-0.551,0.448-1,1-1s1,0.449,1,1v3.981C18.969,16.318,17.935,18.377,16.228,21z"
		/>
</g>
<g id="Layer_1">
</g>
</svg>
