<?xml version="1.0" encoding="iso-8859-1"?>
<!-- Generator: Adobe Illustrator 19.2.1, SVG Export Plug-In . SVG Version: 6.00 Build 0)  -->
<svg version="1.1" xmlns="http://www.w3.org/2000/svg" xmlns:xlink="http://www.w3.org/1999/xlink" x="0px" y="0px"
	 viewBox="0 0 24 24" style="enable-background:new 0 0 24 24;" xml:space="preserve">
<g id="hand">
	<rect id="bounding_73_" style="fill:none;" width="24" height="24"/>
	<path style="fill:#262626;" d="M18,7c-0.366,0-0.705,0.106-1,0.278V6c0-1.103-0.897-2-2-2c-0.366,0-0.705,0.106-1,0.278V4
		c0-1.103-0.897-2-2-2c-1.103,0-2,0.897-2,2v0.278C9.705,4.106,9.366,4,9,4C7.897,4,7,4.897,7,6v8.311l-1.831-1.792
		c-0.671-0.574-1.685-0.534-2.309,0.088c-0.586,0.588-0.664,1.505-0.184,2.185c0.108,0.15,2.649,3.697,3.878,5.204
		C7.912,21.659,9.379,22,11.165,22H14.5c3.187,0,5.5-2.103,5.5-5v-2v-2.5V9C20,7.897,19.103,7,18,7z M19,17c0,2.355-1.851,4-4.5,4
		h-3.335c-1.583,0-2.719-0.268-3.836-1.638c-1.209-1.481-3.813-5.117-3.838-5.151c-0.197-0.278-0.165-0.656,0.076-0.897
		c0.256-0.256,0.676-0.271,0.927-0.058l2.656,2.602c0.145,0.141,0.359,0.183,0.544,0.104C7.879,15.883,8,15.701,8,15.5V6
		c0-0.551,0.449-1,1-1s1,0.449,1,1v6c0,0.276,0.224,0.5,0.5,0.5S11,12.276,11,12V4c0-0.551,0.449-1,1-1c0.552,0,1,0.449,1,1v8
		c0,0.276,0.224,0.5,0.5,0.5S14,12.276,14,12V6c0-0.551,0.448-1,1-1s1,0.449,1,1v7.5c0,0.276,0.224,0.5,0.5,0.5s0.5-0.224,0.5-0.5V9
		c0-0.551,0.448-1,1-1s1,0.449,1,1V17z"/>
</g>
<g id="Layer_1">
</g>
</svg>
