<?xml version="1.0" encoding="iso-8859-1"?>
<!-- Generator: Adobe Illustrator 19.2.1, SVG Export Plug-In . SVG Version: 6.00 Build 0)  -->
<svg version="1.1" xmlns="http://www.w3.org/2000/svg" xmlns:xlink="http://www.w3.org/1999/xlink" x="0px" y="0px"
	 viewBox="0 0 24 24" style="enable-background:new 0 0 24 24;" xml:space="preserve">
<g id="leaf">
	<rect id="bounding" y="0" style="fill:none;" width="24" height="24"/>
	<path style="fill:#262626;" d="M21.854,2.139c-0.106-0.108-0.259-0.162-0.408-0.144C20.817,2.064,6.022,3.767,2.668,10.891
		c-1.186,2.52-0.775,5.393,1.188,8.538l-1.204,1.204c-0.195,0.195-0.195,0.512,0,0.707c0.098,0.098,0.226,0.146,0.354,0.146
		s0.256-0.049,0.354-0.146l1.199-1.199c1.965,1.227,3.824,1.85,5.556,1.85c1.042,0,2.039-0.223,2.986-0.669
		c7.125-3.354,8.827-18.146,8.896-18.774C22.014,2.396,21.961,2.246,21.854,2.139z M12.675,20.417
		c-2.142,1.007-4.626,0.656-7.384-1.008l1.416-1.416H11c0.276,0,0.5-0.224,0.5-0.5s-0.224-0.5-0.5-0.5H7.707l3.013-3h3.293
		c0.276,0,0.5-0.224,0.5-0.5s-0.224-0.5-0.5-0.5H11.72l2.987-3H16c0.276,0,0.5-0.224,0.5-0.5s-0.224-0.5-0.5-0.5h-1v-1
		c0-0.276-0.224-0.5-0.5-0.5S14,7.716,14,7.992v1.293l-3,2.987V9.979c0-0.276-0.224-0.5-0.5-0.5S10,9.703,10,9.979v3.293l-3,3.013
		v-3.293c0-0.276-0.224-0.5-0.5-0.5S6,12.716,6,12.992v4.293l-1.417,1.417c-1.667-2.759-2.018-5.244-1.01-7.385
		C6.315,5.491,18.048,3.481,20.92,3.073C20.512,5.943,18.505,17.672,12.675,20.417z"/>
</g>
<g id="Layer_1">
</g>
</svg>
