<?xml version="1.0" encoding="iso-8859-1"?>
<!-- Generator: Adobe Illustrator 19.2.1, SVG Export Plug-In . SVG Version: 6.00 Build 0)  -->
<svg version="1.1" xmlns="http://www.w3.org/2000/svg" xmlns:xlink="http://www.w3.org/1999/xlink" x="0px" y="0px"
	 viewBox="0 0 24 24" style="enable-background:new 0 0 24 24;" xml:space="preserve">
<g id="letter">
	<rect id="bounding_93_" style="fill:none;" width="24" height="24"/>
	<path d="M20,5H4C2.897,5,2,5.897,2,7v10c0,1.103,0.897,2,2,2h16c1.103,0,2-0.897,2-2V7C22,5.897,21.103,5,20,5z M20,6
		c0.062,0,0.115,0.024,0.174,0.035l-7.856,6.45c-0.185,0.151-0.452,0.151-0.635,0L3.826,6.035C3.885,6.024,3.938,6,4,6H20z M21,17
		c0,0.552-0.448,1-1,1H4c-0.551,0-1-0.448-1-1V7c0-0.106,0.03-0.204,0.061-0.3l7.988,6.558c0.275,0.226,0.614,0.339,0.952,0.339
		s0.676-0.113,0.952-0.339L20.939,6.7C20.97,6.796,21,6.894,21,7V17z"/>
</g>
<g id="Layer_1">
</g>
</svg>
