<?xml version="1.0" encoding="iso-8859-1"?>
<!-- Generator: Adobe Illustrator 19.2.1, SVG Export Plug-In . SVG Version: 6.00 Build 0)  -->
<svg version="1.1" xmlns="http://www.w3.org/2000/svg" xmlns:xlink="http://www.w3.org/1999/xlink" x="0px" y="0px"
	 viewBox="0 0 14 14" style="enable-background:new 0 0 14 14;" xml:space="preserve">
<g id="lock-14">
	<rect id="bounding_143_" style="fill:none;" width="14" height="14"/>
	<path style="fill:#262626;" d="M8,9.5v2C8,11.776,7.776,12,7.5,12h-1C6.224,12,6,11.776,6,11.5v-2C6,9.224,6.224,9,6.5,9h1
		C7.776,9,8,9.224,8,9.5z M12,6.5v7c0,0.276-0.224,0.5-0.5,0.5h-9C2.224,14,2,13.776,2,13.5v-7C2,6.224,2.224,6,2.5,6H3V4
		c0-2.206,1.794-4,4-4s4,1.794,4,4v2h0.5C11.776,6,12,6.224,12,6.5z M4,6h6V4c0-1.654-1.346-3-3-3S4,2.346,4,4V6z M11,7H3v6h8V7z"/>
</g>
<g id="Layer_1">
</g>
</svg>
