<?xml version="1.0" encoding="iso-8859-1"?>
<!-- Generator: Adobe Illustrator 19.2.1, SVG Export Plug-In . SVG Version: 6.00 Build 0)  -->
<svg version="1.1" xmlns="http://www.w3.org/2000/svg" xmlns:xlink="http://www.w3.org/1999/xlink" x="0px" y="0px"
	 viewBox="0 0 24 24.008" style="enable-background:new 0 0 24 24.008;" xml:space="preserve">
<g id="lock-tick">
	<rect id="bounding_29_" y="0" style="fill:none;" width="24" height="24"/>
	<path style="fill:#262626;" d="M9,17.5v-1.587c-0.576-0.211-0.99-0.767-0.99-1.413c0-0.823,0.667-1.49,1.49-1.49
		c0.823,0,1.49,0.667,1.49,1.49c0,0.646-0.414,1.202-0.99,1.413V17.5c0,0.276-0.202,0.5-0.479,0.5C9.245,18,9,17.776,9,17.5z
		 M11.5,21.5c0,0.276-0.224,0.5-0.5,0.5H2V9h2V7.044C4,4.263,6.468,2,9.5,2C12.532,2,15,4.263,15,7.044V9h2v2
		c0,0.276-0.224,0.5-0.5,0.5S16,11.276,16,11v-1H3v11h8C11.276,21,11.5,21.224,11.5,21.5z M5,9h9V7.044C14,4.815,11.981,3,9.5,3
		C7.019,3,5,4.815,5,7.044V9z M24,18.509c0,3.032-2.467,5.499-5.499,5.499c-3.033,0-5.501-2.467-5.501-5.499
		c0-3.033,2.468-5.501,5.501-5.501C21.533,13.008,24,15.476,24,18.509z M23,18.509c0-2.482-2.019-4.501-4.499-4.501
		c-2.482,0-4.501,2.019-4.501,4.501c0,2.48,2.019,4.499,4.501,4.499C20.981,23.008,23,20.989,23,18.509z M20.724,16.06
		c-0.247-0.123-0.546-0.022-0.671,0.224l-1.689,3.378l-1.501-1.507c-0.195-0.197-0.512-0.195-0.707-0.002
		c-0.196,0.195-0.196,0.512-0.002,0.707l1.992,2c0.095,0.096,0.223,0.147,0.355,0.147c0.026,0,0.053-0.002,0.08-0.007
		c0.158-0.025,0.295-0.126,0.367-0.27l2-4C21.07,16.484,20.971,16.185,20.724,16.06z"/>
</g>
<g id="Layer_1">
</g>
</svg>
