<?xml version="1.0" encoding="iso-8859-1"?>
<!-- Generator: Adobe Illustrator 19.2.1, SVG Export Plug-In . SVG Version: 6.00 Build 0)  -->
<svg version="1.1" xmlns="http://www.w3.org/2000/svg" xmlns:xlink="http://www.w3.org/1999/xlink" x="0px" y="0px"
	 viewBox="0 0 24 24" style="enable-background:new 0 0 24 24;" xml:space="preserve">
<g id="logo-twitter">
	<rect id="bounding_109_" style="fill:none;" width="24" height="24"/>
	<path style="fill:#262626;" d="M20.882,6.983c0.009,0.195,0.012,0.39,0.012,0.588c0,6.005-4.57,12.929-12.928,12.929
		c-2.567,0-4.954-0.752-6.966-2.041c2.372,0.278,4.783-0.357,6.728-1.881c-1.988-0.037-3.666-1.351-4.245-3.155
		c0.685,0.13,1.387,0.102,2.053-0.079C3.456,12.926,1.89,11.09,1.89,8.888c0-0.02,0-0.038,0.001-0.057
		c0.612,0.34,1.312,0.544,2.057,0.568C2.73,8.584,1.927,7.194,1.927,5.617c0-0.833,0.224-1.614,0.615-2.285
		c2.241,2.75,5.59,4.559,9.366,4.748c-0.077-0.333-0.117-0.68-0.117-1.036c0-2.508,2.034-4.544,4.544-4.544
		c1.307,0,2.488,0.553,3.316,1.435c1.035-0.204,2.008-0.583,2.886-1.104c-0.339,1.062-0.382,1.457-1.32,2.019
		c0.727,0.359,1.413,0.347,2.227-0.016C22.835,5.746,21.769,6.343,20.882,6.983z"/>
</g>
<g id="Layer_1">
</g>
</svg>
