<?xml version="1.0" encoding="iso-8859-1"?>
<!-- Generator: Adobe Illustrator 19.2.1, SVG Export Plug-In . SVG Version: 6.00 Build 0)  -->
<svg version="1.1" xmlns="http://www.w3.org/2000/svg" xmlns:xlink="http://www.w3.org/1999/xlink" x="0px" y="0px"
	 viewBox="0 0 24 24" style="enable-background:new 0 0 24 24;" xml:space="preserve">
<g id="logo-linkedin">
	<rect id="bounding_100_" style="fill:none;" width="24" height="24"/>
	<path style="fill:#262626;" d="M6.527,21.5h-5v-13h5V21.5z M4.018,6.5h-0.03C2.477,6.5,1.5,5.318,1.5,4.019
		c0-1.329,1.008-2.412,2.547-2.412c1.541,0,2.488,1.118,2.519,2.447C6.565,5.353,5.588,6.5,4.018,6.5z M15.527,12.5
		c-1.105,0-2,0.896-2,2v7h-5c0,0,0.059-12,0-13h5v1.485c0,0,1.548-1.443,3.938-1.443c2.962,0,5.062,2.144,5.062,6.304V21.5h-5v-7
		C17.527,13.396,16.632,12.5,15.527,12.5z"/>
</g>
<g id="Layer_1">
</g>
</svg>
