<?xml version="1.0" encoding="iso-8859-1"?>
<!-- Generator: Adobe Illustrator 19.2.1, SVG Export Plug-In . SVG Version: 6.00 Build 0)  -->
<svg version="1.1" xmlns="http://www.w3.org/2000/svg" xmlns:xlink="http://www.w3.org/1999/xlink" x="0px" y="0px"
	 viewBox="0 0 24 24" style="enable-background:new 0 0 24 24;" xml:space="preserve">
<g id="logo-googleplus">
	<rect id="bounding_107_" style="fill:none;" width="24" height="24"/>
	<path style="fill:#262626;" d="M15.962,11.453C15.987,11.715,16,11.981,16,12.25c0,3.988-2.036,8.25-7.75,8.25
		C3.701,20.5,0,16.799,0,12.25S3.701,4,8.25,4c2.077,0,4.062,0.775,5.589,2.182l0.398,0.367l-2.202,2.036L11.697,8.29
		C10.742,7.458,9.518,7,8.25,7C5.355,7,3,9.355,3,12.25c0,2.895,2.355,5.25,5.25,5.25c2.709,0,4.278-1.723,4.527-3.5H7.5v-3h8.419
		L15.962,11.453z M22,11V9h-3v2h-2v3h2v2h3v-2h2v-3H22z"/>
</g>
<g id="Layer_1">
</g>
</svg>
