<?xml version="1.0" encoding="iso-8859-1"?>
<!-- Generator: Adobe Illustrator 19.2.1, SVG Export Plug-In . SVG Version: 6.00 Build 0)  -->
<svg version="1.1" xmlns="http://www.w3.org/2000/svg" xmlns:xlink="http://www.w3.org/1999/xlink" x="0px" y="0px"
	 viewBox="0 0 24 24" style="enable-background:new 0 0 24 24;" xml:space="preserve">
<g id="logo-xing">
	<rect id="bounding_102_" style="fill:none;" width="24" height="24"/>
	<path style="fill:#262626;" d="M10.368,10.362l-3.658,6.002c-0.083,0.136-0.232,0.219-0.391,0.219H1.674
		c-0.166,0-0.319-0.09-0.399-0.234c-0.082-0.144-0.078-0.322,0.008-0.463l3.52-5.776L2.187,5.346
		C2.109,5.204,2.112,5.031,2.195,4.891c0.083-0.139,0.232-0.225,0.394-0.225h4.644c0.168,0,0.322,0.092,0.401,0.237l2.745,4.998
		C10.458,10.047,10.453,10.222,10.368,10.362z M22.948,1.228C22.865,1.087,22.714,1,22.551,1h-4.926
		c-0.165,0-0.316,0.088-0.398,0.231L9.908,14.049c-0.081,0.141-0.081,0.314,0,0.455l4.715,8.266C14.706,22.912,14.857,23,15.023,23
		h4.926c0.163,0,0.314-0.087,0.396-0.228c0.083-0.141,0.083-0.315,0.002-0.457l-4.586-8.038l7.188-12.591
		C23.03,1.544,23.03,1.369,22.948,1.228z"/>
</g>
<g id="Layer_1">
</g>
</svg>
