<?xml version="1.0" encoding="iso-8859-1"?>
<!-- Generator: Adobe Illustrator 19.2.1, SVG Export Plug-In . SVG Version: 6.00 Build 0)  -->
<svg version="1.1" xmlns="http://www.w3.org/2000/svg" xmlns:xlink="http://www.w3.org/1999/xlink" x="0px" y="0px"
	 viewBox="0 0 14 14" style="enable-background:new 0 0 14 14;" xml:space="preserve">
<g id="mappin-filled-14">
	<rect id="bounding_164_" style="fill:none;" width="14" height="14"/>
	<path style="fill:#262626;" d="M7,0C4.416,0,2.313,2.103,2.313,4.687c0,2.473,4.215,8.885,4.395,9.156C6.773,13.941,6.883,14,7,14
		c0.118,0,0.227-0.059,0.292-0.157c0.18-0.271,4.395-6.683,4.395-9.156C11.687,2.103,9.585,0,7,0z M7,7
		C5.85,7,4.915,6.058,4.915,4.901S5.85,2.802,7,2.802c1.149,0,2.084,0.942,2.084,2.099S8.149,7,7,7z"/>
</g>
<g id="Layer_1">
</g>
</svg>
