<?xml version="1.0" encoding="iso-8859-1"?>
<!-- Generator: Adobe Illustrator 19.2.1, SVG Export Plug-In . SVG Version: 6.00 Build 0)  -->
<svg version="1.1" xmlns="http://www.w3.org/2000/svg" xmlns:xlink="http://www.w3.org/1999/xlink" x="0px" y="0px"
	 viewBox="0 0 24 24" style="enable-background:new 0 0 24 24;" xml:space="preserve">
<g id="mappin-filled">
	<rect id="bounding_133_" style="fill:none;" width="24" height="24"/>
	<path style="fill:#262626;" d="M11.958,2C8.265,2,5.26,5.005,5.26,8.698c0,3.534,6.024,12.697,6.281,13.085
		c0.092,0.141,0.249,0.225,0.417,0.225c0.168,0,0.325-0.084,0.417-0.225c0.257-0.388,6.281-9.551,6.281-13.085
		C18.656,5.005,15.652,2,11.958,2z M11.958,12.004c-1.643,0-2.979-1.346-2.979-3s1.336-3,2.979-3c1.643,0,2.979,1.346,2.979,3
		S13.601,12.004,11.958,12.004z"/>
</g>
<g id="Layer_1">
</g>
</svg>
