<?xml version="1.0" encoding="iso-8859-1"?>
<!-- Generator: Adobe Illustrator 19.2.1, SVG Export Plug-In . SVG Version: 6.00 Build 0)  -->
<svg version="1.1" xmlns="http://www.w3.org/2000/svg" xmlns:xlink="http://www.w3.org/1999/xlink" x="0px" y="0px"
	 viewBox="0 0 14 14" style="enable-background:new 0 0 14 14;" xml:space="preserve">
<g id="medal-14">
	<rect id="bounding_156_" y="0" style="fill:none;" width="14" height="14"/>
	<path style="fill-rule:evenodd;clip-rule:evenodd;fill:#262626;" d="M12.978,0H10.25c-0.157,0-0.306,0.074-0.4,0.2L7,4L4.15,0.2
		C4.056,0.074,3.907,0,3.75,0H1.022c-0.416,0-0.65,0.479-0.395,0.807l3.315,4.262C2.539,6.163,1.715,7.968,2.091,9.961
		c0.367,1.941,1.91,3.53,3.844,3.929C9.163,14.555,12,12.11,12,9c0-1.604-0.769-3.016-1.943-3.931l3.315-4.262
		C13.628,0.479,13.394,0,12.978,0z M11,9c0,2.209-1.791,4-4,4s-4-1.791-4-4s1.791-4,4-4S11,6.791,11,9z M9.754,8.229L8.359,9.59
		l0.329,1.922l-1.725-0.908l-1.727,0.908L5.565,9.59L4.17,8.229l1.93-0.28L6.963,6.2l0.862,1.749L9.754,8.229z"/>
</g>
<g id="Layer_1">
</g>
</svg>
