<?xml version="1.0" encoding="iso-8859-1"?>
<!-- Generator: Adobe Illustrator 19.2.1, SVG Export Plug-In . SVG Version: 6.00 Build 0)  -->
<svg version="1.1" xmlns="http://www.w3.org/2000/svg" xmlns:xlink="http://www.w3.org/1999/xlink" x="0px" y="0px"
	 viewBox="0 0 24 24" style="enable-background:new 0 0 24 24;" xml:space="preserve">
<g id="medal">
	<rect id="bounding_22_" style="fill:none;" width="24" height="24"/>
	<path style="fill:#221E20;" d="M12.018,22c-3.584,0-6.5-2.916-6.5-6.5S8.434,9,12.018,9s6.5,2.916,6.5,6.5S15.602,22,12.018,22z
		 M12.018,10c-3.032,0-5.5,2.468-5.5,5.5s2.468,5.5,5.5,5.5s5.5-2.468,5.5-5.5S15.05,10,12.018,10z M10.778,14.468H8.3l2.065,1.651
		l-0.826,2.892l2.479-1.55l2.479,1.55l-0.826-2.892l2.064-1.651h-2.478l-1.239-2.479L10.778,14.468z M21.531,2.239
		C21.44,2.091,21.278,2,21.104,2h-2.065h-2.066c-0.191,0-0.366,0.109-0.45,0.281l-2.442,5.031c-0.12,0.249-0.017,0.548,0.231,0.669
		c0.07,0.034,0.146,0.05,0.219,0.05c0.186,0,0.363-0.104,0.45-0.281L17.287,3h1.752h1.249l-3.202,6.273
		c-0.126,0.246-0.028,0.547,0.218,0.673C17.377,9.982,17.454,10,17.531,10c0.182,0,0.357-0.1,0.445-0.273l3.573-7
		C21.629,2.572,21.622,2.388,21.531,2.239z M7.502,2.281C7.418,2.109,7.243,2,7.052,2h-4.13C2.748,2,2.586,2.091,2.495,2.239
		C2.404,2.388,2.398,2.572,2.477,2.727l3.573,7C6.138,9.9,6.313,10,6.495,10c0.077,0,0.154-0.018,0.228-0.055
		C6.969,9.819,7.066,9.519,6.94,9.272L3.738,3h3l2.307,4.75c0.087,0.178,0.265,0.281,0.45,0.281c0.073,0,0.149-0.016,0.219-0.05
		c0.248-0.121,0.352-0.42,0.231-0.669L7.502,2.281z"/>
</g>
<g id="Layer_1">
</g>
</svg>
