<?xml version="1.0" encoding="iso-8859-1"?>
<!-- Generator: Adobe Illustrator 19.2.1, SVG Export Plug-In . SVG Version: 6.00 Build 0)  -->
<svg version="1.1" xmlns="http://www.w3.org/2000/svg" xmlns:xlink="http://www.w3.org/1999/xlink" x="0px" y="0px"
	 viewBox="0 0 24 24" style="enable-background:new 0 0 24 24;" xml:space="preserve">
<g id="messages-filled">
	<rect id="bounding_75_" style="fill:none;" width="24" height="24"/>
	<path style="fill:#262626;" d="M3.052,5.25C3.336,5.096,3.655,5,4,5h16c0.345,0,0.664,0.096,0.948,0.25l-8.762,7.194
		c-0.107,0.089-0.263,0.089-0.372,0L3.052,5.25z M13.083,13.536c-0.313,0.258-0.698,0.387-1.083,0.387s-0.77-0.129-1.084-0.387
		L2.127,6.32C2.049,6.533,2,6.76,2,7v10c0,1.103,0.897,2,2,2h16c1.103,0,2-0.897,2-2V7c0-0.24-0.049-0.467-0.127-0.681
		L13.083,13.536z"/>
</g>
<g id="Layer_1">
</g>
</svg>
