<?xml version="1.0" encoding="iso-8859-1"?>
<!-- Generator: Adobe Illustrator 19.2.1, SVG Export Plug-In . SVG Version: 6.00 Build 0)  -->
<svg version="1.1" xmlns="http://www.w3.org/2000/svg" xmlns:xlink="http://www.w3.org/1999/xlink" x="0px" y="0px"
	 viewBox="0 0 24 24" style="enable-background:new 0 0 24 24;" xml:space="preserve">
<g id="movie">
	<rect id="bounding_43_" style="fill:none;" width="24" height="24"/>
	<path style="fill:#262626;" d="M21.5,9h-19C2.224,9,2,9.224,2,9.5v10C2,20.327,2.673,21,3.5,21h17c0.827,0,1.5-0.673,1.5-1.5v-10
		C22,9.224,21.776,9,21.5,9z M21,19.5c0,0.275-0.225,0.5-0.5,0.5h-17C3.224,20,3,19.775,3,19.5V10h18V19.5z M20.5,3h-17
		C2.673,3,2,3.673,2,4.5v3C2,7.776,2.224,8,2.5,8h19C21.776,8,22,7.776,22,7.5v-3C22,3.673,21.327,3,20.5,3z M13.785,7l3.272-3
		h3.235l-3,3H13.785z M8.786,7l3.273-3h3.519l-3.272,3H8.786z M3.745,7l3.312-3h3.522L7.305,7H3.745z M3.5,4h2.067L3,6.326V4.5
		C3,4.224,3.224,4,3.5,4z M18.707,7L21,4.707V7H18.707z M9.5,19c0.077,0,0.153-0.018,0.224-0.053l7-3.5
		C16.893,15.362,17,15.189,17,15s-0.107-0.362-0.276-0.447l-7-3.5c-0.155-0.077-0.339-0.069-0.486,0.022S9,11.327,9,11.5v7
		c0,0.173,0.09,0.334,0.237,0.426C9.317,18.975,9.409,19,9.5,19z M10,12.309L15.382,15L10,17.691V12.309z"/>
</g>
<g id="Layer_1">
</g>
</svg>
