<?xml version="1.0" encoding="iso-8859-1"?>
<!-- Generator: Adobe Illustrator 19.2.1, SVG Export Plug-In . SVG Version: 6.00 Build 0)  -->
<svg version="1.1" xmlns="http://www.w3.org/2000/svg" xmlns:xlink="http://www.w3.org/1999/xlink" x="0px" y="0px"
	 viewBox="0 0 24 24" style="enable-background:new 0 0 24 24;" xml:space="preserve">
<g id="openbook">
	<rect id="bounding_106_" style="fill:none;" width="24" height="24"/>
	<path d="M21.5,5H20V3.5C20,3.224,19.776,3,19.5,3h-4.909C13.43,3,12.523,3.539,12,4.466C11.477,3.539,10.57,3,9.409,3H4.5
		C4.224,3,4,3.224,4,3.5V5H2.5C2.224,5,2,5.224,2,5.5v13C2,18.776,2.224,19,2.5,19h5.182c1.462,0,2.523,1.052,2.523,2.5
		c0,0.276,0.224,0.5,0.5,0.5h2.591c0.276,0,0.5-0.224,0.5-0.5c0-1.448,1.061-2.5,2.522-2.5H21.5c0.276,0,0.5-0.224,0.5-0.5v-13
		C22,5.224,21.776,5,21.5,5z M14.591,4H19v12h-4.409c-0.897,0-1.588,0.185-2.091,0.547V6.591C12.5,5.983,12.651,4,14.591,4z M5,4
		h4.409c1.94,0,2.091,1.983,2.091,2.591v9.959C10.992,16.188,10.298,16,9.409,16H5V4z M21,18h-4.682c-1.837,0-3.26,1.259-3.49,3
		h-1.657c-0.229-1.741-1.653-3-3.49-3H3V6h1v10.5C4,16.776,4.224,17,4.5,17h4.909c1.534,0,2.104,0.518,2.104,1.909
		c0,0.276,0.224,0.5,0.5,0.5s0.5-0.224,0.5-0.5c0-1.392,0.562-1.909,2.077-1.909H19.5c0.276,0,0.5-0.224,0.5-0.5V6h1V18z"/>
</g>
<g id="Layer_1">
</g>
</svg>
