<?xml version="1.0" encoding="iso-8859-1"?>
<!-- Generator: Adobe Illustrator 19.2.1, SVG Export Plug-In . SVG Version: 6.00 Build 0)  -->
<svg version="1.1" xmlns="http://www.w3.org/2000/svg" xmlns:xlink="http://www.w3.org/1999/xlink" x="0px" y="0px"
	 viewBox="0 0 24 24" style="enable-background:new 0 0 24 24;" xml:space="preserve">
<g id="paperclip">
	<rect id="bounding_8_" style="fill:none;" width="24" height="24"/>
	<path style="fill:#262626;" d="M10.069,22c-1.123,0-2.104-0.384-2.843-1.111C6.436,20.11,6,19.006,6,17.781V7.455
		c0-3.161,2.314-5.456,5.5-5.456S17,4.294,17,7.455v7.044c0,0.276-0.224,0.5-0.5,0.5s-0.5-0.224-0.5-0.5V7.455
		c0-2.582-1.893-4.456-4.5-4.456S7,4.873,7,7.455v10.326c0,0.955,0.329,1.806,0.928,2.396c0.561,0.552,1.318,0.843,2.201,0.822
		c0.875-0.013,1.615-0.325,2.141-0.903c0.534-0.587,0.801-1.422,0.733-2.29L13,8.999c0.053-0.664-0.094-1.2-0.411-1.551
		c-0.263-0.29-0.632-0.441-1.098-0.449c-0.009,0-0.017,0-0.024,0c-0.453,0-0.767,0.227-0.95,0.419
		c-0.36,0.376-0.546,0.942-0.508,1.55L10,16.5c0,0.275-0.225,0.499-0.5,0.499H9.499C9.224,16.999,9,16.774,9,16.498l0.01-7.5
		C8.956,8.143,9.241,7.304,9.794,6.726c0.461-0.481,1.11-0.734,1.715-0.727c0.743,0.014,1.373,0.282,1.821,0.778
		c0.505,0.558,0.742,1.361,0.668,2.263L14,17.766c0.09,1.104-0.271,2.213-0.99,3.004c-0.706,0.775-1.724,1.213-2.865,1.229
		C10.119,21.999,10.094,22,10.069,22z"/>
</g>
<g id="Layer_1">
</g>
</svg>
