<?xml version="1.0" encoding="iso-8859-1"?>
<!-- Generator: Adobe Illustrator 19.2.1, SVG Export Plug-In . SVG Version: 6.00 Build 0)  -->
<svg version="1.1" xmlns="http://www.w3.org/2000/svg" xmlns:xlink="http://www.w3.org/1999/xlink" x="0px" y="0px"
	 viewBox="0 0 22 12" style="enable-background:new 0 0 22 12;" xml:space="preserve">
<g id="pdf-small">
	<rect id="bounding_27_" style="fill:none;" width="22" height="12"/>
	<path style="fill:#262626;" d="M20.5,0h-19C0.673,0,0,0.673,0,1.5v9C0,11.327,0.673,12,1.5,12h19c0.827,0,1.5-0.673,1.5-1.5v-9
		C22,0.673,21.327,0,20.5,0z M21,10.5c0,0.276-0.225,0.5-0.5,0.5h-19C1.225,11,1,10.776,1,10.5v-9C1,1.224,1.225,1,1.5,1h19
		C20.775,1,21,1.224,21,1.5V10.5z M18.5,3.501c0,0.276-0.224,0.5-0.5,0.5h-2V6h1.5C17.776,6,18,6.224,18,6.5S17.776,7,17.5,7H16
		v1.501c0,0.276-0.224,0.5-0.5,0.5S15,8.777,15,8.501v-5c0-0.276,0.224-0.5,0.5-0.5H18C18.276,3.001,18.5,3.225,18.5,3.501z
		 M10.938,3.001H9.5c-0.276,0-0.5,0.224-0.5,0.5V8.5C9,8.776,9.224,9,9.5,9h1.438C12.77,9,14,7.449,14,6
		C14,4.552,12.77,3.001,10.938,3.001z M10.938,8H10V4.001h0.938C12.172,4.001,13,5.035,13,6C13,6.966,12.172,8,10.938,8z M5.742,3
		H4.5C4.224,3,4,3.224,4,3.5v5C4,8.776,4.224,9,4.5,9S5,8.776,5,8.5V7.001h0.742c1.552,0,2.258-1.037,2.258-2
		C8,4.037,7.294,3,5.742,3z M5.742,6.001H5V4h0.742C6.909,4,7,4.766,7,5.001C7,5.235,6.909,6.001,5.742,6.001z"/>
</g>
<g id="Layer_1">
</g>
</svg>
