<?xml version="1.0" encoding="iso-8859-1"?>
<!-- Generator: Adobe Illustrator 19.2.1, SVG Export Plug-In . SVG Version: 6.00 Build 0)  -->
<svg version="1.1" xmlns="http://www.w3.org/2000/svg" xmlns:xlink="http://www.w3.org/1999/xlink" x="0px" y="0px"
	 viewBox="0 0 24 24" style="enable-background:new 0 0 24 24;" xml:space="preserve">
<g id="pencil-lock">
	<rect id="bounding_9_" style="fill:none;" width="24" height="24"/>
	<path style="fill:#262626;" d="M17.466,5.949L16.05,4.534c-0.714-0.717-1.876-0.719-2.588-0.008L3.306,14.684
		c-0.001,0.001-0.002,0.001-0.002,0.001c-0.002,0.002-0.002,0.003-0.002,0.003l-0.165,0.165c-0.066,0.066-0.112,0.149-0.134,0.241
		l-0.99,4.292c-0.039,0.168,0.012,0.344,0.134,0.466c0.095,0.095,0.223,0.146,0.354,0.146c0.037,0,0.075-0.004,0.112-0.013
		l4.293-0.99c0.092-0.022,0.175-0.067,0.241-0.134l0.164-0.164c0.001-0.001,0.002-0.001,0.003-0.002
		c0.001-0.001,0.001-0.002,0.002-0.003L17.473,8.536C18.183,7.824,18.18,6.664,17.466,5.949z M3.167,18.832l0.67-2.904l2.235,2.234
		L3.167,18.832z M6.959,17.636L4.363,15.04l6.684-6.684l2.589,2.603L6.959,17.636z M14.343,10.252l-2.59-2.602l0.962-0.961
		l2.596,2.596L14.343,10.252z M16.766,7.829l-0.748,0.748l-2.596-2.596l0.747-0.748c0.322-0.321,0.85-0.317,1.174,0.008l1.416,1.415
		C17.083,6.981,17.086,7.508,16.766,7.829z M21.5,14.902H21v-0.226c0-1.477-1.121-2.678-2.5-2.678c-1.379,0-2.5,1.201-2.5,2.678
		v0.226h-0.5c-0.276,0-0.5,0.224-0.5,0.5v4.097c0,0.276,0.224,0.5,0.5,0.5h6c0.276,0,0.5-0.224,0.5-0.5v-4.097
		C22,15.126,21.776,14.902,21.5,14.902z M17,14.677c0-0.925,0.673-1.678,1.5-1.678c0.827,0,1.5,0.753,1.5,1.678v0.226h-3V14.677z
		 M21,18.999h-5v-3.097h5V18.999z M18,17.768c-0.202-0.153-0.342-0.386-0.342-0.658c0-0.464,0.378-0.842,0.842-0.842
		c0.464,0,0.842,0.378,0.842,0.842c0,0.272-0.14,0.505-0.342,0.658v0.366c0,0.276-0.224,0.5-0.5,0.5c-0.276,0-0.5-0.224-0.5-0.5
		V17.768z"/>
</g>
<g id="Layer_1">
</g>
</svg>
