<?xml version="1.0" encoding="iso-8859-1"?>
<!-- Generator: Adobe Illustrator 19.2.1, SVG Export Plug-In . SVG Version: 6.00 Build 0)  -->
<svg version="1.1" xmlns="http://www.w3.org/2000/svg" xmlns:xlink="http://www.w3.org/1999/xlink" x="0px" y="0px"
	 viewBox="0 0 24 24" style="enable-background:new 0 0 24 24;" xml:space="preserve">
<g id="pencil">
	<rect id="bounding_24_" style="fill:none;" width="24" height="24"/>
	<path style="fill:#221E20;" d="M21.678,3.971l-1.648-1.648c-0.844-0.844-2.215-0.844-3.059,0L3.457,15.836
		c-0.064,0.064-0.11,0.145-0.132,0.233L2.015,21.38c-0.042,0.17,0.008,0.35,0.132,0.474C2.241,21.948,2.369,22,2.5,22
		c0.04,0,0.08-0.005,0.12-0.015l5.311-1.311c0.088-0.022,0.169-0.067,0.233-0.132L21.678,7.029
		C22.521,6.186,22.521,4.813,21.678,3.971z M18.75,8.543L15.457,5.25L16.5,4.207L19.793,7.5L18.75,8.543z M8.379,18.914
		l-3.293-3.293l9.664-9.664l3.293,3.293L8.379,18.914z M3.184,20.816l1.079-4.372l0.116-0.116l3.293,3.293l-0.116,0.116
		L3.184,20.816z M20.971,6.322L20.5,6.793L17.207,3.5l0.471-0.471c0.453-0.453,1.191-0.453,1.645,0l1.648,1.648
		C21.424,5.131,21.424,5.869,20.971,6.322z"/>
</g>
<g id="Layer_1">
</g>
</svg>
