<?xml version="1.0" encoding="iso-8859-1"?>
<!-- Generator: Adobe Illustrator 19.2.1, SVG Export Plug-In . SVG Version: 6.00 Build 0)  -->
<svg version="1.1" xmlns="http://www.w3.org/2000/svg" xmlns:xlink="http://www.w3.org/1999/xlink" x="0px" y="0px"
	 viewBox="0 0 14 14" style="enable-background:new 0 0 14 14;" xml:space="preserve">
<g id="person-filled-14">
	<path d="M14,12.487v1.144C14,13.835,13.826,14,13.611,14H0.389C0.174,14,0,13.835,0,13.632v-1.144c0-0.992,0.656-1.88,1.632-2.212
		l3.035-1.087V7.767c-0.93-0.791-1.535-2.038-1.535-3.443C3.132,1.94,4.867,0,7,0s3.868,1.94,3.868,4.324
		c0,1.405-0.605,2.652-1.535,3.443v1.422l3.041,1.089C13.344,10.607,14,11.496,14,12.487z"/>
	<rect id="bounding_161_" style="fill:none;" width="14" height="14"/>
</g>
<g id="Layer_1">
</g>
</svg>
