<?xml version="1.0" encoding="iso-8859-1"?>
<!-- Generator: Adobe Illustrator 19.2.1, SVG Export Plug-In . SVG Version: 6.00 Build 0)  -->
<svg version="1.1" xmlns="http://www.w3.org/2000/svg" xmlns:xlink="http://www.w3.org/1999/xlink" x="0px" y="0px"
	 viewBox="0 0 24 24" style="enable-background:new 0 0 24 24;" xml:space="preserve">
<g id="person-double">
	<rect id="bounding_18_" style="fill:none;" width="24" height="24"/>
	<path style="fill:#262626;" d="M15.098,15.308l-3.609-1.293v-1.449c1.174-0.944,1.947-2.532,1.947-4.33
		C13.436,5.349,11.44,3,8.988,3S4.541,5.349,4.541,8.236c0,1.798,0.773,3.386,1.947,4.33v1.449l-3.61,1.293
		c-1.13,0.405-1.89,1.492-1.89,2.704V19.5c0,0.276,0.224,0.5,0.5,0.5h15c0.276,0,0.5-0.224,0.5-0.5v-1.488
		C16.988,16.8,16.229,15.714,15.098,15.308z M8.988,4c1.657,0,3.043,1.445,3.372,3.363c-1.066,0.182-1.704-0.173-2.346-1.292
		C9.924,5.912,9.736,5.805,9.571,5.819c-0.183,0.004-0.35,0.107-0.434,0.269C8.795,6.746,7.591,7.344,6.609,7.344
		c-0.347,0-0.648-0.07-0.943-0.177C6.054,5.35,7.39,4,8.988,4z M5.541,8.236c0-0.014,0.003-0.028,0.003-0.042
		c0.336,0.098,0.685,0.151,1.065,0.151c1.064,0,2.229-0.487,2.935-1.17c0.635,0.838,1.381,1.237,2.324,1.237
		c0.176,0,0.367-0.029,0.558-0.057c-0.053,2.282-1.57,4.122-3.438,4.122C7.088,12.477,5.541,10.574,5.541,8.236z M15.988,19h-14
		v-0.988c0-0.791,0.493-1.5,1.228-1.763l3.941-1.412c0.198-0.071,0.331-0.26,0.331-0.471v-1.219c0.471,0.2,0.971,0.328,1.5,0.328
		s1.029-0.128,1.5-0.328v1.219c0,0.211,0.133,0.399,0.331,0.471l3.94,1.412c0.735,0.264,1.229,0.972,1.229,1.763V19z M22.988,18.012
		V19.5c0,0.276-0.224,0.5-0.5,0.5H19.02c-0.276,0-0.5-0.224-0.5-0.5s0.224-0.5,0.5-0.5h2.969v-0.988
		c0-0.791-0.493-1.499-1.229-1.763l-3.94-1.412c-0.198-0.071-0.331-0.26-0.331-0.471v-1.219c-0.471,0.2-0.971,0.328-1.5,0.328
		c-0.276,0-0.5-0.224-0.5-0.5s0.224-0.5,0.5-0.5c1.867,0,3.385-1.84,3.438-4.122c-0.19,0.028-0.381,0.057-0.558,0.057
		c-1.147,0-2.004-0.59-2.721-1.845c-0.138-0.24-0.055-0.545,0.186-0.682c0.235-0.138,0.544-0.056,0.682,0.186
		c0.641,1.12,1.28,1.474,2.346,1.292C18.032,5.445,16.645,4,14.988,4c-0.276,0-0.5-0.224-0.5-0.5s0.224-0.5,0.5-0.5
		c2.302,0,4.179,2.077,4.403,4.719c0.002,0.008,0.007,0.015,0.008,0.024c0.002,0.014-0.003,0.028-0.003,0.042
		c0.011,0.151,0.039,0.296,0.039,0.451c0,1.798-0.773,3.386-1.947,4.33v1.449l3.609,1.293C22.229,15.714,22.988,16.8,22.988,18.012z
		"/>
</g>
<g id="Layer_1">
</g>
</svg>
