<?xml version="1.0" encoding="iso-8859-1"?>
<!-- Generator: Adobe Illustrator 19.2.1, SVG Export Plug-In . SVG Version: 6.00 Build 0)  -->
<svg version="1.1" xmlns="http://www.w3.org/2000/svg" xmlns:xlink="http://www.w3.org/1999/xlink" x="0px" y="0px"
	 viewBox="0 0 24 24" style="enable-background:new 0 0 24 24;" xml:space="preserve">
<g id="person-help">
	<rect id="bounding_32_" y="0" style="fill:none;" width="24" height="24"/>
	<path style="fill:#262626;" d="M18.5,13c-3.032,0-5.5,2.468-5.5,5.5s2.468,5.5,5.5,5.5s5.5-2.468,5.5-5.5S21.532,13,18.5,13z
		 M18.5,23c-2.481,0-4.5-2.019-4.5-4.5s2.019-4.5,4.5-4.5s4.5,2.019,4.5,4.5S20.981,23,18.5,23z M18.994,21.494
		c0,0.274-0.222,0.494-0.494,0.494c-0.273,0-0.494-0.221-0.494-0.494c0-0.272,0.221-0.494,0.494-0.494
		C18.772,21,18.994,21.222,18.994,21.494z M20.5,17c0,0.931-0.639,1.714-1.5,1.937V20c0,0.276-0.224,0.5-0.5,0.5S18,20.276,18,20
		v-1.5c0-0.276,0.224-0.5,0.5-0.5c0.552,0,1-0.448,1-1s-0.448-1-1-1s-1,0.448-1,1c0,0.276-0.224,0.5-0.5,0.5s-0.5-0.224-0.5-0.5
		c0-1.103,0.897-2,2-2S20.5,15.897,20.5,17z M11.5,21H3v-1.659c0-0.933,0.591-1.771,1.481-2.089l4.199-1.618
		C8.873,15.56,9,15.374,9,15.167V13.44C9.638,13.796,10.346,14,11.095,14c0.674,0,1.317-0.163,1.905-0.455V14
		c0,0.276,0.224,0.5,0.5,0.5S14,14.276,14,14v-1c0-0.038-0.013-0.071-0.021-0.106c1.279-1.088,2.117-2.874,2.117-4.894
		c0-3.309-2.243-6-5-6c-2.757,0-5,2.691-5,6c0,1.906,0.747,3.603,1.905,4.703v2.121l-3.867,1.49C2.857,16.771,2,17.987,2,19.341
		V21.5C2,21.776,2.224,22,2.5,22h9c0.276,0,0.5-0.224,0.5-0.5S11.776,21,11.5,21z M11.095,3c1.93,0,3.545,1.717,3.919,3.993
		c-1.256,0.224-2.043-0.201-2.792-1.511c-0.09-0.158-0.248-0.246-0.443-0.252c-0.183,0.003-0.349,0.106-0.434,0.269
		c-0.403,0.773-1.816,1.478-2.964,1.478c-0.422,0-0.786-0.087-1.145-0.222C7.682,4.602,9.236,3,11.095,3z M7.095,8
		c0-0.073,0.015-0.142,0.017-0.214c0.4,0.124,0.814,0.19,1.268,0.19c1.233,0,2.585-0.578,3.374-1.376
		c0.723,0.986,1.575,1.454,2.655,1.454c0.216,0,0.449-0.032,0.685-0.07c0,0.005,0.001,0.011,0.001,0.016c0,2.757-1.795,5-4,5
		S7.095,10.757,7.095,8z"/>
</g>
<g id="Layer_1">
</g>
</svg>
