<?xml version="1.0" encoding="iso-8859-1"?>
<!-- Generator: Adobe Illustrator 19.2.1, SVG Export Plug-In . SVG Version: 6.00 Build 0)  -->
<svg version="1.1" xmlns="http://www.w3.org/2000/svg" xmlns:xlink="http://www.w3.org/1999/xlink" x="0px" y="0px"
	 viewBox="0 0 24 24" style="enable-background:new 0 0 24 24;" xml:space="preserve">
<g id="person">
	<rect id="bounding_78_" style="fill:none;" width="24" height="24"/>
	<path style="fill:#262626;" d="M18.91,15.948L15,14.47v-1.929c1.196-1.074,1.974-2.766,1.974-4.673C16.974,4.632,14.742,2,12,2
		S7.026,4.632,7.026,7.868c0,1.907,0.777,3.599,1.974,4.673v1.929l-3.902,1.475C3.843,16.395,3,17.601,3,18.947V20.5
		C3,20.776,3.224,21,3.5,21h17c0.276,0,0.5-0.224,0.5-0.5v-1.553C21,17.602,20.157,16.396,18.91,15.948z M12,3
		c1.931,0,3.54,1.696,3.897,3.935c-1.258,0.235-2.043-0.183-2.791-1.489c-0.091-0.159-0.262-0.262-0.443-0.252
		c-0.184,0.004-0.35,0.107-0.434,0.27c-0.397,0.764-1.791,1.459-2.925,1.459c-0.425,0-0.789-0.088-1.148-0.227
		C8.587,4.579,10.14,3,12,3z M8.026,7.868c0-0.047,0.01-0.09,0.011-0.136c0.399,0.125,0.812,0.192,1.266,0.192
		c1.22,0,2.554-0.57,3.335-1.359c0.716,0.973,1.56,1.435,2.63,1.435c0.221,0,0.459-0.032,0.7-0.071
		c-0.027,2.659-1.794,4.813-3.969,4.813C9.809,12.741,8.026,10.555,8.026,7.868z M20,20H4v-1.053c0-0.924,0.577-1.752,1.443-2.063
		l4.233-1.6C9.871,15.21,10,15.024,10,14.816v-1.575c0.613,0.319,1.288,0.5,2,0.5c0.712,0,1.387-0.181,2-0.5v1.575
		c0,0.208,0.129,0.394,0.323,0.468l4.241,1.603C19.423,17.195,20,18.022,20,18.947V20z"/>
</g>
<g id="Layer_1">
</g>
</svg>
