<?xml version="1.0" encoding="iso-8859-1"?>
<!-- Generator: Adobe Illustrator 19.2.1, SVG Export Plug-In . SVG Version: 6.00 Build 0)  -->
<svg version="1.1" xmlns="http://www.w3.org/2000/svg" xmlns:xlink="http://www.w3.org/1999/xlink" x="0px" y="0px"
	 viewBox="0 0 14 14" style="enable-background:new 0 0 14 14;" xml:space="preserve">
<g id="person-circle-filled-14">
	<rect id="bounding_176_" style="fill:none;" width="14" height="14"/>
	<path style="fill:#262626;" d="M7,0C3.141,0,0,3.14,0,7s3.141,7,7,7s7-3.14,7-7S10.859,0,7,0z M10.988,11.471
		c-0.174-0.283-0.418-0.51-0.718-0.63l-1.85-0.778V9.048c0.566-0.565,0.934-1.456,0.934-2.459C9.353,4.885,8.298,3.5,7,3.5
		S4.647,4.885,4.647,6.588c0,1.004,0.368,1.894,0.934,2.459v1.016L3.734,10.84c-0.302,0.12-0.547,0.348-0.721,0.631
		C1.781,10.371,1,8.777,1,7c0-3.309,2.691-6,6-6s6,2.691,6,6C13,8.777,12.219,10.371,10.988,11.471z"/>
</g>
<g id="Layer_1">
</g>
</svg>
