<?xml version="1.0" encoding="iso-8859-1"?>
<!-- Generator: Adobe Illustrator 19.2.1, SVG Export Plug-In . SVG Version: 6.00 Build 0)  -->
<svg version="1.1" xmlns="http://www.w3.org/2000/svg" xmlns:xlink="http://www.w3.org/1999/xlink" x="0px" y="0px"
	 viewBox="0 0 24 24" style="enable-background:new 0 0 24 24;" xml:space="preserve">
<g id="person-lock">
	<rect id="bounding_51_" style="fill:none;" width="24" height="24"/>
	<path style="fill:#262626;" d="M16.096,8c0-3.309-2.243-6-5-6c-2.757,0-5,2.691-5,6c0,1.906,0.747,3.603,1.905,4.703v2.12
		l-3.867,1.491C2.857,16.771,2,17.987,2,19.341V21.5C2,21.776,2.224,22,2.5,22h10c0.276,0,0.5-0.224,0.5-0.5S12.776,21,12.5,21H3
		v-1.659c0-0.933,0.591-1.771,1.481-2.09l4.199-1.619C8.873,15.559,9,15.373,9,15.167V13.44C9.638,13.796,10.346,14,11.095,14
		c0.674,0,1.317-0.163,1.905-0.455V15c0,0.276,0.224,0.5,0.5,0.5S14,15.276,14,15v-2c0-0.038-0.013-0.071-0.021-0.106
		C15.257,11.806,16.096,10.02,16.096,8z M11.095,3c1.93,0,3.545,1.717,3.919,3.993c-1.256,0.224-2.043-0.201-2.792-1.511
		c-0.09-0.158-0.248-0.237-0.443-0.252c-0.183,0.003-0.349,0.106-0.434,0.269c-0.403,0.773-1.816,1.478-2.964,1.478
		c-0.422,0-0.786-0.087-1.145-0.222C7.682,4.602,9.236,3,11.095,3z M7.095,8c0-0.073,0.015-0.142,0.017-0.214
		c0.4,0.124,0.814,0.19,1.268,0.19c1.233,0,2.585-0.578,3.374-1.376c0.723,0.986,1.575,1.454,2.655,1.454
		c0.216,0,0.449-0.032,0.685-0.07c0,0.005,0.001,0.011,0.001,0.016c0,2.757-1.795,5-4,5S7.095,10.757,7.095,8z M22.5,16H22v-1
		c0-1.654-1.346-3-3-3s-3,1.346-3,3v1h-0.5c-0.276,0-0.5,0.224-0.5,0.5v6c0,0.276,0.224,0.5,0.5,0.5h7c0.276,0,0.5-0.224,0.5-0.5v-6
		C23,16.224,22.776,16,22.5,16z M17,15c0-1.103,0.897-2,2-2s2,0.897,2,2v1h-4V15z M22,22h-6v-5h1h4h1V22z M20,19
		c0,0.366-0.206,0.673-0.5,0.847V20.5c0,0.276-0.224,0.5-0.5,0.5s-0.5-0.224-0.5-0.5v-0.653C18.206,19.673,18,19.366,18,19
		c0-0.552,0.448-1,1-1S20,18.448,20,19z"/>
</g>
<g id="Layer_1">
</g>
</svg>
