<?xml version="1.0" encoding="iso-8859-1"?>
<!-- Generator: Adobe Illustrator 19.2.1, SVG Export Plug-In . SVG Version: 6.00 Build 0)  -->
<svg version="1.1" xmlns="http://www.w3.org/2000/svg" xmlns:xlink="http://www.w3.org/1999/xlink" x="0px" y="0px"
	 viewBox="0 0 24 24" style="enable-background:new 0 0 24 24;" xml:space="preserve">
<g id="piggybank-alt">
	<rect id="bounding_168_" style="fill:none;" width="24" height="24"/>
	<path style="fill:#262626;" d="M16.8,9.6c0.221,0.166,0.266,0.479,0.101,0.7c-0.099,0.131-0.249,0.2-0.4,0.2
		c-0.104,0-0.21-0.033-0.3-0.1c-1.314-0.985-3.489-1.999-5.167-1.884c-0.272,0.006-0.514-0.19-0.532-0.466
		c-0.018-0.275,0.19-0.514,0.466-0.532C12.91,7.392,15.296,8.471,16.8,9.6z M21.973,12.952c-0.184,2.947-2.134,5.497-4.973,6.898V23
		c0,0.276-0.224,0.5-0.5,0.5S16,23.276,16,23v-2.715C14.774,20.742,13.422,21,12,21c-1.411,0-2.764-0.258-4-0.716V23
		c0,0.276-0.224,0.5-0.5,0.5S7,23.276,7,23v-3.155C5.227,18.973,3.769,17.657,2.89,16H0.5C0.224,16,0,15.776,0,15.5v-4
		C0,11.224,0.224,11,0.5,11h1.656c0.436-2.067,1.779-3.942,3.752-5.233C5.712,4.992,5.201,4.311,4.5,3.905
		C4.345,3.815,4.25,3.65,4.25,3.472c0-0.178,0.095-0.343,0.25-0.433C5.434,2.5,6.516,2.356,7.551,2.641
		c0.917,0.25,1.698,0.805,2.233,1.579c3.261-0.633,6.627,0.137,9.065,2.087c1.863,1.49,2.948,3.467,3.116,5.612
		C22.564,11.721,23,11.164,23,10.5c0-0.276,0.224-0.5,0.5-0.5s0.5,0.224,0.5,0.5C24,11.716,23.126,12.73,21.973,12.952z M21,12.5
		c0-2.059-0.985-3.981-2.774-5.413c-2.291-1.832-5.495-2.512-8.57-1.82C9.44,5.319,9.219,5.217,9.11,5.026
		C8.713,4.322,8.065,3.817,7.288,3.605C6.777,3.465,6.25,3.465,5.75,3.596c0.654,0.615,1.083,1.433,1.21,2.342
		c0.028,0.198-0.065,0.394-0.236,0.498c-2.019,1.222-3.351,3.095-3.655,5.138C3.032,11.818,2.822,12,2.574,12H1v3h2.197
		c0.192,0,0.367,0.11,0.451,0.283C5.026,18.148,8.305,20,12,20C16.963,20,21,16.636,21,12.5z M6,10c-0.551,0-1,0.449-1,1
		s0.449,1,1,1s1-0.449,1-1S6.551,10,6,10z"/>
</g>
<g id="Layer_1">
</g>
</svg>
