<?xml version="1.0" encoding="iso-8859-1"?>
<!-- Generator: Adobe Illustrator 19.2.1, SVG Export Plug-In . SVG Version: 6.00 Build 0)  -->
<svg version="1.1" xmlns="http://www.w3.org/2000/svg" xmlns:xlink="http://www.w3.org/1999/xlink" x="0px" y="0px"
	 viewBox="0 0 24 24" style="enable-background:new 0 0 24 24;" xml:space="preserve">
<g id="piggybank">
	<path style="fill:#262626;" d="M10.967,7.519c0.649-0.042,1.393-0.01,2.147,0.096c0.273,0.039,0.464,0.292,0.425,0.565
		c-0.035,0.25-0.249,0.43-0.495,0.43c-0.023,0-0.046-0.001-0.07-0.005c-0.687-0.096-1.356-0.128-1.941-0.088
		c-0.269,0.018-0.514-0.19-0.532-0.466S10.691,7.537,10.967,7.519z M24,10.5c0-0.276-0.224-0.5-0.5-0.5S23,10.224,23,10.5
		c0,0.662-0.434,1.218-1.029,1.417c-0.063-0.791-0.248-1.566-0.564-2.309c-0.108-0.254-0.401-0.373-0.656-0.264
		C20.497,9.452,20.378,9.746,20.487,10C20.827,10.801,21,11.642,21,12.5c0,4.135-4.038,7.5-9,7.5c-3.696,0-6.975-1.852-8.353-4.717
		C3.564,15.11,3.389,15,3.197,15H1v-3h1.574c0.248,0,0.458-0.182,0.495-0.426c0.304-2.043,1.636-3.916,3.655-5.138
		C6.895,6.333,6.988,6.137,6.96,5.938C6.832,5.029,6.403,4.211,5.75,3.597c0.5-0.132,1.027-0.13,1.539,0.009
		C8.065,3.818,8.713,4.322,9.11,5.026c0.108,0.191,0.328,0.292,0.545,0.242c0.458-0.103,0.926-0.178,1.391-0.221
		c0.275-0.026,0.477-0.27,0.452-0.544c-0.026-0.275-0.271-0.479-0.544-0.452c-0.39,0.037-0.782,0.093-1.169,0.168
		C9.249,3.446,8.468,2.891,7.551,2.641C6.516,2.357,5.434,2.5,4.5,3.04C4.345,3.129,4.25,3.294,4.25,3.472
		c0,0.179,0.095,0.344,0.25,0.433c0.701,0.406,1.212,1.087,1.409,1.862C3.936,7.058,2.592,8.933,2.156,11H0.5
		C0.224,11,0,11.224,0,11.5v4C0,15.776,0.224,16,0.5,16h2.39c0.879,1.657,2.337,2.974,4.11,3.845V23c0,0.276,0.224,0.5,0.5,0.5
		S8,23.276,8,23v-2.716C9.236,20.742,10.589,21,12,21c1.422,0,2.774-0.258,4-0.715V23c0,0.276,0.224,0.5,0.5,0.5S17,23.276,17,23
		v-3.15c2.839-1.401,4.79-3.951,4.973-6.898C23.126,12.73,24,11.717,24,10.5z M7,11c0,0.551-0.449,1-1,1s-1-0.449-1-1s0.449-1,1-1
		S7,10.449,7,11z M13,4.5C13,2.019,15.019,0,17.5,0S22,2.019,22,4.5S19.981,9,17.5,9S13,6.981,13,4.5z M14,4.5
		C14,6.43,15.57,8,17.5,8S21,6.43,21,4.5S19.43,1,17.5,1S14,2.57,14,4.5z M16,5.039h1v1c0,0.276,0.224,0.5,0.5,0.5
		s0.5-0.224,0.5-0.5v-1h1c0.276,0,0.5-0.224,0.5-0.5s-0.224-0.5-0.5-0.5h-1v-1c0-0.276-0.224-0.5-0.5-0.5S17,2.762,17,3.039v1h-1
		c-0.276,0-0.5,0.224-0.5,0.5S15.724,5.039,16,5.039z"/>
	<rect id="bounding_36_" style="fill:none;" width="24" height="24"/>
</g>
<g id="Layer_1">
</g>
</svg>
