<?xml version="1.0" encoding="iso-8859-1"?>
<!-- Generator: Adobe Illustrator 19.2.1, SVG Export Plug-In . SVG Version: 6.00 Build 0)  -->
<svg version="1.1" xmlns="http://www.w3.org/2000/svg" xmlns:xlink="http://www.w3.org/1999/xlink" x="0px" y="0px"
	 viewBox="0 0 24 24" style="enable-background:new 0 0 24 24;" xml:space="preserve">
<g id="play">
	<rect id="bounding_15_" style="fill:none;" width="24" height="24"/>
	<path style="fill:#262626;" d="M12,2C6.485,2,2,6.486,2,12c0,5.514,4.485,10,10,10c5.514,0,10-4.486,10-10C22,6.486,17.514,2,12,2z
		 M12,21c-4.963,0-9-4.037-9-9s4.037-9,9-9s9,4.037,9,9S16.963,21,12,21z M17,12c0,0.18-0.096,0.345-0.252,0.435l-7,4
		C9.671,16.479,9.586,16.5,9.5,16.5c-0.087,0-0.174-0.022-0.251-0.067C9.095,16.343,9,16.179,9,16V8
		c0-0.179,0.095-0.343,0.249-0.433c0.153-0.089,0.344-0.091,0.499-0.002l7,4C16.904,11.655,17,11.82,17,12z"/>
</g>
<g id="Layer_1">
</g>
</svg>
