<?xml version="1.0" encoding="iso-8859-1"?>
<!-- Generator: Adobe Illustrator 19.2.1, SVG Export Plug-In . SVG Version: 6.00 Build 0)  -->
<svg version="1.1" xmlns="http://www.w3.org/2000/svg" xmlns:xlink="http://www.w3.org/1999/xlink" x="0px" y="0px"
	 viewBox="0 0 12 12" style="enable-background:new 0 0 12 12;" xml:space="preserve">
<g id="plus-bold">
	
		<rect id="bounding_126_" x="0" y="0" transform="matrix(-1 -8.988867e-11 8.988867e-11 -1 12 12)" style="fill:none;" width="12" height="12"/>
	<path style="fill:#262626;" d="M12,6c0,0.552-0.447,1-1,1H7v4c0,0.552-0.447,1-1,1s-1-0.448-1-1V7H1C0.447,7,0,6.552,0,6
		s0.447-1,1-1h4V1c0-0.552,0.447-1,1-1s1,0.448,1,1v4h4C11.553,5,12,5.448,12,6z"/>
</g>
<g id="Layer_1">
</g>
</svg>
