<?xml version="1.0" encoding="iso-8859-1"?>
<!-- Generator: Adobe Illustrator 19.2.1, SVG Export Plug-In . SVG Version: 6.00 Build 0)  -->
<svg version="1.1" xmlns="http://www.w3.org/2000/svg" xmlns:xlink="http://www.w3.org/1999/xlink" x="0px" y="0px"
	 viewBox="0 0 12 12" style="enable-background:new 0 0 12 12;" xml:space="preserve">
<g id="plus-regular">
	
		<rect id="bounding_103_" x="0" y="0" transform="matrix(-1 -8.988867e-11 8.988867e-11 -1 12 12)" style="fill:none;" width="12" height="12"/>
	<path style="fill:#262626;" d="M11.705,6c0,0.389-0.315,0.705-0.705,0.705H6.705V11c0,0.389-0.315,0.705-0.705,0.705
		S5.295,11.389,5.295,11V6.705H1C0.61,6.705,0.295,6.389,0.295,6S0.61,5.295,1,5.295h4.295V1C5.295,0.611,5.61,0.295,6,0.295
		S6.705,0.611,6.705,1v4.295H11C11.39,5.295,11.705,5.611,11.705,6z"/>
</g>
<g id="Layer_1">
</g>
</svg>
