<?xml version="1.0" encoding="iso-8859-1"?>
<!-- Generator: Adobe Illustrator 19.2.1, SVG Export Plug-In . SVG Version: 6.00 Build 0)  -->
<svg version="1.1" xmlns="http://www.w3.org/2000/svg" xmlns:xlink="http://www.w3.org/1999/xlink" x="0px" y="0px"
	 viewBox="0 0 12 12" style="enable-background:new 0 0 12 12;" xml:space="preserve">
<g id="plus-light">
	
		<rect id="bounding_124_" x="0" y="0" transform="matrix(-1 -9.004010e-11 9.004010e-11 -1 12 12)" style="fill:none;" width="12" height="12"/>
	<path style="fill:#262626;" d="M11.5,6c0,0.276-0.224,0.5-0.5,0.5H6.5V11c0,0.276-0.224,0.5-0.5,0.5S5.5,11.276,5.5,11V6.5H1
		C0.724,6.5,0.5,6.276,0.5,6S0.724,5.5,1,5.5h4.5V1c0-0.276,0.224-0.5,0.5-0.5S6.5,0.724,6.5,1v4.5H11C11.276,5.5,11.5,5.724,11.5,6
		z"/>
</g>
<g id="Layer_1">
</g>
</svg>
