<?xml version="1.0" encoding="iso-8859-1"?>
<!-- Generator: Adobe Illustrator 19.2.1, SVG Export Plug-In . SVG Version: 6.00 Build 0)  -->
<svg version="1.1" xmlns="http://www.w3.org/2000/svg" xmlns:xlink="http://www.w3.org/1999/xlink" x="0px" y="0px"
	 viewBox="0 0 24 24" style="enable-background:new 0 0 24 24;" xml:space="preserve">
<g id="printer">
	<rect id="bounding_89_" style="fill:none;" width="24" height="24"/>
	<path style="fill:#262626;" d="M20,8H4c-1.178,0-2,0.822-2,2v5c0,1.178,0.822,2,2,2h2v4.5C6,21.776,6.224,22,6.5,22h11
		c0.276,0,0.5-0.224,0.5-0.5V17h2c1.178,0,2-0.822,2-2v-5C22,8.822,21.178,8,20,8z M17,21H7v-7h10V21z M21,15c0,0.636-0.364,1-1,1
		h-2v-2.5c0-0.276-0.224-0.5-0.5-0.5h-11C6.224,13,6,13.224,6,13.5V16H4c-0.636,0-1-0.364-1-1v-5c0-0.636,0.364-1,1-1h16
		c0.636,0,1,0.364,1,1V15z M6.022,10.999c0-0.551-0.448-0.999-1-0.999c-0.552,0-1,0.448-1,0.999c0,0.552,0.448,1,1,1
		C5.574,11.999,6.022,11.551,6.022,10.999z M8,15.5C8,15.224,8.224,15,8.5,15h7c0.276,0,0.5,0.224,0.5,0.5
		c0,0.276-0.224,0.5-0.5,0.5h-7C8.224,16,8,15.776,8,15.5z M16,17.5c0,0.276-0.224,0.5-0.5,0.5h-7C8.224,18,8,17.776,8,17.5
		C8,17.224,8.224,17,8.5,17h7C15.776,17,16,17.224,16,17.5z M16,19.5c0,0.276-0.224,0.5-0.5,0.5h-7C8.224,20,8,19.776,8,19.5
		C8,19.224,8.224,19,8.5,19h7C15.776,19,16,19.224,16,19.5z M17.884,5.18l-2.5-3C15.289,2.065,15.148,2,15,2H6.5
		C6.224,2,6,2.224,6,2.5v4C6,6.776,6.224,7,6.5,7C6.776,7,7,6.776,7,6.5V3h7v2.5C14,5.776,14.224,6,14.5,6H17v0.5
		C17,6.776,17.224,7,17.5,7C17.776,7,18,6.776,18,6.5v-1C18,5.383,17.959,5.269,17.884,5.18z M15,5V3.281L16.433,5H15z"/>
</g>
<g id="Layer_1">
</g>
</svg>
