<?xml version="1.0" encoding="iso-8859-1"?>
<!-- Generator: Adobe Illustrator 19.2.1, SVG Export Plug-In . SVG Version: 6.00 Build 0)  -->
<svg version="1.1" xmlns="http://www.w3.org/2000/svg" xmlns:xlink="http://www.w3.org/1999/xlink" x="0px" y="0px"
	 viewBox="0 0 24 24" style="enable-background:new 0 0 24 24;" xml:space="preserve">
<g id="quantitative">
	<rect id="bounding_37_" style="fill:none;" width="24" height="24"/>
	<path style="fill:#262626;" d="M18.123,17.934c0.889,0.636,1.854,1.139,2.895,1.515L19.687,22c-0.547-0.165-1.078-0.388-1.6-0.672
		c-0.113-0.058-0.916-0.586-2.405-1.587c-1.173,0.513-2.47,0.77-3.895,0.77c-2.75,0-4.905-0.812-6.465-2.431
		c-1.56-1.62-2.339-3.895-2.339-6.825c0-2.924,0.782-5.195,2.345-6.819C6.89,2.812,9.012,2,11.689,2
		c2.653,0,4.759,0.812,6.312,2.436c1.554,1.624,2.332,3.896,2.332,6.819c0,1.545-0.217,2.906-0.646,4.078
		C19.359,16.228,18.841,17.095,18.123,17.934z M15.217,15.894c0.465-0.546,0.813-1.205,1.045-1.977
		c0.232-0.775,0.348-1.661,0.348-2.662c0-2.069-0.455-3.614-1.367-4.634c-0.913-1.023-2.103-1.532-3.578-1.532
		S8.996,5.602,8.08,6.628c-0.915,1.025-1.373,2.566-1.373,4.627c0,2.091,0.458,3.657,1.373,4.695
		c0.916,1.038,2.073,1.557,3.475,1.557c0.522,0,1.013-0.086,1.477-0.257c-0.732-0.482-1.477-0.854-2.234-1.123l1.014-2.064
		C12.998,14.47,14.134,15.08,15.217,15.894z"/>
</g>
<g id="Layer_1">
</g>
</svg>
