<?xml version="1.0" encoding="iso-8859-1"?>
<!-- Generator: Adobe Illustrator 19.2.1, SVG Export Plug-In . SVG Version: 6.00 Build 0)  -->
<svg version="1.1" xmlns="http://www.w3.org/2000/svg" xmlns:xlink="http://www.w3.org/1999/xlink" x="0px" y="0px"
	 viewBox="0 0 14 14" style="enable-background:new 0 0 14 14;" xml:space="preserve">
<g id="search-14">
	<rect id="bounding_149_" style="fill:none;" width="14" height="14"/>
	<path style="fill:#262626;" d="M13.854,13.146l-5-5C9.559,7.284,10,6.198,10,5c0-2.757-2.243-5-5-5S0,2.243,0,5s2.243,5,5,5
		c1.198,0,2.284-0.441,3.146-1.146l5,5C13.244,13.951,13.372,14,13.5,14s0.256-0.049,0.354-0.146
		C14.049,13.658,14.049,13.342,13.854,13.146z M1,5c0-2.206,1.794-4,4-4s4,1.794,4,4S7.206,9,5,9S1,7.206,1,5z"/>
</g>
<g id="Layer_1">
</g>
</svg>
