<?xml version="1.0" encoding="iso-8859-1"?>
<!-- Generator: Adobe Illustrator 19.2.1, SVG Export Plug-In . SVG Version: 6.00 Build 0)  -->
<svg version="1.1" xmlns="http://www.w3.org/2000/svg" xmlns:xlink="http://www.w3.org/1999/xlink" x="0px" y="0px"
	 viewBox="0 0 24 24" style="enable-background:new 0 0 24 24;" xml:space="preserve">
<g id="select">
	<rect id="bounding_94_" style="fill:none;" width="24" height="24"/>
	<path style="fill:#262626;" d="M5.654,9.468c0.215,0.221,0.461,0.39,0.737,0.505c0.277,0.116,0.569,0.173,0.875,0.173
		c0.368,0,0.701-0.063,0.998-0.19c0.296-0.127,0.557-0.321,0.781-0.581c0.199-0.228,0.353-0.505,0.46-0.833s0.161-0.66,0.161-0.999
		c0-0.755-0.219-1.36-0.657-1.814S8.015,5.049,7.341,5.049c-0.711,0-1.285,0.239-1.724,0.718S4.96,6.86,4.96,7.612
		c0,0.391,0.062,0.743,0.188,1.057C5.273,8.983,5.442,9.25,5.654,9.468z M6.034,6.792c0.043-0.254,0.116-0.48,0.221-0.679
		c0.11-0.215,0.255-0.384,0.433-0.508C6.865,5.482,7.079,5.42,7.331,5.42c0.244,0,0.451,0.061,0.621,0.183
		c0.169,0.122,0.307,0.284,0.41,0.486C8.461,6.278,8.534,6.508,8.583,6.78s0.073,0.53,0.073,0.774c0,0.693-0.119,1.237-0.357,1.631
		C8.062,9.579,7.738,9.775,7.331,9.775c-0.248,0-0.456-0.06-0.624-0.178S6.399,9.315,6.289,9.106
		c-0.111-0.208-0.192-0.445-0.242-0.71C5.996,8.131,5.971,7.842,5.971,7.529C5.971,7.292,5.992,7.046,6.034,6.792z M10.779,2.92
		c-0.156-0.033-0.281-0.052-0.376-0.059V2.549l1.812-0.107l0.068,0.073v6.606c0,0.114,0.021,0.208,0.063,0.281
		s0.11,0.129,0.205,0.168c0.071,0.033,0.143,0.057,0.213,0.073c0.069,0.016,0.148,0.028,0.236,0.034V10h-2.349V9.678
		c0.075-0.006,0.154-0.014,0.239-0.022s0.154-0.021,0.21-0.037c0.091-0.029,0.159-0.081,0.205-0.154s0.068-0.168,0.068-0.286v-5.58
		c0-0.117-0.025-0.227-0.075-0.33c-0.051-0.103-0.117-0.184-0.198-0.242C11.043,2.988,10.936,2.953,10.779,2.92z M14.615,9.438
		c0.188,0.221,0.41,0.393,0.666,0.515c0.255,0.122,0.519,0.183,0.792,0.183c0.264,0,0.52-0.06,0.768-0.181
		c0.249-0.121,0.458-0.275,0.627-0.464l0.039,0.01v0.449l0.073,0.068l1.685-0.107V9.59c-0.098-0.003-0.205-0.01-0.322-0.02
		s-0.207-0.034-0.269-0.073c-0.085-0.055-0.149-0.123-0.192-0.203c-0.045-0.08-0.066-0.176-0.066-0.29v-6.49l-0.073-0.073
		l-1.973,0.107v0.303c0.179,0.013,0.346,0.033,0.501,0.061c0.154,0.028,0.277,0.073,0.368,0.135c0.081,0.059,0.145,0.144,0.19,0.257
		c0.046,0.112,0.068,0.237,0.068,0.374v1.678c-0.156-0.088-0.342-0.16-0.559-0.217c-0.216-0.057-0.437-0.085-0.66-0.085
		c-0.3,0-0.593,0.065-0.881,0.195c-0.287,0.13-0.53,0.304-0.729,0.522c-0.211,0.234-0.377,0.508-0.497,0.82
		s-0.181,0.643-0.181,0.991c0,0.381,0.056,0.729,0.168,1.045S14.424,9.214,14.615,9.438z M15.116,6.707
		c0.07-0.282,0.165-0.514,0.285-0.696c0.127-0.189,0.272-0.333,0.437-0.435s0.344-0.151,0.538-0.151
		c0.169,0,0.317,0.027,0.443,0.081c0.127,0.054,0.237,0.121,0.332,0.203c0.088,0.082,0.16,0.171,0.219,0.269
		s0.101,0.189,0.127,0.273v2.817c-0.117,0.137-0.261,0.262-0.432,0.376c-0.17,0.114-0.386,0.171-0.646,0.171
		c-0.243,0-0.454-0.055-0.631-0.166s-0.322-0.257-0.437-0.439c-0.123-0.192-0.211-0.399-0.263-0.623s-0.078-0.471-0.078-0.745
		C15.012,7.3,15.047,6.988,15.116,6.707z M2.409,11.92c-0.156-0.033-0.281-0.052-0.376-0.059v-0.312l1.812-0.107l0.068,0.073v6.606
		c0,0.114,0.021,0.208,0.063,0.281s0.11,0.129,0.205,0.168c0.071,0.033,0.143,0.057,0.213,0.073
		c0.069,0.016,0.148,0.028,0.236,0.034V19H2.282v-0.322c0.075-0.006,0.154-0.014,0.239-0.022s0.154-0.021,0.21-0.037
		c0.091-0.029,0.159-0.081,0.205-0.154s0.068-0.168,0.068-0.286v-5.58c0-0.117-0.025-0.227-0.075-0.33
		c-0.051-0.103-0.117-0.184-0.198-0.242C2.673,11.988,2.565,11.953,2.409,11.92z M6.275,14.767
		c-0.438,0.479-0.657,1.094-0.657,1.846c0,0.391,0.062,0.743,0.188,1.057c0.125,0.314,0.294,0.58,0.506,0.798
		c0.215,0.221,0.461,0.39,0.737,0.505c0.277,0.116,0.569,0.173,0.875,0.173c0.368,0,0.701-0.063,0.998-0.19
		c0.296-0.127,0.557-0.321,0.781-0.581c0.199-0.228,0.353-0.505,0.46-0.833s0.161-0.66,0.161-0.999c0-0.755-0.219-1.36-0.657-1.814
		s-0.995-0.681-1.669-0.681C7.288,14.049,6.714,14.288,6.275,14.767z M9.021,15.089c0.099,0.189,0.172,0.419,0.221,0.691
		s0.073,0.53,0.073,0.774c0,0.693-0.119,1.237-0.357,1.631c-0.237,0.394-0.561,0.591-0.968,0.591c-0.248,0-0.456-0.06-0.624-0.178
		s-0.308-0.282-0.418-0.491c-0.111-0.208-0.192-0.445-0.242-0.71c-0.051-0.265-0.076-0.554-0.076-0.867
		c0-0.238,0.021-0.483,0.063-0.737c0.043-0.254,0.116-0.48,0.221-0.679c0.11-0.215,0.255-0.384,0.433-0.508s0.392-0.186,0.644-0.186
		c0.244,0,0.451,0.061,0.621,0.183C8.779,14.725,8.917,14.887,9.021,15.089z M11.644,15.611c0,0.303,0.086,0.569,0.259,0.798
		s0.415,0.417,0.728,0.564v0.073c-0.247,0.104-0.432,0.229-0.555,0.374c-0.121,0.145-0.183,0.304-0.183,0.476
		c0,0.137,0.026,0.251,0.078,0.344s0.12,0.173,0.205,0.242c0.075,0.059,0.164,0.11,0.269,0.154s0.205,0.081,0.303,0.11v0.068
		c-0.403,0.016-0.735,0.121-0.996,0.312s-0.391,0.454-0.391,0.786c0,0.41,0.181,0.722,0.542,0.935s0.906,0.32,1.636,0.32
		c0.446,0,0.82-0.042,1.123-0.127s0.563-0.204,0.781-0.356c0.205-0.15,0.358-0.326,0.459-0.53s0.151-0.421,0.151-0.652
		s-0.037-0.425-0.112-0.581s-0.178-0.296-0.308-0.42c-0.124-0.114-0.261-0.204-0.413-0.269c-0.15-0.065-0.302-0.101-0.451-0.107
		c-0.104-0.003-0.281-0.013-0.529-0.029c-0.25-0.016-0.445-0.026-0.589-0.029c-0.134-0.003-0.263-0.008-0.388-0.015
		c-0.126-0.006-0.235-0.023-0.33-0.049c-0.098-0.023-0.181-0.066-0.249-0.129s-0.103-0.155-0.103-0.276
		c0-0.117,0.041-0.21,0.122-0.278s0.159-0.116,0.234-0.142h0.591c0.456,0,0.855-0.146,1.199-0.439
		c0.343-0.293,0.515-0.651,0.515-1.074c0-0.163-0.029-0.329-0.088-0.498s-0.148-0.324-0.269-0.464v-0.029h1.133v-0.469h-1.68
		c-0.149-0.045-0.297-0.083-0.441-0.112c-0.146-0.029-0.291-0.044-0.438-0.044c-0.53,0-0.966,0.146-1.307,0.439
		C11.813,14.781,11.644,15.156,11.644,15.611z M13.191,18.927c0.374,0,0.703,0.008,0.986,0.024s0.471,0.031,0.562,0.044
		c0.173,0.042,0.301,0.122,0.386,0.239s0.127,0.267,0.127,0.449c0,0.375-0.138,0.653-0.413,0.837
		c-0.274,0.184-0.651,0.276-1.13,0.276c-0.276,0-0.511-0.027-0.703-0.081s-0.345-0.123-0.459-0.208
		c-0.12-0.088-0.205-0.184-0.254-0.288s-0.073-0.213-0.073-0.327c0-0.254,0.074-0.461,0.223-0.623
		C12.59,19.11,12.84,18.995,13.191,18.927z M12.632,15.15c0.028-0.151,0.074-0.281,0.14-0.388c0.068-0.117,0.157-0.208,0.267-0.271
		c0.108-0.063,0.239-0.095,0.393-0.095c0.28,0,0.497,0.113,0.652,0.339c0.154,0.226,0.231,0.53,0.231,0.911
		c0,0.345-0.075,0.631-0.228,0.857c-0.15,0.226-0.366,0.339-0.646,0.339c-0.251,0-0.455-0.114-0.613-0.342
		c-0.157-0.228-0.236-0.522-0.236-0.884C12.591,15.457,12.604,15.301,12.632,15.15z M16.928,16.612c0,0.391,0.062,0.743,0.188,1.057
		c0.125,0.314,0.294,0.58,0.506,0.798c0.215,0.221,0.461,0.39,0.737,0.505c0.277,0.116,0.569,0.173,0.875,0.173
		c0.368,0,0.701-0.063,0.998-0.19c0.296-0.127,0.557-0.321,0.781-0.581c0.199-0.228,0.353-0.505,0.46-0.833s0.161-0.66,0.161-0.999
		c0-0.755-0.219-1.36-0.657-1.814s-0.995-0.681-1.669-0.681c-0.711,0-1.285,0.239-1.724,0.718S16.928,15.86,16.928,16.612z
		 M18.002,15.792c0.043-0.254,0.116-0.48,0.221-0.679c0.11-0.215,0.255-0.384,0.433-0.508s0.392-0.186,0.644-0.186
		c0.244,0,0.451,0.061,0.621,0.183c0.169,0.122,0.307,0.284,0.41,0.486c0.099,0.189,0.172,0.419,0.221,0.691s0.073,0.53,0.073,0.774
		c0,0.693-0.119,1.237-0.357,1.631c-0.237,0.394-0.561,0.591-0.968,0.591c-0.248,0-0.456-0.06-0.624-0.178s-0.308-0.282-0.418-0.491
		c-0.111-0.208-0.192-0.445-0.242-0.71c-0.051-0.265-0.076-0.554-0.076-0.867C17.938,16.292,17.96,16.046,18.002,15.792z M0,0v24h24
		V0H0z M23,23H1V1h22V23z"/>
</g>
<g id="Layer_1">
</g>
</svg>
