<?xml version="1.0" encoding="iso-8859-1"?>
<!-- Generator: Adobe Illustrator 19.2.1, SVG Export Plug-In . SVG Version: 6.00 Build 0)  -->
<svg version="1.1" xmlns="http://www.w3.org/2000/svg" xmlns:xlink="http://www.w3.org/1999/xlink" x="0px" y="0px"
	 viewBox="0 0 24 24" style="enable-background:new 0 0 24 24;" xml:space="preserve">
<g id="share">
	<rect id="bounding_17_" style="opacity:0.45;fill:none;" width="24" height="24"/>
	<path style="fill:#262626;" d="M18,14c-1.384,0-2.605,0.707-3.324,1.779L9.758,13.32C9.905,12.905,10,12.465,10,12
		c0-0.465-0.095-0.905-0.242-1.32l4.918-2.459C15.395,9.293,16.616,10,18,10c2.206,0,4-1.794,4-4s-1.794-4-4-4s-4,1.794-4,4
		c0,0.465,0.095,0.905,0.242,1.32L9.324,9.779C8.605,8.707,7.384,8,6,8c-2.206,0-4,1.794-4,4s1.794,4,4,4
		c1.384,0,2.605-0.707,3.324-1.779l4.918,2.459C14.095,17.095,14,17.535,14,18c0,2.206,1.794,4,4,4s4-1.794,4-4S20.206,14,18,14z
		 M18,3c1.654,0,3,1.346,3,3s-1.346,3-3,3s-3-1.346-3-3S16.346,3,18,3z M6,15c-1.654,0-3-1.346-3-3s1.346-3,3-3s3,1.346,3,3
		S7.654,15,6,15z M18,21c-1.654,0-3-1.346-3-3s1.346-3,3-3s3,1.346,3,3S19.654,21,18,21z"/>
</g>
<g id="Layer_1">
</g>
</svg>
