<?xml version="1.0" encoding="iso-8859-1"?>
<!-- Generator: Adobe Illustrator 19.2.1, SVG Export Plug-In . SVG Version: 6.00 Build 0)  -->
<svg version="1.1" xmlns="http://www.w3.org/2000/svg" xmlns:xlink="http://www.w3.org/1999/xlink" x="0px" y="0px"
	 viewBox="0 0 24 24" style="enable-background:new 0 0 24 24;" xml:space="preserve">
<g id="share-filled">
	<rect id="bounding_16_" style="opacity:0.45;fill:none;" width="24" height="24"/>
	<path style="fill:#262626;" d="M22,18c0,2.206-1.794,4-4,4s-4-1.794-4-4c0-0.465,0.095-0.905,0.242-1.32l-4.918-2.459
		C8.605,15.293,7.384,16,6,16c-2.206,0-4-1.794-4-4s1.794-4,4-4c1.384,0,2.605,0.707,3.324,1.779l4.918-2.459
		C14.095,6.905,14,6.465,14,6c0-2.206,1.794-4,4-4s4,1.794,4,4s-1.794,4-4,4c-1.384,0-2.605-0.707-3.324-1.779L9.758,10.68
		C9.905,11.095,10,11.535,10,12c0,0.465-0.095,0.905-0.242,1.32l4.918,2.459C15.395,14.707,16.616,14,18,14
		C20.206,14,22,15.794,22,18z"/>
</g>
<g id="Layer_1">
</g>
</svg>
