<?xml version="1.0" encoding="iso-8859-1"?>
<!-- Generator: Adobe Illustrator 19.2.1, SVG Export Plug-In . SVG Version: 6.00 Build 0)  -->
<svg version="1.1" xmlns="http://www.w3.org/2000/svg" xmlns:xlink="http://www.w3.org/1999/xlink" x="0px" y="0px"
	 viewBox="0 0 24 24" style="enable-background:new 0 0 24 24;" xml:space="preserve">
<g id="smartphone-flip">
	<rect id="bounding_20_" style="fill:none;" width="24" height="24"/>
	<path style="fill:#262626;" d="M10.269,3.416C9.916,3.063,9.45,2.867,8.956,2.861C8.443,2.835,7.991,3.046,7.642,3.395l-4.43,4.43
		c-0.719,0.719-0.709,1.896,0.021,2.627l9.056,9.056c0.368,0.368,0.851,0.554,1.332,0.554c0.471,0,0.939-0.178,1.295-0.533
		l4.43-4.43c0.35-0.349,0.54-0.815,0.534-1.314c-0.005-0.494-0.202-0.96-0.555-1.312L10.269,3.416z M5.981,11.786l5.622-5.622
		l5.793,5.794l-5.622,5.622L5.981,11.786z M3.919,8.532l4.431-4.43c0.155-0.155,0.363-0.241,0.586-0.241c0.003,0,0.006,0,0.009,0
		c0.231,0.003,0.45,0.096,0.616,0.262l1.335,1.334l-5.622,5.622L3.94,9.745C3.6,9.405,3.59,8.861,3.919,8.532z M18.638,14.392
		l-4.43,4.43c-0.328,0.327-0.872,0.32-1.212-0.021l-0.514-0.514l5.622-5.622l0.514,0.514c0.167,0.166,0.259,0.386,0.262,0.616
		C18.881,14.022,18.796,14.234,18.638,14.392z M5.38,8.914c-0.195-0.195-0.195-0.512,0-0.707l2.532-2.532
		c0.195-0.195,0.512-0.195,0.707,0s0.195,0.512,0,0.707L6.087,8.914C5.99,9.012,5.862,9.06,5.734,9.06
		C5.606,9.06,5.478,9.012,5.38,8.914z M22.266,8.422C22.184,8.475,22.091,8.499,22,8.499c-0.166,0-0.329-0.083-0.424-0.233
		c-1.338-2.129-3.635-3.398-5.983-3.42l1.257,0.97c0.219,0.168,0.259,0.483,0.091,0.701c-0.099,0.127-0.247,0.194-0.396,0.194
		c-0.106,0-0.214-0.034-0.305-0.104l-2.247-1.732c-0.018-0.011-0.033-0.024-0.049-0.038l-0.029-0.022
		c-0.014-0.011-0.021-0.028-0.033-0.041c-0.018-0.021-0.037-0.039-0.052-0.062c-0.064-0.085-0.11-0.183-0.11-0.292
		c0-0.155,0.072-0.302,0.195-0.397l2.326-1.787c0.22-0.168,0.534-0.125,0.701,0.092c0.169,0.219,0.127,0.533-0.092,0.701l-1.08,0.83
		c2.621,0.084,5.165,1.509,6.653,3.875C22.57,7.967,22.5,8.275,22.266,8.422z M10.17,19.347c0.064,0.085,0.11,0.183,0.11,0.292
		c0,0.155-0.072,0.302-0.195,0.396l-2.326,1.787c-0.091,0.069-0.198,0.104-0.304,0.104c-0.15,0-0.298-0.067-0.397-0.195
		c-0.168-0.219-0.127-0.533,0.092-0.701l1.069-0.821c-2.618-0.087-5.155-1.521-6.642-3.884C1.43,16.09,1.5,15.781,1.734,15.635
		c0.234-0.148,0.543-0.076,0.689,0.156c1.339,2.13,3.638,3.4,5.984,3.421l-1.259-0.97C6.93,18.073,6.89,17.759,7.058,17.54
		c0.168-0.217,0.482-0.259,0.701-0.091l2.255,1.738c0.013,0.008,0.024,0.019,0.036,0.027l0.035,0.027
		c0.017,0.013,0.024,0.032,0.039,0.047C10.14,19.309,10.157,19.324,10.17,19.347z"/>
</g>
<g id="Layer_1">
</g>
</svg>
