<?xml version="1.0" encoding="iso-8859-1"?>
<!-- Generator: Adobe Illustrator 19.2.1, SVG Export Plug-In . SVG Version: 6.00 Build 0)  -->
<svg version="1.1" xmlns="http://www.w3.org/2000/svg" xmlns:xlink="http://www.w3.org/1999/xlink" x="0px" y="0px"
	 viewBox="0 0 24 24" style="enable-background:new 0 0 24 24;" xml:space="preserve">
<g id="smartphone-chatbubble">
	<rect id="bounding_28_" style="fill:none;" width="24" height="24"/>
	<path id="SMS_alert_1_" style="fill:#262626;" d="M11.5,12c-0.276,0-0.5,0.224-0.5,0.5V16H3v-6h4.5C7.776,10,8,9.776,8,9.5
		S7.776,9,7.5,9H3V7.5C3,6.839,3.542,6,4.152,6H7.5C7.776,6,8,5.776,8,5.5S7.776,5,7.5,5H4.152C2.94,5,2,6.344,2,7.5v12.348
		C2,21.034,2.965,22,4.152,22H9.5c1.156,0,2.5-0.94,2.5-2.152V12.5C12,12.224,11.776,12,11.5,12z M9.5,21H4.152
		C3.517,21,3,20.483,3,19.848V17h8v2.848C11,20.457,10.161,21,9.5,21z M8.043,19c0,0.552-0.448,1-1,1c-0.552,0-1-0.448-1-1
		s0.448-1,1-1C7.595,18,8.043,18.448,8.043,19z M8,7.456c0,0.276-0.224,0.5-0.5,0.5h-1c-0.276,0-0.5-0.224-0.5-0.5
		c0-0.276,0.224-0.5,0.5-0.5h1C7.776,6.956,8,7.18,8,7.456z M20.4,2h-8.8C10.718,2,10,2.78,10,3.739V8.5c0,0.898,0.643,1.5,1.6,1.5
		H13v1.5c0,0.202,0.122,0.385,0.309,0.462C13.371,11.987,13.435,12,13.5,12c0.13,0,0.258-0.051,0.353-0.146L15.707,10H20.4
		c0.957,0,1.6-0.602,1.6-1.5V3.739C22,2.78,21.282,2,20.4,2z M21,8.5C21,8.637,21,9,20.4,9h-4.9c-0.133,0-0.26,0.053-0.354,0.146
		L14,10.293V9.5C14,9.224,13.776,9,13.5,9h-1.9C11,9,11,8.624,11,8.5V3.739C11,3.332,11.269,3,11.6,3h8.8
		C20.731,3,21,3.332,21,3.739V8.5z M16.487,5.5c0,0.276-0.224,0.5-0.5,0.5c-0.276,0-0.5-0.224-0.5-0.5c0-0.275,0.224-0.5,0.5-0.5
		C16.264,5,16.487,5.225,16.487,5.5z M18.965,5.5c0,0.276-0.224,0.5-0.5,0.5c-0.276,0-0.5-0.224-0.5-0.5c0-0.275,0.224-0.5,0.5-0.5
		C18.742,5,18.965,5.225,18.965,5.5z M14.035,5.5c0,0.276-0.224,0.5-0.5,0.5c-0.276,0-0.5-0.224-0.5-0.5c0-0.275,0.224-0.5,0.5-0.5
		C13.811,5,14.035,5.225,14.035,5.5z"/>
</g>
<g id="Layer_1">
</g>
</svg>
