<?xml version="1.0" encoding="iso-8859-1"?>
<!-- Generator: Adobe Illustrator 19.2.1, SVG Export Plug-In . SVG Version: 6.00 Build 0)  -->
<svg version="1.1" xmlns="http://www.w3.org/2000/svg" xmlns:xlink="http://www.w3.org/1999/xlink" x="0px" y="0px"
	 viewBox="0 0 14 14" style="enable-background:new 0 0 14 14;" xml:space="preserve">
<g id="squares-overlap-14">
	<rect id="bounding_142_" style="fill:none;" width="14" height="14"/>
	<path style="fill:#262626;" d="M0,4.5v-4C0,0.224,0.224,0,0.5,0h4C4.776,0,5,0.224,5,0.5S4.776,1,4.5,1H1v3.5
		C1,4.776,0.776,5,0.5,5S0,4.776,0,4.5z M13.5,0h-4C9.224,0,9,0.224,9,0.5S9.224,1,9.5,1H13v3.5C13,4.776,13.224,5,13.5,5
		S14,4.776,14,4.5v-4C14,0.224,13.776,0,13.5,0z M4.5,13H1V9.5C1,9.224,0.776,9,0.5,9S0,9.224,0,9.5v4C0,13.776,0.224,14,0.5,14h4
		C4.776,14,5,13.776,5,13.5S4.776,13,4.5,13z M13.5,9C13.224,9,13,9.224,13,9.5V13H9.5C9.224,13,9,13.224,9,13.5S9.224,14,9.5,14h4
		c0.276,0,0.5-0.224,0.5-0.5v-4C14,9.224,13.776,9,13.5,9z M10.5,11h-5C5.224,11,5,10.776,5,10.5V9H3.5C3.224,9,3,8.776,3,8.5v-5
		C3,3.224,3.224,3,3.5,3h5C8.776,3,9,3.224,9,3.5V5h1.5C10.776,5,11,5.224,11,5.5v5C11,10.776,10.776,11,10.5,11z M5,8V5.5
		C5,5.224,5.224,5,5.5,5H8V4H4v4H5z M6,6v2h2V6H6z M10,6H9v2.5C9,8.776,8.776,9,8.5,9H6v1h4V6z"/>
</g>
<g id="Layer_1">
</g>
</svg>
