<?xml version="1.0" encoding="iso-8859-1"?>
<!-- Generator: Adobe Illustrator 19.2.1, SVG Export Plug-In . SVG Version: 6.00 Build 0)  -->
<svg version="1.1" xmlns="http://www.w3.org/2000/svg" xmlns:xlink="http://www.w3.org/1999/xlink" x="0px" y="0px"
	 viewBox="0 0 24 24" style="enable-background:new 0 0 24 24;" xml:space="preserve">
<g id="stop">
	<rect id="bounding_118_" style="fill:none;" width="24" height="24"/>
	<path style="fill:#262626;" d="M12,2C6.485,2,2,6.486,2,12s4.485,10,10,10c5.514,0,10-4.486,10-10S17.514,2,12,2z M12,21
		c-4.963,0-9-4.037-9-9s4.037-9,9-9c4.963,0,9,4.037,9,9S16.963,21,12,21z M15.5,16h-7C8.224,16,8,15.776,8,15.5v-7
		C8,8.224,8.224,8,8.5,8h7C15.776,8,16,8.224,16,8.5v7C16,15.776,15.776,16,15.5,16z"/>
</g>
<g id="Layer_1">
</g>
</svg>
