<?xml version="1.0" encoding="iso-8859-1"?>
<!-- Generator: Adobe Illustrator 19.2.1, SVG Export Plug-In . SVG Version: 6.00 Build 0)  -->
<svg version="1.1" xmlns="http://www.w3.org/2000/svg" xmlns:xlink="http://www.w3.org/1999/xlink" x="0px" y="0px"
	 viewBox="0 0 24 24" style="enable-background:new 0 0 24 24;" xml:space="preserve">
<g id="tag">
	<rect id="bounding_23_" style="fill:none;" width="24" height="24"/>
	<path style="fill:#221E20;" d="M22.353,14.646L9.679,1.972C9.585,1.878,9.458,1.825,9.325,1.825h-7c-0.276,0-0.5,0.224-0.5,0.5v7
		c0,0.133,0.053,0.26,0.146,0.354l12.675,12.675C14.744,22.451,14.872,22.5,15,22.5c0.128,0,0.256-0.049,0.353-0.146l7-7
		C22.549,15.158,22.549,14.842,22.353,14.646z M15,21.293L2.825,9.118V2.825h6.293L21.293,15L15,21.293z M7.5,5.25
		c-1.24,0-2.25,1.01-2.25,2.25S6.26,9.75,7.5,9.75c1.24,0,2.25-1.01,2.25-2.25S8.74,5.25,7.5,5.25z M7.5,8.75
		c-0.69,0-1.25-0.561-1.25-1.25S6.81,6.25,7.5,6.25c0.689,0,1.25,0.561,1.25,1.25S8.189,8.75,7.5,8.75z"/>
</g>
<g id="Layer_1">
</g>
</svg>
