<?xml version="1.0" encoding="iso-8859-1"?>
<!-- Generator: Adobe Illustrator 19.2.1, SVG Export Plug-In . SVG Version: 6.00 Build 0)  -->
<svg version="1.1" xmlns="http://www.w3.org/2000/svg" xmlns:xlink="http://www.w3.org/1999/xlink" x="0px" y="0px"
	 viewBox="0 0 24 24" style="enable-background:new 0 0 24 24;" xml:space="preserve">
<g id="three-people">
	<rect id="bounding_169_" style="fill:none;" width="24" height="24"/>
	<path d="M5.5,8h-5C0.224,8,0,8.224,0,8.5v3c0,1.083,0.336,1.729,1,1.932V17.5C1,17.776,1.224,18,1.5,18h3C4.776,18,5,17.776,5,17.5
		v-4.068c0.663-0.202,0.999-0.85,1-1.932v-3C6,8.224,5.776,8,5.5,8z M5,11.5c-0.001,1-0.278,1-0.5,1C4.224,12.5,4,12.724,4,13v4H2
		v-4c0-0.276-0.224-0.5-0.5-0.5c-0.223,0-0.5,0-0.5-1V9h4V11.5z M23.5,8h-5C18.224,8,18,8.224,18,8.5v3c0,1.083,0.336,1.729,1,1.932
		V17.5c0,0.276,0.224,0.5,0.5,0.5h3c0.276,0,0.5-0.224,0.5-0.5v-4.068c0.663-0.202,0.999-0.85,1-1.932v-3C24,8.224,23.776,8,23.5,8z
		 M23,11.5c-0.001,1-0.277,1-0.5,1c-0.276,0-0.5,0.224-0.5,0.5v4h-2v-4c0-0.276-0.224-0.5-0.5-0.5c-0.223,0-0.5,0-0.5-1V9h4V11.5z
		 M15.5,8h-7C8.224,8,8,8.224,8,8.5v5c0,1.207,0.86,2.218,2,2.45v5.55c0,0.276,0.224,0.5,0.5,0.5h3c0.276,0,0.5-0.224,0.5-0.5v-5.55
		c1.14-0.232,2-1.243,2-2.45v-5C16,8.224,15.776,8,15.5,8z M15,13.5c0,0.827-0.673,1.5-1.5,1.5c-0.276,0-0.5,0.224-0.5,0.5V21h-2
		v-5.5c0-0.276-0.224-0.5-0.5-0.5C9.673,15,9,14.327,9,13.5V9h6V13.5z M3,7c1.103,0,2-0.897,2-2S4.103,3,3,3S1,3.897,1,5
		S1.897,7,3,7z M3,4c0.551,0,1,0.449,1,1S3.551,6,3,6S2,5.551,2,5S2.449,4,3,4z M21,7c1.103,0,2-0.897,2-2s-0.897-2-2-2
		s-2,0.897-2,2S19.897,7,21,7z M21,4c0.552,0,1,0.449,1,1s-0.448,1-1,1s-1-0.449-1-1S20.448,4,21,4z M12,7c1.654,0,3-1.346,3-3
		s-1.346-3-3-3S9,2.346,9,4S10.346,7,12,7z M12,2c1.103,0,2,0.897,2,2s-0.897,2-2,2c-1.103,0-2-0.897-2-2S10.897,2,12,2z"/>
</g>
<g id="Layer_1">
</g>
</svg>
