<?xml version="1.0" encoding="iso-8859-1"?>
<!-- Generator: Adobe Illustrator 19.2.1, SVG Export Plug-In . SVG Version: 6.00 Build 0)  -->
<svg version="1.1" xmlns="http://www.w3.org/2000/svg" xmlns:xlink="http://www.w3.org/1999/xlink" x="0px" y="0px"
	 viewBox="0 0 16 14" style="enable-background:new 0 0 16 14;" xml:space="preserve">
<g id="warning-triangle-14">
	<path style="fill:#262626;" d="M7,10h2v2H7V10z M7,9h2V5H7V9z M15.933,13.75C15.844,13.905,15.679,14,15.5,14h-15
		c-0.179,0-0.344-0.095-0.433-0.25c-0.09-0.155-0.09-0.345,0-0.5l7.5-13c0.178-0.31,0.688-0.31,0.865,0l7.5,13
		C16.022,13.405,16.022,13.595,15.933,13.75z M14.635,13L8,1.5L1.365,13H14.635z"/>
	<rect id="bounding_170_" style="fill:none;" width="16" height="14"/>
</g>
<g id="Layer_1">
</g>
</svg>
