<?xml version="1.0" encoding="utf-8"?>
<!-- Generator: Adobe Illustrator 19.2.1, SVG Export Plug-In . SVG Version: 6.00 Build 0)  -->
<svg version="1.1" id="badge" xmlns="http://www.w3.org/2000/svg" xmlns:xlink="http://www.w3.org/1999/xlink" x="0px" y="0px"
	 viewBox="0 0 43.11 10.786" style="enable-background:new 0 0 43.11 10.786;"
	 xml:space="preserve">
<path id="badge--bg" style="fill:#006193;" d="M5.359,10.449c-2.798,0-5.056-2.258-5.056-5.056s2.258-5.056,5.056-5.056h32.358
	c2.798,0,5.056,2.258,5.056,5.056c0,2.764-2.258,5.022-5.022,5.056H5.359z"/>
<path id="badge--border" style="fill:#E9A200;" d="M37.717,0.708c2.595,0,4.685,2.09,4.685,4.685c0,2.562-2.09,4.685-4.651,4.685
	H5.393c-2.595,0-4.685-2.09-4.685-4.685s2.09-4.685,4.685-4.685L37.717,0.708 M37.717,0C37.447,0,5.663,0,5.393,0
	C2.393,0,0,2.427,0,5.393s2.427,5.393,5.393,5.393h32.358c2.966,0,5.359-2.427,5.359-5.393S40.683,0,37.717,0L37.717,0z"/>
<path id="badge--discount" style="fill:#FFFFFF;enable-background:new    ;" d="M4.955,3.303h1.281c0.708,0,1.213,0.135,1.618,0.506
	c0.472,0.404,0.708,0.977,0.708,1.685s-0.27,1.348-0.708,1.753c-0.371,0.337-0.91,0.506-1.55,0.506H4.988V3.303H4.955z M5.899,7.011
	h0.169c0.506,0,0.775-0.101,1.045-0.303C7.449,6.438,7.618,6,7.618,5.528c0-0.876-0.539-1.483-1.382-1.483H5.899V7.011z
	 M10.516,7.786h-0.91V3.303h0.91V7.786z M12.404,6.472v0.067c0,0.303,0.27,0.506,0.607,0.506c0.337,0,0.573-0.202,0.573-0.472
	c0-0.135-0.067-0.27-0.169-0.371s-0.202-0.135-0.539-0.236c-0.977-0.337-1.315-0.708-1.315-1.416c0-0.809,0.607-1.348,1.483-1.348
	s1.449,0.506,1.517,1.382h-0.91c-0.034-0.371-0.236-0.539-0.573-0.539c-0.337,0-0.539,0.202-0.539,0.472
	c0,0.169,0.101,0.337,0.27,0.438c0.135,0.067,0.202,0.101,0.506,0.236c0.506,0.169,0.742,0.303,0.944,0.506
	c0.236,0.236,0.371,0.506,0.371,0.876c0,0.809-0.607,1.348-1.55,1.348c-0.944,0-1.517-0.539-1.517-1.382h0.843V6.472z M19.246,7.179
	c-0.506,0.472-1.011,0.674-1.652,0.674c-0.64,0-1.213-0.236-1.584-0.674c-0.371-0.438-0.607-1.011-0.607-1.652
	c0-1.348,0.91-2.326,2.225-2.326c0.674,0,1.146,0.202,1.685,0.708l-0.607,0.607c-0.371-0.337-0.674-0.472-1.045-0.472
	c-0.775,0-1.348,0.607-1.348,1.449s0.573,1.483,1.382,1.483c0.404,0,0.708-0.135,1.011-0.472L19.246,7.179z M23.897,3.977
	c0.371,0.438,0.573,0.944,0.573,1.584c0,1.281-1.011,2.292-2.292,2.292c-1.315,0-2.326-1.011-2.326-2.292
	c0-1.315,1.011-2.359,2.359-2.359C22.853,3.236,23.459,3.505,23.897,3.977z M20.797,5.561c0,0.843,0.607,1.483,1.382,1.483
	c0.775-0.034,1.382-0.674,1.382-1.483c0-0.876-0.573-1.517-1.382-1.517C21.403,4.078,20.797,4.719,20.797,5.561z M26.392,5.932
	c0,0.404,0.067,0.64,0.202,0.809c0.135,0.169,0.371,0.27,0.607,0.27c0.27,0,0.506-0.135,0.64-0.303
	c0.135-0.169,0.169-0.371,0.169-0.775V3.337h0.944v2.595c0,0.64-0.135,1.112-0.438,1.449c-0.303,0.337-0.775,0.506-1.281,0.506
	c-0.539,0-1.045-0.202-1.348-0.539c-0.303-0.337-0.404-0.708-0.404-1.416V3.337h0.91V5.932z M31.077,7.786h-0.91V3.303h0.91
	l1.854,2.798V3.303h0.91v4.483h-0.91l-1.888-2.831v2.831H31.077z M36.638,7.786h-0.91V4.078H34.65V3.337h3.034v0.742h-1.045V7.786z"
	/>
</svg>
