<?xml version="1.0" encoding="utf-8"?>
<!-- Generator: Adobe Illustrator 19.2.1, SVG Export Plug-In . SVG Version: 6.00 Build 0)  -->
<svg version="1.1" id="logo-select50" xmlns="http://www.w3.org/2000/svg" xmlns:xlink="http://www.w3.org/1999/xlink" x="0px"
	 y="0px" viewBox="0 0 43.144 22.65" style="enable-background:new 0 0 43.144 22.65;"
	 xml:space="preserve">
<g id="select50--star">
	<path style="fill:#006098;" d="M31.818,0c-6.236,0-11.325,5.056-11.325,11.325c0,6.236,5.056,11.325,11.325,11.325
		c6.269-0.034,11.325-5.09,11.325-11.359C43.144,5.056,38.088,0,31.818,0 M31.818,3.438c4.348,0,7.853,3.539,7.853,7.853
		c0,4.348-3.539,7.853-7.853,7.853c-4.314,0.034-7.853-3.505-7.853-7.853S27.504,3.438,31.818,3.438"/>
	<polygon style="fill:#E8A123;" points="31.717,4.753 33.234,9.235 38.121,9.235 34.178,12.1 35.695,16.651 31.717,13.887
		27.774,16.684 29.29,12.1 25.347,9.235 30.234,9.235 	"/>
</g>
<path id="select50--5" style="fill:#006098;" d="M13.112,8.056c-0.977,0-1.753,0.169-2.764,0.607V3.876h7.449V0H6.404v13.213h2.798
	c0.843-1.079,1.685-1.517,2.831-1.517c1.854,0,3.303,1.55,3.303,3.438c0,1.921-1.449,3.404-3.269,3.404
	c-1.517,0-2.461-0.742-3.101-2.427H6.404v3.708c0.202,0.27,0.404,0.506,0.674,0.775c1.348,1.315,3.135,2.022,5.157,2.022
	c4.281,0,7.348-3.135,7.348-7.584C19.583,11.056,16.752,8.056,13.112,8.056z"/>
<path id="select50--select" style="fill:#006098;" d="M3.371,21.707h0.067c0.303,0,0.539-0.27,0.539-0.64
	c0-0.337-0.202-0.607-0.506-0.607c-0.135,0-0.27,0.067-0.371,0.202C3.034,20.797,3,20.864,2.865,21.235
	c-0.371,1.011-0.742,1.382-1.449,1.382C0.573,22.617,0,22.01,0,21.1s0.539-1.483,1.416-1.55v0.944
	c-0.404,0.034-0.573,0.236-0.573,0.607c0,0.337,0.202,0.573,0.472,0.573c0.202,0,0.337-0.101,0.438-0.27
	c0.067-0.135,0.101-0.202,0.236-0.539c0.202-0.506,0.303-0.775,0.506-0.977c0.236-0.236,0.539-0.371,0.91-0.371
	c0.843,0,1.416,0.64,1.416,1.584c0,0.977-0.539,1.55-1.449,1.55L3.371,21.707L3.371,21.707z M1.989,17.527v-1.618h0.775v1.618H3.91
	v-1.618h0.775v2.562H0.067v-2.562h0.775v1.618H1.989z M3.944,12.202h0.775v2.494H0.101v-0.944h3.842
	C3.944,13.752,3.944,12.202,3.944,12.202z M1.989,10.348V8.73h0.775v1.618H3.91V8.73h0.775v2.562H0.067V8.73h0.775v1.618H1.989z
	 M4.112,3.708C4.618,4.247,4.82,4.753,4.82,5.427c0,0.708-0.27,1.281-0.742,1.719C3.64,7.516,3.034,7.719,2.427,7.719
	C1.011,7.719,0,6.775,0,5.427c0-0.708,0.202-1.213,0.742-1.753l0.607,0.607C1.011,4.651,0.876,4.955,0.876,5.359
	c0,0.809,0.607,1.382,1.517,1.382S3.91,6.168,3.91,5.326c0-0.438-0.135-0.742-0.472-1.045L4.112,3.708z M4.719,1.079v0.944H0.876
	v1.112H0.101V0h0.775v1.079H4.719z"/>
</svg>
